<?xml version="1.0" encoding="utf-8"?>
<!-- Generator: Adobe Illustrator 17.1.0, SVG Export Plug-In . SVG Version: 6.00 Build 0)  -->
<!DOCTYPE svg PUBLIC "-//W3C//DTD SVG 1.1//EN" "http://www.w3.org/Graphics/SVG/1.1/DTD/svg11.dtd">
<svg version="1.1" id="Layer_3" xmlns="http://www.w3.org/2000/svg" xmlns:xlink="http://www.w3.org/1999/xlink" x="0px" y="0px"
	 viewBox="0 0 19.1 20" enable-background="new 0 0 19.1 20" xml:space="preserve">
<g>
	<g>
		<path fill="#FFFFFF" d="M3.1,13.1C1.4,13.1,0,11.7,0,10s1.4-3.1,3.1-3.1c1.7,0,3.1,1.4,3.1,3.1S4.8,13.1,3.1,13.1L3.1,13.1z
			 M3.1,8.5c-0.8,0-1.5,0.7-1.5,1.5s0.7,1.5,1.5,1.5c0.8,0,1.5-0.7,1.5-1.5S4,8.5,3.1,8.5L3.1,8.5z"/>
	</g>
	<g>
		<g>
			<path fill="#FFFFFF" d="M15.9,6.2c-1.7,0-3.1-1.4-3.1-3.1S14.2,0,15.9,0s3.1,1.4,3.1,3.1S17.7,6.2,15.9,6.2L15.9,6.2z M15.9,1.6
				c-0.8,0-1.5,0.7-1.5,1.5s0.7,1.5,1.5,1.5c0.8,0,1.5-0.7,1.5-1.5S16.8,1.6,15.9,1.6L15.9,1.6z"/>
		</g>
		<g>
			<path fill="#FFFFFF" d="M15.9,20c-1.7,0-3.1-1.4-3.1-3.1s1.4-3.1,3.1-3.1s3.1,1.4,3.1,3.1S17.7,20,15.9,20L15.9,20z M15.9,15.4
				c-0.8,0-1.5,0.7-1.5,1.5s0.7,1.5,1.5,1.5c0.8,0,1.5-0.7,1.5-1.5S16.8,15.4,15.9,15.4L15.9,15.4z"/>
		</g>
	</g>
	<g>
		<g>
			<path fill="#FFFFFF" d="M13.6,16.5c-0.1,0-0.3,0-0.4-0.1l-8.2-4.7c-0.4-0.2-0.5-0.7-0.3-1.1c0.2-0.4,0.7-0.5,1.1-0.3L14,15
				c0.4,0.2,0.5,0.7,0.3,1.1C14.1,16.3,13.8,16.5,13.6,16.5L13.6,16.5z"/>
		</g>
		<g>
			<path fill="#FFFFFF" d="M5.3,9.9c-0.3,0-0.5-0.1-0.7-0.4C4.4,9.1,4.5,8.6,4.9,8.4l8.2-4.7c0.4-0.2,0.9-0.1,1.1,0.3
				C14.5,4.3,14.3,4.8,14,5L5.7,9.8C5.6,9.9,5.5,9.9,5.3,9.9L5.3,9.9z"/>
		</g>
	</g>
</g>
</svg>
