<?xml version="1.0" encoding="utf-8"?>
<!-- Generator: Adobe Illustrator 17.1.0, SVG Export Plug-In . SVG Version: 6.00 Build 0)  -->
<!DOCTYPE svg PUBLIC "-//W3C//DTD SVG 1.1//EN" "http://www.w3.org/Graphics/SVG/1.1/DTD/svg11.dtd">
<svg version="1.1" id="Layer_1" xmlns="http://www.w3.org/2000/svg" xmlns:xlink="http://www.w3.org/1999/xlink" x="0px" y="0px"
	 viewBox="0 0 49.2 49.2" enable-background="new 0 0 49.2 49.2" xml:space="preserve">
<g>
	<path fill="#DD4B39" d="M20,22.8c0.6,0,1.2-0.2,1.6-0.7c0.6-0.7,0.9-1.9,0.8-3.2c-0.3-2.3-1.9-4.2-3.6-4.2l-0.1,0
		c-0.6,0-1.1,0.2-1.6,0.7c-0.6,0.7-0.9,1.9-0.7,3.1C16.7,20.8,18.3,22.8,20,22.8L20,22.8z"/>
	<path fill="#DD4B39" d="M21.9,29.7c-0.2-0.1-0.3-0.2-0.5-0.4c-0.5-0.2-1.1-0.2-1.7-0.3h-0.1c-2.6,0-4.9,1.6-4.9,3.4
		c0,2,2,3.5,4.5,3.5c3.3,0,5-1.1,5-3.4c0-0.2,0-0.4-0.1-0.7C23.9,31.1,23.1,30.5,21.9,29.7z"/>
	<path fill="#DD4B39" d="M24.6,0C11,0,0,11,0,24.6c0,13.6,11,24.6,24.6,24.6c13.6,0,24.6-11,24.6-24.6C49.2,11,38.2,0,24.6,0z
		 M22.4,38c-1,0.3-2,0.4-3.2,0.4c-1.2,0-2.4-0.1-3.5-0.4c-2.2-0.5-3.7-1.6-4.5-2.9c-0.3-0.6-0.5-1.2-0.5-1.8c0-0.7,0.2-1.3,0.5-2
		c1.2-2.5,4.3-4.2,7.7-4.2c0,0,0.1,0,0.1,0c-0.3-0.5-0.4-1-0.4-1.5c0-0.3,0-0.5,0.1-0.8c-3.6-0.1-6.3-2.7-6.3-6.2
		c0-2.5,2-4.9,4.8-5.8c0.8-0.3,1.7-0.4,2.5-0.4h7.7c0.3,0,0.5,0.2,0.6,0.4c0.1,0.3,0,0.5-0.2,0.7l-1.7,1.2c-0.1,0.1-0.2,0.1-0.4,0.1
		h-0.6c0.8,1,1.3,2.3,1.3,3.8c0,1.7-0.9,3.3-2.4,4.5c-1.2,0.9-1.2,1.2-1.2,1.7c0,0.3,0.9,1.3,1.8,1.9c2.2,1.5,3,3,3,5.5
		C27.4,34.9,25.4,37.1,22.4,38z M39.8,24.8c0,0.3-0.3,0.6-0.6,0.6h-4.4v4.4c0,0.3-0.3,0.6-0.6,0.6H33c-0.3,0-0.6-0.3-0.6-0.6v-4.4
		H28c-0.3,0-0.6-0.3-0.6-0.6v-1.2c0-0.3,0.3-0.6,0.6-0.6h4.4v-4.4c0-0.3,0.3-0.6,0.6-0.6h1.2c0.3,0,0.6,0.3,0.6,0.6v4.4h4.4
		c0.3,0,0.6,0.3,0.6,0.6V24.8z"/>
</g>
</svg>
