<?xml version="1.0" encoding="utf-8"?>
<!-- Generator: Adobe Illustrator 17.1.0, SVG Export Plug-In . SVG Version: 6.00 Build 0)  -->
<!DOCTYPE svg PUBLIC "-//W3C//DTD SVG 1.1//EN" "http://www.w3.org/Graphics/SVG/1.1/DTD/svg11.dtd">
<svg version="1.1" id="Layer_1" xmlns="http://www.w3.org/2000/svg" xmlns:xlink="http://www.w3.org/1999/xlink" x="0px" y="0px"
	 viewBox="0 0 2161 293.1" enable-background="new 0 0 2161 293.1" xml:space="preserve">
<g>
	<g>
		<path fill="#FFFFFF" d="M656.1,272.5v-44.7h-6.5v44.7H656.1z M656.6,215.1v-7.4h-7.4v7.4H656.6z"/>
		<path fill="#FFFFFF" d="M716.9,272.5v-28.6c0-5.2-1.5-9.4-4.6-12.5c-2.7-2.7-6.6-4.2-11.5-4.2c-5,0-9.4,1.8-12.6,5.5v-4.9h-6.5
			v44.7h6.5V245c0-7.8,4.4-11.9,11.1-11.9c6.7,0,11,4,11,11.9v27.6H716.9z"/>
		<path fill="#FFFFFF" d="M774.2,259.4c0-8.4-5.4-11.4-13.2-12.1l-7.2-0.6c-5.6-0.4-7.8-2.7-7.8-6.5c0-4.6,3.5-7.4,10-7.4
			c4.6,0,8.7,1.1,11.9,3.5l4.3-4.3c-4-3.3-9.7-4.8-16.1-4.8c-9.5,0-16.5,4.9-16.5,13.1c0,7.4,4.6,11.3,13.4,12l7.4,0.6
			c5.2,0.5,7.5,2.6,7.5,6.5c0,5.3-4.5,7.9-11.9,7.9c-5.5,0-10.4-1.5-13.9-5.2l-4.4,4.4c4.9,4.7,10.8,6.5,18.4,6.5
			C766.8,273.1,774.2,268.1,774.2,259.4z"/>
		<path fill="#FFFFFF" d="M831.7,250.2c0-7-0.9-14.5-5.5-19c-2.4-2.4-6.4-3.9-10.9-3.9c-4.9,0-9,1.1-12.6,5.8v-5.3h-6.5v64.8h6.5
			v-25.3c3.6,4.6,7.7,5.8,12.6,5.8c4.5,0,8.5-1.5,10.9-3.9C830.8,264.6,831.7,257.2,831.7,250.2z M825.1,250.2
			c0,8.7-1.5,17.1-11.2,17.1c-9.7,0-11.3-8.4-11.3-17.1c0-8.7,1.5-17.1,11.3-17.1C823.7,233.1,825.1,241.4,825.1,250.2z"/>
		<path fill="#FFFFFF" d="M861.3,272.5v-44.7h-6.5v44.7H861.3z M861.8,215.1v-7.4h-7.4v7.4H861.8z"/>
		<path fill="#FFFFFF" d="M916.7,231.4c-3.2-3.2-6.5-4.2-10.7-4.2c-5.2,0-10.1,2.3-12.6,6v-5.5h-6.5v44.7h6.5v-27.5
			c0-6.8,4.2-12,10.7-12c3.5,0,5.3,0.8,7.7,3.3L916.7,231.4z"/>
		<path fill="#FFFFFF" d="M965.5,251.9v-3c0-13.3-6.8-21.6-18.4-21.6c-11.4,0-18.4,8.5-18.4,22.9c0,15.8,7.7,22.9,19.6,22.9
			c7.6,0,11.8-2.4,16.4-6.9l-4.5-3.9c-3.5,3.5-6.5,5.1-11.7,5.1c-8.6,0-13.2-5.6-13.2-15.5H965.5z M958.9,247h-23.6
			c0.2-3.6,0.4-5,1.4-7.5c1.7-4.1,5.7-6.7,10.5-6.7c4.7,0,8.7,2.6,10.5,6.7C958.5,242,958.7,243.3,958.9,247z"/>
		<path fill="#FFFFFF" d="M1021.7,272.5v-64.8h-6.5V233c-3.6-4.6-7.7-5.7-12.6-5.7c-4.5,0-8.6,1.5-10.9,3.9c-4.5,4.5-5.5,12-5.5,19
			s0.9,14.5,5.5,19c2.4,2.4,6.4,3.9,10.9,3.9c4.9,0,9.1-1.2,12.7-5.9v5.4H1021.7z M1015.1,250.2c0,8.7-1.5,17.1-11.2,17.1
			c-9.7,0-11.3-8.4-11.3-17.1c0-8.7,1.5-17.1,11.3-17.1C1013.7,233.1,1015.1,241.4,1015.1,250.2z"/>
		<path fill="#FFFFFF" d="M1114.4,250.2c0-7-0.9-14.5-5.5-19c-2.4-2.4-6.4-3.9-10.9-3.9c-4.9,0-9,1.1-12.6,5.7v-25.2h-6.6v64.8h6.6
			v-5.4c3.6,4.7,7.7,5.9,12.6,5.9c4.6,0,8.6-1.5,10.9-3.9C1113.5,264.6,1114.4,257.2,1114.4,250.2z M1107.9,250.2
			c0,8.7-1.5,17.1-11.2,17.1c-9.7,0-11.3-8.4-11.3-17.1c0-8.7,1.5-17.1,11.3-17.1C1106.4,233.1,1107.9,241.4,1107.9,250.2z"/>
		<path fill="#FFFFFF" d="M1169,227.8h-7.1l-12.2,35.9l-12.3-35.9h-7.1l16.1,43.8l-3.2,8.7c-1.5,4.1-2.8,5.5-7.4,5.5h-2v5.8h2.8
			c3.2,0,6.4-0.8,8.7-3.1c1.3-1.2,2.3-2.8,3.2-5.3L1169,227.8z"/>
		<path fill="#FFFFFF" d="M1252.2,272.5v-64.8h-6.5V233c-3.6-4.6-7.7-5.7-12.6-5.7c-4.6,0-8.6,1.5-10.9,3.9c-4.5,4.5-5.5,12-5.5,19
			s0.9,14.5,5.5,19c2.4,2.4,6.4,3.9,10.9,3.9c4.9,0,9.1-1.2,12.7-5.9v5.4H1252.2z M1245.7,250.2c0,8.7-1.5,17.1-11.2,17.1
			c-9.7,0-11.3-8.4-11.3-17.1c0-8.7,1.5-17.1,11.3-17.1C1244.2,233.1,1245.7,241.4,1245.7,250.2z"/>
		<path fill="#FFFFFF" d="M1284.3,272.5v-44.7h-6.5v44.7H1284.3z M1284.7,215.1v-7.4h-7.4v7.4H1284.7z"/>
		<path fill="#FFFFFF" d="M1342.8,273.9v-46.1h-6.5v5.3c-3.6-4.7-7.6-5.8-12.6-5.8c-4.6,0-8.6,1.5-10.9,3.9
			c-4.5,4.5-5.5,11.4-5.5,18.6c0,7.3,1,14.2,5.5,18.6c2.4,2.4,6.3,4,10.8,4c4.8,0,8.9-1.2,12.6-5.8v7c0,7.6-3.6,13.7-12.3,13.7
			c-5.2,0-7.5-1.5-10.7-4.5l-4.3,4.2c4.7,4.3,8.5,6,15.2,6C1335.9,293.1,1342.8,285,1342.8,273.9z M1336.3,249.8
			c0,8.4-1.4,16.7-11.1,16.7c-9.7,0-11.2-8.4-11.2-16.7c0-8.4,1.5-16.7,11.2-16.7C1334.9,233.1,1336.3,241.4,1336.3,249.8z"/>
		<path fill="#FFFFFF" d="M1374.9,272.5v-44.7h-6.6v44.7H1374.9z M1375.3,215.1v-7.4h-7.4v7.4H1375.3z"/>
		<path fill="#FFFFFF" d="M1417.6,272.5v-5.6h-3.5c-4.2,0-6.1-2.5-6.1-6.5v-27.3h9.6v-5h-9.6v-14h-6.5v14h-5.6v5h5.6v27.5
			c0,6.6,3.8,12,11.5,12H1417.6z"/>
		<path fill="#FFFFFF" d="M1470.9,272.5v-30.4c0-9.7-5.9-14.9-17.9-14.9c-7.3,0-11.8,1.5-15.8,6.6l4.5,4.1c2.6-3.7,5.5-5.1,11.3-5.1
			c8.2,0,11.5,3.3,11.5,9.8v4.3h-13.5c-10,0-15.5,5.1-15.5,12.9c0,3.6,1.2,6.9,3.4,9.1c2.8,2.9,6.5,4.1,12.6,4.1
			c6,0,9.3-1.2,12.9-4.8v4.3H1470.9z M1464.3,256.7c0,3.7-0.7,6.3-2.3,7.7c-2.8,2.7-6.2,3-10,3c-7.1,0-10.3-2.5-10.3-7.6
			c0-5.2,3.3-7.9,10-7.9h12.6V256.7z"/>
		<path fill="#FFFFFF" d="M1511.8,272.5v-5.6h-3.5c-4.5,0-6-2.2-6-6.5v-52.6h-6.6v52.8c0,6.8,3.5,11.9,11.4,11.9H1511.8z"/>
	</g>
	<g>
		<g>
			<path fill="#FFFFFF" d="M699,160.8l6.3-45.9l-6.3-1.8c-2.3,6.5-4.6,12.1-6.8,16.9c-2.2,4.8-5.2,8.8-8.9,11.9
				c-3.7,3.2-8.5,5.5-14.5,7c-6,1.5-13.8,2.2-23.5,2.2H638c-12.4,0-18.6-4.4-18.6-13.2V93.6c0-5.1,3.6-7.7,10.7-7.7h2.8
				c5,0,9.1,0.3,12.5,0.8c3.4,0.5,6.3,1.7,8.6,3.5c2.3,1.8,4.1,4.3,5.3,7.7c1.2,3.3,2.2,7.8,2.8,13.6h8.6V51.3h-8.6
				c-0.6,5.7-1.7,10.2-3.4,13.6c-1.6,3.3-3.7,5.8-6.3,7.4c-2.6,1.6-5.5,2.6-8.8,3c-3.3,0.4-6.9,0.6-10.8,0.6H625
				c-3.7,0-5.6-2.3-5.6-7V27.4c0-7,5.9-10.4,17.6-10.4h6.5c6,0,11.6,0.2,16.7,0.6c5.1,0.4,9.6,1.7,13.6,3.9
				c3.9,2.2,7.3,5.7,10.1,10.3c2.8,4.6,4.9,11.1,6.3,19.5l7.2-0.9L695.5,7h-122v7c15.3,0,23,6.5,23,19.5v105.3
				c0,10.1-7.1,15.1-21.3,15.1v7H699z"/>
			<path fill="#FFFFFF" d="M883.7,161.8V39.6c0-17,7.1-25.6,21.3-25.6V7h-55.7v7c15.8,0,23.7,8.5,23.7,25.6v83.2L782.2,7h-42.4v7
				c15.3,0,23,3.3,23,9.8v102.5c0,18.4-6.5,27.7-19.5,27.7v7H799v-7c-15.9,0-23.9-9.2-23.9-27.6V32.8l102.5,130.6L883.7,161.8z"/>
			<path fill="#FFFFFF" d="M1034.5,160.8v-7c-16.7,0-25.1-7.1-25.1-21.3v-107c0-5.3,3.8-7.9,11.5-7.9c22.8,0,35.1,12.4,36.9,37.1
				l6.3-0.9V5.4c-3.6,0.5-7,0.8-10.4,1.2c-3.4,0.3-6.7,0.5-10,0.5h-89.3c-2.9,0-6-0.2-9.2-0.5c-3.2-0.3-6.5-0.7-10.1-1.2l-6.3,49.4
				l7.2,1.9c3.1-13.3,7.8-23.2,14.2-29.8c6.3-6.6,14.6-9.9,24.8-9.9c7.6,0,11.4,2.9,11.4,8.6v107c0,14.2-8.3,21.3-24.8,21.3v7
				H1034.5z"/>
			<path fill="#FFFFFF" d="M1153.7,149.7c-6.5-3.7-11.8-8.8-16-15.3c-4.2-6.5-7.3-14.1-9.3-22.9c-2-8.8-3-18.3-3-28.5
				c0-9.3,0.8-18.1,2.4-26.6c1.6-8.5,4.3-16,8.1-22.5c3.8-6.5,8.7-11.7,14.8-15.5c6.1-3.9,13.6-5.8,22.4-5.8c9.6,0,17.7,2,24.5,6.1
				c6.7,4.1,12.2,9.5,16.4,16.2c4.2,6.7,7.2,14.4,9.2,23.1c1.9,8.6,2.9,17.6,2.9,26.9c0,9.9-1,19.1-2.9,27.7
				c-1.9,8.6-4.9,16-8.9,22.3c-4,6.3-9.1,11.3-15.3,14.9c-6.2,3.6-13.6,5.4-22.3,5.4C1167.9,155.3,1160.2,153.4,1153.7,149.7z
				 M1206.8,157.3c9.6-4.7,17.7-10.9,24.5-18.6c6.7-7.7,11.9-16.4,15.7-26.1c3.7-9.7,5.6-19.6,5.6-29.5c0-11.3-1.9-21.7-5.8-31.3
				c-3.9-9.6-9.2-17.9-16.1-24.9c-6.9-7-15.1-12.5-24.6-16.5c-9.5-3.9-19.9-5.9-31.2-5.9c-11.4,0-21.8,2.3-31.2,6.8
				c-9.4,4.6-17.4,10.6-24,18.1c-6.7,7.5-11.8,16.1-15.3,25.7c-3.6,9.7-5.3,19.6-5.3,29.8c0,11,1.9,21.3,5.7,31
				c3.8,9.7,9,18.1,15.8,25.3c6.7,7.2,14.7,12.8,24,16.9c9.3,4.1,19.4,6.1,30.4,6.1C1186.6,164.3,1197.2,162,1206.8,157.3z"/>
			<path fill="#FFFFFF" d="M1428.6,107.9c0,4.8-0.5,9.9-1.5,15.3c-1,5.4-3.1,10.4-6.1,14.9c-3.1,4.5-7.6,8.2-13.6,11.3
				c-6,3-13.9,4.5-23.8,4.5c-10.7,0-18.9-1.4-24.7-4.2c-5.8-2.8-10.1-6.4-12.9-10.8c-2.8-4.4-4.4-9.4-5-14.9
				c-0.5-5.5-0.8-10.9-0.8-16.2V31c0-11.3,7.3-17,22-17V7h-67v7c14.7,0,22,5.7,22,17v83c0,7.3,1.2,14,3.6,20.2
				c2.4,6.2,6,11.5,10.7,16c4.7,4.5,10.5,8,17.4,10.5c6.9,2.5,14.9,3.7,24,3.7c14.4,0,25.9-1.4,34.6-4.3c8.7-2.9,15.4-6.9,20.1-12.1
				c4.7-5.2,7.8-11.4,9.4-18.7c1.5-7.3,2.3-15.3,2.3-24.2V34.4c0-13.6,6.4-20.4,19.3-20.4V7h-53.8v7c15.9,0,23.9,6.8,23.9,20.4
				V107.9z"/>
			<path fill="#FFFFFF" d="M1546,76.9c-3.1,0-4.9-1.2-5.6-3.5V29.1c0-8.7,2.9-13,8.8-13h11.1c3.9,0,7.8,0.5,11.8,1.4
				c4,0.9,7.7,2.5,11,4.8c3.3,2.2,6,5.3,8.1,9.2c2.1,3.9,3.1,8.7,3.1,14.6c0,7-1,12.4-3.1,16.5c-2.1,4-4.8,7.1-8.2,9.3
				c-3.4,2.2-7.3,3.6-11.6,4.2c-4.3,0.6-8.8,0.9-13.5,0.9H1546z M1636,138.8c-1.7,7-4.4,10.4-8.1,10.4c-3.1,0-5.7-1.4-7.9-4.1
				c-2.2-2.7-4.1-6-5.7-9.9c-1.6-3.9-3.1-8-4.3-12.3c-1.2-4.3-2.3-8-3.3-11.1c-1.7-4.9-5-10.1-9.9-15.4c-4.9-5.3-11-9.8-18.4-13.3
				v-0.7c6-1.2,11.5-2.9,16.5-5.1c4.9-2.2,9.2-4.8,12.9-7.9c3.6-3.1,6.5-6.7,8.5-10.9c2-4.2,3-9,3-14.4s-1.2-10.4-3.7-15.1
				c-2.5-4.6-5.8-8.7-10.1-12.1c-4.3-3.4-9.3-6.1-15.2-8c-5.9-1.9-12.1-2.9-18.8-2.9c-5.4,0-10,0-13.8,0.1
				c-3.8,0.1-7.3,0.2-10.7,0.4c-3.3,0.2-6.8,0.3-10.3,0.4c-3.6,0.1-7.9,0.1-13,0.1h-29v7.2c14.7,0,22,5,22,14.9v109.7
				c0,10.1-6.8,15.1-20.4,15.1v7h65.4v-7c-14.2,0-21.3-5-21.3-15.1V88.5c0.6-1.7,3-2.6,7.2-2.6h7c5.6,0,10.2,1.9,13.9,5.7
				c3.7,3.8,6.8,8.5,9.4,14.2c2.6,5.6,4.8,11.8,6.6,18.6c1.9,6.7,3.7,13,5.6,18.9c2.2,7.1,5.5,12.3,10,15.4
				c4.5,3.2,11.4,4.8,20.9,4.8c3.2,0,6.1-0.9,8.7-2.6c2.6-1.7,4.7-3.7,6.5-6c1.8-2.3,3.1-4.8,3.9-7.4c0.8-2.6,1.3-4.9,1.3-6.7
				L1636,138.8z"/>
			<path fill="#FFFFFF" d="M1815.8,160.8v-7c-4-1.1-7.2-1.9-9.4-2.4c-2.3-0.5-3.5-1-3.8-1.3c-1.2-0.8-2.9-2.8-5.1-6l-55-137.8
				l-7-2.8l-55.7,132.5c-2.2,5.3-4.8,9.3-8,12c-3.2,2.8-7,4.3-11.5,4.6v8.1h52.2v-8.1c-13.6,0-20.4-3.5-20.4-10.6
				c0-2.6,0.3-4.6,0.9-6l7.9-24c1.2-4,4.8-6,10.7-6h34.6c7.7,0,12.4,2,14.1,6l10.4,28.5c0.8,1.7,1.2,3.1,1.3,4.3
				c0.1,1.2,0.2,2,0.4,2.7c0,0.9-0.7,1.7-2,2.4c-1.3,0.7-2.9,1.3-4.9,1.7c-1.9,0.5-4.1,0.8-6.5,1.2c-2.4,0.3-4.7,0.6-6.8,0.9v7
				H1815.8z M1751.3,85.9c1.7,4.3,2.6,6.9,2.6,7.7c0,1.9-2.3,2.8-7,2.8h-29.2c-5.7,0-8.6-1.2-8.6-3.5c0-1.5,0.8-4.2,2.6-7.9
				l20.4-48.7L1751.3,85.9z"/>
			<path fill="#FFFFFF" d="M1974.3,163.4v-47.8c0-11.8,6.9-17.6,20.7-17.6v-7h-66.4v7c15.8,0,23.7,8,23.7,24.1c0,5.9-1,10.9-2.9,15
				c-1.9,4.1-4.6,7.5-8,10.1c-3.4,2.6-7.3,4.6-11.7,5.8c-4.4,1.2-9.2,1.8-14.3,1.8c-8.7,0-16.2-1.9-22.5-5.8
				c-6.3-3.9-11.7-9-16-15.5c-4.3-6.5-7.5-14.1-9.6-22.7c-2.1-8.7-3.1-17.9-3.1-27.6c0-9,0.9-17.7,2.7-26.2c1.8-8.5,4.7-16,8.8-22.6
				c4.1-6.6,9.4-11.8,15.9-15.8c6.5-3.9,14.5-5.9,23.9-5.9c13.3,0,24.3,4.2,32.9,12.6c8.7,8.4,14.7,19.4,18.1,33.1h7.9
				c0-22.4-2.6-40.1-7.9-52.9c-5.6,0.9-11.1,4.2-16.7,9.7c-5.9-3.1-11.9-5.8-18-8.1c-6.1-2.3-12.5-3.5-19.1-3.5
				c-11,0-21.1,2.3-30.3,7c-9.2,4.6-17.1,10.8-23.8,18.6c-6.7,7.7-11.8,16.6-15.4,26.6c-3.6,10-5.5,20.3-5.5,31
				c0,10.8,1.8,21,5.3,30.4c3.6,9.4,8.5,17.7,15,24.7c6.4,7,14,12.6,22.8,16.6c8.8,4,18.6,6,29.2,6c7.7,0,15.3-1.2,22.6-3.6
				c7.3-2.4,13.7-5.6,18.9-9.6l16.7,12.3H1974.3z"/>
			<path fill="#FFFFFF" d="M2154.8,160.8l6.3-45.9l-6.3-1.8c-2.3,6.5-4.6,12.1-6.8,16.9c-2.2,4.8-5.2,8.8-8.9,11.9
				c-3.7,3.2-8.5,5.5-14.5,7c-5.9,1.5-13.8,2.2-23.5,2.2h-7.2c-12.4,0-18.6-4.4-18.6-13.2V93.6c0-5.1,3.6-7.7,10.7-7.7h2.8
				c4.9,0,9.1,0.3,12.5,0.8c3.4,0.5,6.3,1.7,8.6,3.5c2.3,1.8,4.1,4.3,5.3,7.7c1.2,3.3,2.2,7.8,2.8,13.6h8.6V51.3h-8.6
				c-0.6,5.7-1.7,10.2-3.4,13.6c-1.6,3.3-3.7,5.8-6.3,7.4c-2.6,1.6-5.5,2.6-8.8,3c-3.3,0.4-6.9,0.6-10.8,0.6h-7.9
				c-3.7,0-5.6-2.3-5.6-7V27.4c0-7,5.9-10.4,17.6-10.4h6.5c6,0,11.6,0.2,16.7,0.6c5.1,0.4,9.6,1.7,13.6,3.9
				c3.9,2.2,7.3,5.7,10.1,10.3c2.8,4.6,4.9,11.1,6.3,19.5l7.2-0.9L2151.3,7h-122v7c15.3,0,23,6.5,23,19.5v105.3
				c0,10.1-7.1,15.1-21.3,15.1v7H2154.8z"/>
		</g>
		<g>
			<path fill="#FFFFFF" d="M0,82c0,47.5,36.8,82,87.4,82c7,0,29.6-1.3,45.1-16.2c0,4.9,0,13.1,0,13.1h34.4V66.5H92.1v33.8h30.4
				c-3.6,12.3-17.4,24.8-36.1,24.8c-27.4,0-37.2-22.2-37.2-43c0-20.8,9.8-43,37.2-43c13.8,0,25,4.9,29.3,12.7l0.7,1.4h49.8l-0.7-3
				C157.2,13.1,118.2,0,87.4,0C36.8,0,0,34.5,0,82"/>
			<path fill="#FFFFFF" d="M244.4,66.7h-28.2V41.4h26.7c4.6,0,15.1,1.2,15.1,12C258.1,62.2,253.5,66.7,244.4,66.7 M520,7
				c0,0-24.6,50.3-28.2,57.7C488.1,57.2,463.5,7,463.5,7H314.3v133.3c-11.7-20.1-27.8-47.9-29.4-50.6c13.8-6.6,22.3-21,22.3-38.4
				c0-14.6-6-26.4-17.3-34.2C280.5,10.5,267.2,7,252.6,7h-79.4v153.9h42.9v-59.8h24.4c1.2,2.5,29.9,59.8,29.9,59.8h178.8v-35.4
				h-88.7v-23.3h64v-33h-64V42.4h73.9c15.8,27.3,35.1,60.5,35.5,61.2v57.3h43.6v-57.3c0.6-1.1,56.1-96.6,56.1-96.6H520z"/>
		</g>
	</g>
</g>
</svg>
