<?xml version="1.0" encoding="utf-8"?>
<!-- Generator: Adobe Illustrator 17.1.0, SVG Export Plug-In . SVG Version: 6.00 Build 0)  -->
<!DOCTYPE svg PUBLIC "-//W3C//DTD SVG 1.1//EN" "http://www.w3.org/Graphics/SVG/1.1/DTD/svg11.dtd">
<svg version="1.1" id="Layer_1" xmlns="http://www.w3.org/2000/svg" xmlns:xlink="http://www.w3.org/1999/xlink" x="0px" y="0px"
	 viewBox="0 0 172 172" enable-background="new 0 0 172 172" xml:space="preserve">
<g>
	<g>
		<path fill="#FFFFFF" d="M86,172c-47.4,0-86-38.6-86-86C0,38.6,38.6,0,86,0c47.4,0,86,38.6,86,86C172,133.4,133.4,172,86,172z
			 M86,2C39.7,2,2,39.7,2,86c0,46.3,37.7,84,84,84c46.3,0,84-37.7,84-84C170,39.7,132.3,2,86,2z"/>
	</g>
	<g opacity="0.2">
		<path fill="#FFFFFF" d="M68.6,115.9c0,5.5-8.2,10-18.3,10s-18.3-4.5-18.3-10H68.6z"/>
	</g>
	<g>
		<path fill="#FFFFFF" d="M50.3,126.9c-10.8,0-19.3-4.8-19.3-11c0-0.6,0.4-1,1-1h36.6c0.6,0,1,0.4,1,1
			C69.6,122.1,61.1,126.9,50.3,126.9z M33.1,116.9c1,4.4,8.5,8,17.2,8s16.2-3.6,17.2-8H33.1z"/>
	</g>
	<g>
		<path fill="#FFFFFF" d="M86,134.9c-0.6,0-1-0.4-1-1v-101c0-0.6,0.4-1,1-1s1,0.4,1,1v101C87,134.5,86.6,134.9,86,134.9z"/>
	</g>
	<g>
		<rect x="54.3" y="140" fill="#FFFFFF" width="63.5" height="2"/>
	</g>
	<g>
		<path fill="#FFFFFF" d="M68.6,116.9c-0.4,0-0.8-0.3-1-0.7L50.3,51L33,116.2c-0.1,0.5-0.7,0.8-1.2,0.7c-0.5-0.1-0.9-0.7-0.7-1.2
			l18.3-68.8c0.1-0.4,0.5-0.7,1-0.7s0.9,0.3,1,0.7l18.3,68.8c0.1,0.5-0.2,1.1-0.7,1.2C68.8,116.9,68.7,116.9,68.6,116.9z"/>
	</g>
	<g>
		<path fill="#FFFFFF" d="M86,48.1H50.3c-0.6,0-1-0.4-1-1s0.4-1,1-1H86c0.6,0,1,0.4,1,1S86.6,48.1,86,48.1z"/>
	</g>
	<g>
		<path fill="#FFFFFF" d="M103.4,116.9c-0.1,0-0.2,0-0.3,0c-0.5-0.1-0.9-0.7-0.7-1.2l18.3-68.8c0.1-0.4,0.5-0.7,1-0.7s0.8,0.3,1,0.7
			l18.3,68.8c0.1,0.5-0.2,1.1-0.7,1.2c-0.5,0.1-1.1-0.2-1.2-0.7L121.7,51l-17.3,65.2C104.3,116.6,103.9,116.9,103.4,116.9z"/>
	</g>
	<g>
		<path fill="#FFFFFF" d="M121.7,48.1H86c-0.6,0-1-0.4-1-1s0.4-1,1-1h35.7c0.6,0,1,0.4,1,1S122.3,48.1,121.7,48.1z"/>
	</g>
	<g opacity="0.2">
		<path fill="#FFFFFF" d="M103.4,115.9c0,5.5,8.2,10,18.3,10s18.3-4.5,18.3-10H103.4z"/>
	</g>
	<g>
		<path fill="#FFFFFF" d="M121.7,126.9c-10.8,0-19.3-4.8-19.3-11c0-0.6,0.4-1,1-1H140c0.6,0,1,0.4,1,1
			C141,122.1,132.5,126.9,121.7,126.9z M104.5,116.9c1,4.4,8.5,8,17.2,8s16.2-3.6,17.2-8H104.5z"/>
	</g>
	<g>
		<path fill="#FFFFFF" d="M103.4,116.9c-0.1,0-0.2,0-0.3,0c-0.5-0.1-0.9-0.7-0.7-1.2l18.3-68.8c0.1-0.4,0.5-0.7,1-0.7s0.8,0.3,1,0.7
			l18.3,68.8c0.1,0.5-0.2,1.1-0.7,1.2c-0.5,0.1-1.1-0.2-1.2-0.7L121.7,51l-17.3,65.2C104.3,116.6,103.9,116.9,103.4,116.9z"/>
	</g>
	<g>
		<path fill="#FFFFFF" d="M121.7,48.1H86c-0.6,0-1-0.4-1-1s0.4-1,1-1h35.7c0.6,0,1,0.4,1,1S122.3,48.1,121.7,48.1z"/>
	</g>
	<g>
		<path fill="#FFFFFF" d="M118,141.9c-0.6,0-1-0.4-1-1c0-2.1-11.7-6-30.9-6c-19.2,0-30.9,3.9-30.9,6c0,0.6-0.4,1-1,1s-1-0.4-1-1
			c0-5,16.7-8,32.9-8c16.2,0,32.9,3,32.9,8C119,141.5,118.6,141.9,118,141.9z"/>
	</g>
</g>
</svg>
