<?xml version="1.0" encoding="utf-8"?>
<!-- Generator: Adobe Illustrator 17.1.0, SVG Export Plug-In . SVG Version: 6.00 Build 0)  -->
<!DOCTYPE svg PUBLIC "-//W3C//DTD SVG 1.1//EN" "http://www.w3.org/Graphics/SVG/1.1/DTD/svg11.dtd">
<svg version="1.1" id="Foreground" xmlns="http://www.w3.org/2000/svg" xmlns:xlink="http://www.w3.org/1999/xlink" x="0px" y="0px"
	 viewBox="0 0 145.3 80" enable-background="new 0 0 145.3 80" xml:space="preserve">
<g>
	<g>
		<path fill-rule="evenodd" clip-rule="evenodd" fill="#FFFFFF" d="M4.8,24.9c-1.7,0-2.6,0.6-2.6,1.8c0,0.6,0.2,1.1,0.6,1.3
			c0.4,0.3,1.3,0.6,2.7,1c1.4,0.4,2.4,0.8,2.9,1.4c0.6,0.5,0.9,1.4,0.9,2.5c0,1.5-0.4,2.6-1.3,3.3c-0.8,0.7-2,1.1-3.4,1.1
			c-1.1,0-2.4-0.1-3.8-0.4l-0.7-0.1l0.2-1.8c1.8,0.2,3.2,0.4,4.2,0.4c1.7,0,2.5-0.7,2.5-2.2c0-0.6-0.2-1-0.6-1.3
			c-0.4-0.3-1.2-0.6-2.6-0.9c-1.3-0.3-2.3-0.8-3-1.4c-0.6-0.6-1-1.5-1-2.8c0-1.3,0.4-2.2,1.2-2.8c0.8-0.6,2-1,3.4-1
			c1,0,2.3,0.1,3.7,0.4L9,23.4l-0.2,1.8C6.9,25,5.6,24.9,4.8,24.9z"/>
		<polygon fill-rule="evenodd" clip-rule="evenodd" fill="#FFFFFF" points="20,37 20,31 14,31 14,37 11.8,37 11.8,23.2 14,23.2 
			14,29.1 20,29.1 20,23.2 22.3,23.2 22.3,37 		"/>
		<path fill-rule="evenodd" clip-rule="evenodd" fill="#FFFFFF" d="M24.3,37l3.4-13.9h4.5L35.6,37h-2.3l-0.7-3h-5.3l-0.8,3H24.3z
			 M29.4,25l-1.7,7h4.4l-1.7-7H29.4z"/>
		<path fill-rule="evenodd" clip-rule="evenodd" fill="#FFFFFF" d="M39.9,32.1V37h-2.2V23.2h5.3c3.1,0,4.7,1.5,4.7,4.4
			c0,2-0.8,3.3-2.3,4l2.3,5.5h-2.5l-2-4.9H39.9z M45.3,27.6c0-1.7-0.8-2.5-2.4-2.5h-3v5h3.1c0.8,0,1.4-0.2,1.8-0.7
			C45.1,29,45.3,28.4,45.3,27.6z"/>
		<polygon fill-rule="evenodd" clip-rule="evenodd" fill="#FFFFFF" points="50.1,37 50.1,23.2 58.9,23.2 58.9,25.1 52.4,25.1 
			52.4,29.1 57.7,29.1 57.7,31 52.4,31 52.4,35.1 58.9,35.1 58.9,37 		"/>
		<rect x="61.5" y="23" fill-rule="evenodd" clip-rule="evenodd" fill="#FFFFFF" width="1.3" height="14.1"/>
		<path fill-rule="evenodd" clip-rule="evenodd" fill="#FFFFFF" d="M69.1,27.8c-1.6,0-2.4,0.6-2.4,1.7c0,0.5,0.2,0.9,0.5,1.1
			c0.4,0.2,1.1,0.4,2.4,0.6c1.2,0.2,2.1,0.5,2.6,0.9c0.5,0.4,0.8,1.1,0.8,2.1c0,1-0.3,1.8-1,2.3c-0.7,0.5-1.6,0.7-2.9,0.7
			c-0.7,0-1.7-0.1-2.9-0.3l-0.6-0.1l0.1-1.1c1.5,0.2,2.7,0.3,3.5,0.3c0.8,0,1.4-0.1,1.9-0.4c0.5-0.3,0.7-0.8,0.7-1.4
			c0-0.7-0.2-1.1-0.6-1.3c-0.4-0.2-1.2-0.4-2.4-0.6c-1.2-0.2-2.1-0.5-2.6-0.8c-0.5-0.4-0.7-1-0.7-2c0-1,0.3-1.7,1-2.1
			c0.7-0.4,1.5-0.7,2.6-0.7c0.8,0,1.8,0.1,3,0.3l0.5,0.1l0,1.1C71.2,27.9,70,27.8,69.1,27.8z"/>
		<path fill-rule="evenodd" clip-rule="evenodd" fill="#FFFFFF" d="M80.6,28h-3.4v5c0,1.3,0.1,2.2,0.3,2.6c0.2,0.4,0.6,0.6,1.3,0.6
			l1.9-0.1l0.1,1c-0.9,0.1-1.6,0.2-2,0.2c-1,0-1.7-0.2-2.1-0.7C76.2,36,76,35,76,33.6V28h-1.5v-1.1H76v-3.2h1.2v3.2h3.4V28z"/>
		<path fill-rule="evenodd" clip-rule="evenodd" fill="#FFFFFF" d="M82.5,37V26.9h1.2v1.5c0.5-0.4,1.1-0.7,1.8-1
			c0.7-0.3,1.4-0.5,2-0.6v1.2c-0.6,0.1-1.2,0.3-1.8,0.6c-0.6,0.2-1.1,0.5-1.5,0.6l-0.5,0.3V37H82.5z"/>
		<path fill-rule="evenodd" clip-rule="evenodd" fill="#FFFFFF" d="M89.3,37V26.9h1.2V37H89.3z M89.3,24.4v-1.5h1.2v1.5H89.3z"/>
		<path fill-rule="evenodd" clip-rule="evenodd" fill="#FFFFFF" d="M100.6,29.9v5.4c0.1,0.5,0.5,0.8,1.3,0.9l-0.1,1
			c-1,0-1.8-0.3-2.3-0.8c-1.3,0.6-2.5,0.8-3.8,0.8c-0.9,0-1.6-0.3-2.1-0.8c-0.5-0.5-0.7-1.3-0.7-2.2c0-1,0.2-1.7,0.7-2.1
			c0.5-0.5,1.2-0.8,2.3-0.9l3.4-0.3v-1c0-0.8-0.2-1.3-0.5-1.6c-0.3-0.3-0.8-0.5-1.3-0.5c-0.9,0-2,0.1-3.4,0.2l-0.6,0.1l-0.1-1
			c1.5-0.3,2.8-0.4,3.9-0.4c1.1,0,1.9,0.3,2.4,0.8C100.3,28,100.6,28.8,100.6,29.9z M94.2,34.2c0,1.4,0.6,2,1.7,2
			c0.5,0,1-0.1,1.6-0.2c0.6-0.1,1-0.2,1.4-0.4l0.5-0.2v-3.7l-3.3,0.3c-0.7,0.1-1.1,0.2-1.4,0.6C94.3,33.1,94.2,33.5,94.2,34.2z"/>
	</g>
	<path fill="#FFFFFF" d="M109.2,50.7c-2.9-1.5-4.9-4.4-5-7.8l0-0.4l-29.5,0.1c-0.3,0-5.5-0.2-4.9,4.3c0.7,4.9,14.5,14.6,15.3,15.1
		c2.1,1,4.7,1,6.7-0.2C94.7,59.9,105.9,52.7,109.2,50.7z M113,34.6c-4.4,0.2-7.8,3.8-7.7,8.2c0.2,4.4,3.8,7.8,8.2,7.7
		c4.4-0.2,7.8-3.8,7.7-8.2S117.4,34.4,113,34.6z M117.4,34.3l1.5-2.8l-5,1.9C115.1,33.5,116.3,33.8,117.4,34.3z M117.9,50.4
		l14.6,25.5c0.1,0.2,2.6,4.9,6.2,2c3.9-3,5.4-19.8,5.5-20.8c-0.2-2.3-1.5-4.6-3.5-5.7c-3.2-1.7-15.1-8-18.1-9.6l0,0.3
		C122.5,45.7,120.7,48.8,117.9,50.4z M107,10.8l24-8.9c-0.3-0.2-0.6-0.4-1-0.5c-4.6-1.7-19.7,5.9-20.5,6.4
		C108.3,8.6,107.5,9.6,107,10.8z M106.5,15.1l25.7-9.5c0.2-0.9,0.2-1.9-0.4-2.8l-25.3,9.4c-0.1,0.5-0.1,1-0.1,1.6L106.5,15.1z
		 M106.8,19.2l23.1-8.5l1.6-2.9c0,0,0.2-0.3,0.3-0.7l-25.1,9.3l-0.1-0.2L106.8,19.2z M107.1,23.2l20.1-7.4l1.9-3.5l-22.1,8.2
		L107.1,23.2z M107.4,27l17.2-6.4l1.7-3.3l-19.1,7.1L107.4,27z M107.7,30.7l14.5-5.3l1.6-3.1l-16.3,6L107.7,30.7z M121.3,26.9
		l-13.5,5l0.2,2.3l11.8-4.3L121.3,26.9z M123.1,26.3l-4.6,8.7c1.9,1.3,3.2,3.2,3.7,5.5c0-0.1,15.3,8,18.9,9.9c2.4,1.3,4.1,4,4.2,6.7
		c0,0-0.4,4.6-1.3,9.5c-0.9,4.8-2.3,10.4-4.7,12.2c-3.3,2.5-6.4,0.6-8-2.4l-14.6-25.5c-1,0.4-2.1,0.7-3.2,0.7
		c-1.1,0-2.1-0.1-3.1-0.4c-1.7,1.1-14.9,9.5-18.2,11.6c-2.3,1.4-5.5,1.5-7.9,0.3c0,0-3.8-2.6-7.6-5.8C73.1,54,69,50,68.6,47
		c-0.6-4.1,2.7-5.8,6.1-5.7l29.6-0.1c0.3-2,1.2-3.8,2.6-5.2c-0.1-2-1.4-18.2-1.6-22.1c-0.2-2.7,1.3-5.6,3.5-7.1c0,0,4.1-2.1,8.7-4
		c4.6-1.8,10.1-3.5,12.9-2.5c3.9,1.4,3.9,5.1,2.2,8L123.1,26.3L123.1,26.3z M113.3,37.7c2.7-0.1,4.9,2,5,4.7c0.1,2.7-2,4.9-4.7,5
		c-2.7,0.1-4.9-2-5-4.7C108.5,40.1,110.6,37.8,113.3,37.7z M113.3,38.9c-2,0.1-3.6,1.8-3.5,3.8c0.1,2,1.8,3.6,3.8,3.5
		c2-0.1,3.6-1.8,3.5-3.8C117,40.4,115.3,38.8,113.3,38.9z"/>
</g>
</svg>
