<svg xmlns="http://www.w3.org/2000/svg" viewBox="0 0 200 200" enable-background="new 0 0 200 200"><g fill="#fff"><path d="M57 112.1c-3.1-5-4.2-10.2-3.1-15.7-3.8-.4-7.5-.6-11.1-1.2-16.9-3-29.3-15.9-31-32.9-1.2-12 3.2-22.3 11.3-31 8.8-9.4 20-14.2 32.5-15.6 9.9-1 19.9-.9 29.9-1 13-.2 26.1 0 39.1 0h3.4c-1 .6-1.4 1-2 1.3-7 3.8-14.1 7.6-21 11.6-2.8 1.6-5.6 2.2-9.4 1.6 1.1 1.3 1.7 2.1 2.4 3 10.6 13.5 11 32 .5 44.7-2.8 3.4-6.3 6.2-9.6 9.2-1.7 1.6-3.7 3-5.3 4.7-3.5 3.5-3.4 7.4.4 10.5 5.5 4.6 11.3 8.8 16.8 13.5 9.7 8.4 14.5 19 12.4 32-1.6 10.2-7.1 18.2-15 24.6-9.9 7.9-21.4 11.7-33.8 13.2-13.1 1.6-26.1 1.1-38.8-3.2-6.7-2.3-12.7-5.7-17.5-11-10.2-11.2-10.2-27 0-39 6.8-8 15.8-12.6 25.8-15.2 6.8-1.7 13.8-2.5 20.7-3.7.7-.2 1.5-.3 2.4-.4zm4 57.4c7.6 0 13.5-.8 19.2-3.2 12.8-5.3 15.9-20.4 5.5-29.5-2.7-2.4-5.7-4.4-8.4-6.9-4.8-4.5-10.3-6-16.8-5.1-7.6 1.1-15.3 1.8-22.3 5.4-4.2 2.1-7.7 4.9-9.7 9.3-3.7 8.2-.5 17.9 7.8 23.3 8 5.2 16.9 6.5 24.7 6.7zm18.6-107c-.3-7.4-2.8-16.1-8.2-23.8-1.9-2.7-4.4-5.2-7.2-7.1-9.9-6.5-23.4-1-25.4 10.4-2.1 12.4 1.1 23.7 8.7 33.5 4.5 5.8 10.5 8.7 17.9 7.3 9.9-1.8 14.3-7.6 14.2-20.3zM199.5 49.3v15.2h-34.5v35.8h-15.1v-35.8h-35.5v-15.1h35.3v-34.6h15.1v34.5h34.7z"/></g></svg>