<svg xmlns="http://www.w3.org/2000/svg" viewBox="0 0 200 200" enable-background="new 0 0 200 200"><path fill="#fff" d="M1 162.8c21.8 1.7 41.3-3.4 59.1-16.7-18.4-2.1-31.1-11.1-37.7-28.5 6 .1 11.5.7 17-.9-11.7-3.6-20.8-10.3-26.6-21.3-3.1-6-4.8-12.2-4.6-19.3 5.6 2.8 11.1 4.5 17.2 4.7-8.2-6.5-13.9-14.5-16-24.8-2-10-.8-19.7 4.3-29.1 3.3 3.2 6.4 6.3 9.5 9.3 18.1 18 40 28.4 65.1 32 2.8.4 5.7.6 8.5.9.2 0 .5 0 1-.1l-.2-2.1c-1.2-10.9.2-21.3 7-30.3 9.3-12.5 21.6-18.5 37.3-17.2 9 .7 16.8 4.2 23.4 10.2 2 1.9 4 2.4 6.5 1.5l17.2-6.5c1.5-.6 2.9-1.3 4.9-2.1-3.2 9.1-8.8 15.8-16.4 21.6 4.1.2 7.5-1.1 10.9-2 3.4-.9 6.7-2.1 10.1-3.2.1.1.2.3.4.4-1.3 1.8-2.5 3.7-4 5.3-4.6 4.7-9.5 9.2-14.2 13.8-.6.6-1.2 1.7-1.2 2.6-.6 6.7-.7 13.5-1.6 20.1-2.1 15.4-7.2 29.9-15.1 43.2-17.6 29.6-43.1 48.3-77.3 54.7-5.9 1.1-12 1.4-18 1.6-8.8.3-17.6.2-26.3-1.4-13.6-2.6-26.2-7.7-38.2-14.6-.5-.3-1-.6-1.4-1-.2 0-.2-.1-.6-.8z"/></svg>