<svg xmlns="http://www.w3.org/2000/svg" viewBox="0 0 254.8 181.9" enable-background="new 0 0 254.8 181.9"><g fill="#1C1C1B"><path d="M0 47.8l39.8 94.6h19.8l39.8-94.6h-27.8l-21.7 58.4-22.1-58.4zM111 47.8h24.9v94.5h-24.9zM138.3 14.7c0 8.1-6.6 14.6-14.7 14.6s-14.7-6.6-14.7-14.6c.1-8.1 6.7-14.7 14.8-14.7 8 0 14.6 6.6 14.6 14.7M179 57v-9.2h-23v134.1h24.9v-47.1c7 7.2 15.5 10.6 26.5 10.6 26.6 0 47.4-22.1 47.4-50.2 0-13.7-4.7-26.1-13.1-34.9-9.4-10.6-20-15.3-34.3-15.3-11.8-.2-21.3 3.9-28.4 12m8.7 57.3c-5.4-4.8-8.1-11.3-8.1-19.2 0-14.5 11.2-25.9 25.5-25.9 13.7 0 24.8 11.5 24.8 25.7 0 14.8-11 26-25.7 26-5.6 0-12.1-2.6-16.5-6.6"/></g></svg>