<?xml version="1.0" encoding="utf-8"?>
<!-- Generator: Adobe Illustrator 17.1.0, SVG Export Plug-In . SVG Version: 6.00 Build 0)  -->
<!DOCTYPE svg PUBLIC "-//W3C//DTD SVG 1.1//EN" "http://www.w3.org/Graphics/SVG/1.1/DTD/svg11.dtd">
<svg version="1.1" id="Layer_1" xmlns="http://www.w3.org/2000/svg" xmlns:xlink="http://www.w3.org/1999/xlink" x="0px" y="0px"
	 viewBox="0 0 19.2 24" enable-background="new 0 0 19.2 24" xml:space="preserve">
<g>
	<g>
		<path fill="#0A304C" d="M9.6,24c-1.5,0-3-0.3-4.4-0.9c-3.7-1.6-5.2-7-5.2-9.6V6c-0.1-3.2,2.6-5.9,6-6l7.2,0c3.4,0.1,6.1,2.9,6,6.1
			v7.4c0,2.6-1.6,8-5.2,9.6C12.6,23.7,11.1,24,9.6,24L9.6,24z M13.2,2.1L6,2.2C3.9,2.2,2.1,4,2.2,6v7.5c0,2.4,1.6,6.6,3.9,7.7
			c2.2,0.9,4.8,0.9,7.1,0c2.3-1,3.9-5.2,3.9-7.7V6C17.1,4,15.3,2.2,13.2,2.1L13.2,2.1z"/>
	</g>
	<g>
		<path fill="#0A304C" d="M9.5,7.7c-0.6,0-1.1-0.5-1.1-1.1V1.1C8.4,0.5,8.9,0,9.5,0c0.6,0,1.1,0.5,1.1,1.1v5.6
			C10.5,7.3,10.1,7.7,9.5,7.7L9.5,7.7z"/>
	</g>
</g>
</svg>
