<?xml version="1.0" encoding="utf-8"?>
<!-- Generator: Adobe Illustrator 17.1.0, SVG Export Plug-In . SVG Version: 6.00 Build 0)  -->
<!DOCTYPE svg PUBLIC "-//W3C//DTD SVG 1.1//EN" "http://www.w3.org/Graphics/SVG/1.1/DTD/svg11.dtd">
<svg version="1.1" id="Layer_1" xmlns="http://www.w3.org/2000/svg" xmlns:xlink="http://www.w3.org/1999/xlink" x="0px" y="0px"
	 viewBox="0 0 19 19" enable-background="new 0 0 19 19" xml:space="preserve">
<path fill-rule="evenodd" clip-rule="evenodd" fill="none" d="M558-1290l2-2l7.5,7.4l7.2-7.2l2.1,2.1l-7.2,7.2l7.4,7.5l-2,2
	l-7.5-7.4l-7.5,7.4l-2-2l7.4-7.5L558-1290z"/>
<path fill-rule="evenodd" clip-rule="evenodd" fill="none" d="M558-1290l2-2l7.5,7.4l7.2-7.2l2.1,2.1l-7.2,7.2l7.4,7.5l-2,2
	l-7.5-7.4l-7.5,7.4l-2-2l7.4-7.5L558-1290z"/>
<path fill-rule="evenodd" clip-rule="evenodd" fill="#FFFFFF" d="M0,2l2-2l7.5,7.4l7.2-7.2l2.1,2.1l-7.2,7.2L19,17l-2,2l-7.5-7.4
	L2,19l-2-2l7.4-7.5L0,2z"/>
</svg>
