<?xml version="1.0" encoding="utf-8"?>
<!-- Generator: Adobe Illustrator 17.1.0, SVG Export Plug-In . SVG Version: 6.00 Build 0)  -->
<!DOCTYPE svg PUBLIC "-//W3C//DTD SVG 1.1//EN" "http://www.w3.org/Graphics/SVG/1.1/DTD/svg11.dtd">
<svg version="1.1" id="Layer_3" xmlns="http://www.w3.org/2000/svg" xmlns:xlink="http://www.w3.org/1999/xlink" x="0px" y="0px"
	 viewBox="0 0 600 600" enable-background="new 0 0 600 600" xml:space="preserve">
<g>
	<g>
		<path fill="#009FE2" d="M106.5,393c-51,0-93-42-93-93s42-93,93-93s93,42,93,93S157.5,393,106.5,393L106.5,393z M106.5,255
			c-24,0-45,21-45,45s21,45,45,45s45-21,45-45S133.5,255,106.5,255L106.5,255z"/>
	</g>
	<g>
		<g>
			<path fill="#009FE2" d="M490.5,186c-51,0-93-42-93-93s42-93,93-93c51,0,93,42,93,93S544.5,186,490.5,186L490.5,186z M490.5,48
				c-24,0-45,21-45,45s21,45,45,45c24,0,45-21,45-45S517.5,48,490.5,48L490.5,48z"/>
		</g>
		<g>
			<path fill="#009FE2" d="M490.5,600c-51,0-93-42-93-93s42-93,93-93s93,42,93,93S544.5,600,490.5,600L490.5,600z M490.5,462
				c-24,0-45,21-45,45c0,24,21,45,45,45c24,0,45-21,45-45C535.5,483,517.5,462,490.5,462L490.5,462z"/>
		</g>
	</g>
	<g>
		<g>
			<path fill="#009FE2" d="M421.5,495c-3,0-9,0-12-3l-246-141c-12-6-15-21-9-33c6-12,21-15,33-9l246,141c12,6,15,21,9,33
				C436.5,489,427.5,495,421.5,495L421.5,495z"/>
		</g>
		<g>
			<path fill="#009FE2" d="M172.5,297c-9,0-15-3-21-12c-6-12-3-27,9-33l246-141c12-6,27-3,33,9c9,9,3,24-6,30l-249,144
				C181.5,297,178.5,297,172.5,297L172.5,297z"/>
		</g>
	</g>
</g>
</svg>
