<?xml version="1.0" encoding="utf-8"?>
<!-- Generator: Adobe Illustrator 17.1.0, SVG Export Plug-In . SVG Version: 6.00 Build 0)  -->
<!DOCTYPE svg PUBLIC "-//W3C//DTD SVG 1.1//EN" "http://www.w3.org/Graphics/SVG/1.1/DTD/svg11.dtd">
<svg version="1.1" id="Layer_3" xmlns="http://www.w3.org/2000/svg" xmlns:xlink="http://www.w3.org/1999/xlink" x="0px" y="0px"
	 viewBox="0 0 19.7 20" enable-background="new 0 0 19.7 20" xml:space="preserve">
<g>
	<g>
		<path fill="#FFFFFF" d="M8.6,17.2C3.9,17.2,0,13.3,0,8.6C0,3.9,3.9,0,8.6,0c4.7,0,8.6,3.8,8.6,8.6C17.2,13.3,13.3,17.2,8.6,17.2
			L8.6,17.2z M8.6,1.7c-3.8,0-6.9,3.1-6.9,6.9c0,3.8,3.1,6.9,6.9,6.9c3.8,0,6.9-3.1,6.9-6.9C15.4,4.8,12.4,1.7,8.6,1.7L8.6,1.7z"/>
	</g>
	<g>
		<path fill="#FFFFFF" d="M18.8,20c-0.2,0-0.4-0.1-0.6-0.3L13.4,15c-0.3-0.3-0.3-0.9,0-1.2c0.3-0.3,0.9-0.3,1.2,0l4.8,4.8
			c0.3,0.3,0.3,0.9,0,1.2C19.2,19.9,19,20,18.8,20L18.8,20z"/>
	</g>
</g>
</svg>
