<?xml version="1.0" encoding="utf-8"?>
<!-- Generator: Adobe Illustrator 17.1.0, SVG Export Plug-In . SVG Version: 6.00 Build 0)  -->
<!DOCTYPE svg PUBLIC "-//W3C//DTD SVG 1.1//EN" "http://www.w3.org/Graphics/SVG/1.1/DTD/svg11.dtd">
<svg version="1.1" id="Layer_1" xmlns="http://www.w3.org/2000/svg" xmlns:xlink="http://www.w3.org/1999/xlink" x="0px" y="0px"
	 width="172px" height="172px" viewBox="0 0 172 172" enable-background="new 0 0 172 172" xml:space="preserve">
<g>
	<circle fill="none" stroke="#FFFFFF" stroke-width="2" stroke-linecap="round" stroke-miterlimit="10" cx="86" cy="86" r="85"/>
	<path fill="none" stroke="#FFFFFF" stroke-width="2" stroke-miterlimit="10" d="M113.7,166.4c0.5-13.2,0.3-26.8,0.3-29
		c0-7.5-12.5-13.5-28-13.5s-28,6-28,13.5c0,2.1-0.2,15.8,0.3,28.9"/>
	<path fill="none" stroke="#FFFFFF" stroke-width="2" stroke-miterlimit="10" d="M104.9,91.9c0,11-6,26-19,26s-19-15-19-26
		s8-20,19-20S104.9,80.9,104.9,91.9z"/>
	<circle opacity="0.2" fill="#FFFFFF" cx="47" cy="62.8" r="10"/>
	<g>
		<line fill="none" stroke="#FFFFFF" stroke-width="2" stroke-miterlimit="10" x1="42.5" y1="62.8" x2="51.5" y2="62.8"/>
		<line fill="none" stroke="#FFFFFF" stroke-width="2" stroke-miterlimit="10" x1="47" y1="58.3" x2="47" y2="67.3"/>
	</g>
	<circle opacity="0.2" fill="#FFFFFF" cx="88" cy="39.8" r="10"/>
	<g>
		<line fill="none" stroke="#FFFFFF" stroke-width="2" stroke-miterlimit="10" x1="83.5" y1="39.8" x2="92.5" y2="39.8"/>
		<line fill="none" stroke="#FFFFFF" stroke-width="2" stroke-miterlimit="10" x1="88" y1="35.3" x2="88" y2="44.3"/>
	</g>
	<circle opacity="0.2" fill="#FFFFFF" cx="129" cy="87.8" r="10"/>
	<g>
		<line fill="none" stroke="#FFFFFF" stroke-width="2" stroke-miterlimit="10" x1="124.5" y1="87.8" x2="133.5" y2="87.8"/>
		<line fill="none" stroke="#FFFFFF" stroke-width="2" stroke-miterlimit="10" x1="129" y1="83.3" x2="129" y2="92.3"/>
	</g>
	<g>
		<line fill="none" stroke="#FFFFFF" stroke-width="2" stroke-miterlimit="10" x1="36" y1="97.3" x2="45" y2="97.3"/>
		<line fill="none" stroke="#FFFFFF" stroke-width="2" stroke-miterlimit="10" x1="40.5" y1="92.8" x2="40.5" y2="101.8"/>
	</g>
	<g>
		<line fill="none" stroke="#FFFFFF" stroke-width="2" stroke-miterlimit="10" x1="111" y1="57.3" x2="120" y2="57.3"/>
		<line fill="none" stroke="#FFFFFF" stroke-width="2" stroke-miterlimit="10" x1="115.5" y1="52.8" x2="115.5" y2="61.8"/>
	</g>
	<g>
		<line fill="none" stroke="#FFFFFF" stroke-width="2" stroke-miterlimit="10" x1="54" y1="34.3" x2="63" y2="34.3"/>
		<line fill="none" stroke="#FFFFFF" stroke-width="2" stroke-miterlimit="10" x1="58.5" y1="29.8" x2="58.5" y2="38.8"/>
	</g>
</g>
</svg>
