<?xml version="1.0" encoding="utf-8"?>
<!-- Generator: Adobe Illustrator 17.1.0, SVG Export Plug-In . SVG Version: 6.00 Build 0)  -->
<!DOCTYPE svg PUBLIC "-//W3C//DTD SVG 1.1//EN" "http://www.w3.org/Graphics/SVG/1.1/DTD/svg11.dtd">
<svg version="1.1" id="Foreground" xmlns="http://www.w3.org/2000/svg" xmlns:xlink="http://www.w3.org/1999/xlink" x="0px" y="0px"
	 viewBox="0 0 180 100.1" enable-background="new 0 0 180 100.1" xml:space="preserve">
<g>
	<g>
		<path fill-rule="evenodd" clip-rule="evenodd" fill="#FFFFFF" d="M6,30.7c-2.1,0-3.2,0.7-3.2,2.2c0,0.8,0.3,1.3,0.8,1.7
			c0.5,0.3,1.6,0.7,3.3,1.2c1.7,0.5,2.9,1,3.6,1.7c0.7,0.7,1.1,1.7,1.1,3.1c0,1.8-0.5,3.2-1.6,4.1C9,45.5,7.6,46,5.8,46
			c-1.4,0-3-0.2-4.7-0.5l-0.9-0.2l0.3-2.2c2.3,0.3,4,0.5,5.2,0.5c2.1,0,3.1-0.9,3.1-2.8c0-0.7-0.2-1.2-0.7-1.6
			c-0.5-0.4-1.5-0.7-3.2-1.1c-1.6-0.4-2.9-1-3.7-1.7C0.4,35.6,0,34.5,0,32.9c0-1.6,0.5-2.7,1.5-3.5c1-0.8,2.4-1.2,4.2-1.2
			c1.3,0,2.8,0.2,4.6,0.5l0.9,0.2L11,31.1C8.6,30.8,6.9,30.7,6,30.7z"/>
		<polygon fill-rule="evenodd" clip-rule="evenodd" fill="#FFFFFF" points="24.8,45.7 24.8,38.3 17.4,38.3 17.4,45.7 14.6,45.7 
			14.6,28.5 17.4,28.5 17.4,35.8 24.8,35.8 24.8,28.5 27.6,28.5 27.6,45.7 		"/>
		<path fill-rule="evenodd" clip-rule="evenodd" fill="#FFFFFF" d="M30.1,45.7l4.2-17.2h5.6l4.3,17.2h-2.8L40.4,42h-6.6l-0.9,3.7
			H30.1z M36.5,30.8l-2.1,8.7h5.5l-2.1-8.7H36.5z"/>
		<path fill-rule="evenodd" clip-rule="evenodd" fill="#FFFFFF" d="M49.4,39.6v6.1h-2.8V28.5h6.5c3.9,0,5.8,1.8,5.8,5.5
			c0,2.4-0.9,4.1-2.8,5l2.8,6.8h-3.1l-2.5-6.1H49.4z M56.1,34c0-2.1-1-3.1-3-3.1h-3.7v6.3h3.8c1,0,1.7-0.3,2.2-0.9
			C55.8,35.7,56.1,34.9,56.1,34z"/>
		<polygon fill-rule="evenodd" clip-rule="evenodd" fill="#FFFFFF" points="62.1,45.7 62.1,28.5 73,28.5 73,30.9 64.9,30.9 
			64.9,35.8 71.5,35.8 71.5,38.2 64.9,38.2 64.9,43.2 73,43.2 73,45.7 		"/>
		<rect x="76.2" y="28.2" fill-rule="evenodd" clip-rule="evenodd" fill="#FFFFFF" width="1.6" height="17.5"/>
		<path fill-rule="evenodd" clip-rule="evenodd" fill="#FFFFFF" d="M85.6,34.3c-2,0-3,0.7-3,2.1c0,0.7,0.2,1.1,0.7,1.4
			c0.4,0.3,1.4,0.5,2.9,0.8c1.5,0.3,2.6,0.6,3.2,1.1c0.6,0.5,1,1.3,1,2.6c0,1.3-0.4,2.2-1.2,2.8c-0.8,0.6-2,0.9-3.6,0.9
			c-0.9,0-2.1-0.1-3.6-0.4l-0.7-0.1l0.1-1.3c1.9,0.3,3.3,0.4,4.3,0.4c1,0,1.8-0.2,2.3-0.5c0.6-0.4,0.9-0.9,0.9-1.8
			c0-0.8-0.2-1.4-0.7-1.7c-0.5-0.3-1.4-0.5-3-0.8c-1.5-0.2-2.6-0.6-3.2-1c-0.6-0.4-0.9-1.3-0.9-2.5c0-1.2,0.4-2.1,1.3-2.6
			c0.9-0.6,1.9-0.8,3.2-0.8c1,0,2.3,0.1,3.8,0.3l0.7,0.1L90,34.7C88.2,34.4,86.7,34.3,85.6,34.3z"/>
		<path fill-rule="evenodd" clip-rule="evenodd" fill="#FFFFFF" d="M99.8,34.5h-4.2v6.2c0,1.6,0.1,2.7,0.4,3.2
			c0.2,0.5,0.8,0.8,1.7,0.8l2.3-0.2l0.1,1.3c-1.1,0.2-2,0.3-2.5,0.3c-1.3,0-2.2-0.3-2.7-0.9c-0.5-0.6-0.7-1.8-0.7-3.6v-7h-1.9v-1.3
			h1.9v-3.9h1.5v3.9h4.2V34.5z"/>
		<path fill-rule="evenodd" clip-rule="evenodd" fill="#FFFFFF" d="M102.2,45.7V33.1h1.5v1.8c0.6-0.4,1.4-0.9,2.3-1.3
			c0.9-0.4,1.7-0.7,2.5-0.8v1.5c-0.7,0.2-1.5,0.4-2.3,0.7c-0.8,0.3-1.4,0.6-1.8,0.8l-0.7,0.4v9.4H102.2z"/>
		<path fill-rule="evenodd" clip-rule="evenodd" fill="#FFFFFF" d="M110.7,45.7V33.1h1.5v12.6H110.7z M110.7,30v-1.9h1.5V30H110.7z"
			/>
		<path fill-rule="evenodd" clip-rule="evenodd" fill="#FFFFFF" d="M124.6,36.9v6.7c0.1,0.6,0.6,1,1.6,1.1l-0.1,1.2
			c-1.3,0-2.2-0.3-2.8-1c-1.6,0.7-3.1,1-4.7,1c-1.1,0-2-0.3-2.6-1c-0.6-0.7-0.9-1.6-0.9-2.8c0-1.2,0.3-2.1,0.9-2.7
			c0.6-0.6,1.5-0.9,2.8-1.1l4.3-0.4v-1.2c0-0.9-0.2-1.6-0.6-2c-0.4-0.4-0.9-0.6-1.6-0.6c-1.1,0-2.5,0.1-4.2,0.3l-0.8,0.1l-0.1-1.2
			c1.8-0.4,3.4-0.5,4.8-0.5c1.4,0,2.4,0.3,3,1C124.3,34.5,124.6,35.5,124.6,36.9z M116.7,42.1c0,1.7,0.7,2.5,2.1,2.5
			c0.6,0,1.3-0.1,2-0.2c0.7-0.2,1.3-0.3,1.7-0.5l0.6-0.2v-4.5l-4.1,0.4c-0.8,0.1-1.4,0.3-1.8,0.7C116.9,40.8,116.7,41.4,116.7,42.1z
			"/>
	</g>
	<path fill="#FFFFFF" d="M133.9,63.3c-3.3-2-5.6-5.6-5.8-9.7L92,53.6c-0.5,0-6.2-0.2-5.6,4.8c0.8,5.8,17.4,17.5,18.7,18.4
		c2.4,1.1,5.5,1.1,7.8-0.3C116.4,74.4,129.1,66.3,133.9,63.3z M139.5,43.7c-5.2,0.2-9.2,4.5-9,9.7c0.2,5.2,4.5,9.2,9.7,9
		c5.2-0.2,9.2-4.5,9-9.7C149.1,47.6,144.7,43.6,139.5,43.7z M144.8,42.4l1.1-2l-3.3,1.2C143.3,41.8,144.1,42.1,144.8,42.4z
		 M151.3,50.2c1.7,0.9,19,10,23.3,12.3c3.1,1.6,5.3,5.3,5.4,8.8c0,0-0.5,5.7-1.6,11.8c-1.1,5.9-2.9,13.1-6,15.5
		c-4.3,3.3-8.5,0.8-10.6-3.1L144,64.2c-1.2,0.4-2.4,0.7-3.7,0.7c-1.3,0-2.6-0.1-3.7-0.5c-2.7,1.8-18.4,11.7-22.3,14.2
		c-3,1.9-7.2,1.9-10.3,0.3c0,0-4.7-3.2-9.5-7.3c-4.6-3.9-9.9-9-10.4-12.9c-0.7-5.4,3.6-7.7,8-7.6l36.2-0.2c0.5-2.5,1.7-4.7,3.5-6.4
		c-0.2,0-1.9-21.7-2.3-26.8c-0.2-3.5,1.7-7.3,4.5-9.3c0,0,5.1-2.6,10.9-4.9c5.6-2.2,12.6-4.5,16.3-3.1c5.1,1.9,5.2,6.8,3,10.6
		l-17.2,32.6C149,45.2,150.6,47.5,151.3,50.2z M146.2,63.1L164,94.2c0.2,0.5,3,5.5,7,2.4c4.6-3.6,6.5-23.8,6.6-25.4
		c-0.2-2.7-1.7-5.3-4.1-6.6c-3.7-2-17.1-9-21.8-11.5C151.7,57.3,149.5,61,146.2,63.1z M133,13l27.6-10.2l-0.3-0.1
		c-5.5-2-23.6,7.1-25,7.9C134.4,11.2,133.6,12,133,13z M131.9,18.6l31-11.5c0.1-0.8,0.1-1.7-0.3-2.5L131.9,16
		c-0.1,0.5-0.1,1-0.1,1.6L131.9,18.6z M132.3,23.6l27.8-10.3l1.7-3.2l-29.7,11L132.3,23.6z M132.7,28.6l24.1-8.9l1.6-3.1l-25.9,9.6
		L132.7,28.6z M133.1,33.3l20.5-7.6l1.5-2.8l-22.2,8.2L133.1,33.3z M133.4,37.8l17.1-6.3l1.4-2.6l-18.6,6.9L133.4,37.8z M148.8,34.7
		l-15.2,5.6l0.2,1.9l13.8-5.1L148.8,34.7z M139.8,46.7c3.6-0.1,6.6,2.7,6.7,6.3c0.1,3.6-2.7,6.6-6.3,6.7c-3.6,0.1-6.6-2.7-6.7-6.3
		C133.4,49.9,136.2,46.9,139.8,46.7z M139.9,49.2c-2.3,0.1-4,2-3.9,4.2s2,4,4.2,3.9c2.3-0.1,4-2,3.9-4.2
		C144,50.8,142.2,49.1,139.9,49.2z"/>
</g>
</svg>
