<?xml version="1.0" encoding="utf-8"?>
<!-- Generator: Adobe Illustrator 17.1.0, SVG Export Plug-In . SVG Version: 6.00 Build 0)  -->
<!DOCTYPE svg PUBLIC "-//W3C//DTD SVG 1.1//EN" "http://www.w3.org/Graphics/SVG/1.1/DTD/svg11.dtd">
<svg version="1.1" id="Layer_1" xmlns="http://www.w3.org/2000/svg" xmlns:xlink="http://www.w3.org/1999/xlink" x="0px" y="0px"
	 viewBox="0 91.7 600.6 416" enable-background="new 0 91.7 600.6 416" xml:space="preserve">
<g>
	<path fill="#FFFFFF" d="M49.1,357.8c0-7.5,5.3-12.4,14.3-12.4c6.5,0,9,1.6,9,4c0,1.9-0.9,3.4-0.9,5.3c0,3.7,2.8,5.6,6.5,5.6
		c4.7,0,7.2-1.9,7.2-7.2c0-9-9.6-13.1-21.5-13.1c-16.2,0-26.1,9.3-26.1,19.9c0,24.9,39.5,18.3,39.5,36.1c0,11.2-6.5,15.2-17.7,15.2
		c-8.7,0-11.2-2.2-11.2-5c0-2.2,0.9-4.4,0.9-6.5c0-3.4-2.5-5.9-6.2-5.9c-4.4,0-7.5,3.1-7.5,8.1c0,10.3,10.6,14.9,23.9,14.9
		c20.8,0,29.2-11.8,29.2-23.6C88.3,367.8,49.1,374.6,49.1,357.8z"/>
	<path fill="#FFFFFF" d="M0,314.6c0,3.1,6.8,1.9,6.8,6.5v83.3c0,5-6.8,3.4-6.8,6.5v3.7h27.7V411c0-3.1-6.8-1.9-6.8-6.5v-83
		c0-5,6.8-3.4,6.8-6.5v-3.7H0V314.6z"/>
	<path fill="#FFFFFF" d="M123.7,409.7c-5.3,0-7.5-2.5-7.5-9v-52.5h18v-5.9h-18v-22.4l-9.3,1.6c-1.6,0.3-1.9,0.9-2.2,2.2l-1.6,11.8
		c-0.9,8.1-7.2,5.9-7.2,9.3v3.1h7.2v55.3c0,9,6.2,13.4,16.5,13.4c8.1,0,13.7-3.1,17.4-9l-4.7-3.4
		C130.3,407.6,126.5,409.7,123.7,409.7z"/>
	<path fill="#FFFFFF" d="M260.5,410.1c-1.2,0.3-2.5,0.9-4.4,0.9c-2.5,0-4-0.9-4-5.6v-31.1c0-26.4-13.4-34.2-29.5-34.2
		c-13.1,0-19.3,5.6-19.3,12.1c0,4,2.8,6.2,7.2,6.2c5,0,6.5-1.9,6.5-5c0-1.9-0.9-3.1-0.9-4.4c0-2.2,2.2-4.4,6.5-4.4
		c7.8,0,15.5,6.2,15.5,18.3v5.6c-23,0.6-41,9.6-41,27.4c0,14,11.5,20.8,24.2,20.8c11.2,0,16.5-5.9,19.3-8.4
		c2.8,5.9,5.9,8.4,10.9,8.4c7.5,0,10.6-3.1,10.6-4C262.1,411.9,261.1,410.4,260.5,410.1z M238.4,393.9c0,10.3-5.9,17.1-14.9,17.1
		c-7.5,0-12.4-5.9-12.4-15.2c0-14.9,13.1-21.5,27.4-22.1V393.9z"/>
	<path fill="#FFFFFF" d="M184,340.1c-7.5,0-14.3,8.7-17.7,23.6H166v-21.5h-18v3.4c0,2.8,6.2,1.6,6.2,5.9v54.1c0,4.4-6.2,3.1-6.2,5.9
		v3.4h26.7v-3.4c0-2.8-8.1-1.6-8.1-5.9V388c0-18.3,8.4-37,12.1-37c3.4,0,1.9,5.9,7.8,5.9c2.8,0,6.5-1.9,6.5-8.4
		C193.4,343.5,189,340.1,184,340.1z"/>
	<path fill="#FFFFFF" d="M586.6,298.8v-15.9c0-2.5-0.9-13.1-5.6-15.2c-18.7-9.3-42.6-11.5-61.6-17.4l-102.9-19
		c-4,0.9-10.9,3.1-13.4,3.1c-4.7,0-4-7.2-5-8.4c2.8-0.6,5.6-0.6,8.4-2.2c1.6-3.7,2.5-10.6,2.5-13.1c0-2.5-5-11.2-5-13.7s4-3.4,4-5.9
		s0.9-3.4,0.9-5.9s-3.1-6.8-5.9-8.7c15.2-20.2,34.2-54.1,59.4-51.6c5.6,0.6,8.4-8.4,10.6-11.8H461c-16.5,0-70.9,51.9-71.5,51.9
		c-2.5,0-2.2-0.9-3.1-1.6c14-18.7,27.7-37.9,42.6-56.6c9.9,1.6,12.7-5.6,16.2-15.2c-1.6,0.9-3.4,1.9-4.4,2.5
		c-23.3,3.4-49.7,34.5-68.7,59.7c-0.6-0.9-0.9-1.9-0.9-1.9c-5.3,7.2-14.6,20.2-17.1,20.2s-3.4-1.9-5.9-1.9s-5,0.6-6.2,2.2
		c-5,6.5-13.4,21.5-13.4,23.9c0,2.5,1.2,2.5,1.2,3.7c2.5,0,3.1,0.3,4,0.9l1.2,2.5c4.4-2.5,9.3-10.3,11.8-10.3c2.5,0,1.6,0.6,1.6,0.6
		c-8.4,13.7-10.3,28-11.5,42c-1.2,13.4-8.7,36.1-8.7,38.5c0,6.5,9,14,9,16.5s-1.9,8.1-2.8,15.2c5,0.6,10.6,0.3,14.6,0
		c0-1.2,1.2-0.9,1.2-3.4s-3.1-3.4-3.1-5.9s1.9-1.6,2.5-2.5c0.6,0.9,0.9,1.9,3.4,1.9c5.6,0,19.9-35.4,22.1-39.5
		c2.8-5.6,6.5-9.9,10.3-14.9c0.6,4.7-1.9,11.2,0,15.9c1.2,3.7,6.8,6.8,6.8,9.3c0,0.6-14.9,62.5-14.9,63.1c0,20.2-9,46.3-19.3,66.5
		c-3.7,9.3,4.4,12.4,6.8,12.4c2.5,0,4.4,2.5,4.4,5s-5.9,20.5-5.9,23s-0.3,8.7,5,8.7c10.3-11.8,5.6-37,15.5-37c2.5,0,4.4-0.3,4.4,2.2
		c0,2.5-9,33.6-9,36.1s-1.6,16.8-1.6,19.3c0,3.1,3.7,9.6,5.3,9c2.8,0.3,8.4-8.7,9.9-13.1c4.4-11.8,7.8-33.9,7.8-36.4
		c0-2.5,0.9-8.4,1.9-12.1c33.6,6.5,58.8,10.9,86.7,21.8v7.8c0,2.5-8.1,25.5-8.1,28s0.6,11.5,3.4,11.5c14.3-13.4,10.6-29.8,15.2-44.1
		c3.1,1.9,9.3,3.4,9.3,7.5c0,2.5-9,32.6-9,35.1s-0.9,9-0.9,11.5s-0.6,15.9,4.4,14.9c3.1-4.4,9-14,10.3-18.3
		c2.2-9.6,5.3-28.9,5.3-31.4c0-2.5,0-11.2,0-14.9l14.9,2.5c2.5,0,13.1,5.9,15.5,5.9s5.6-4.7,5.6-7.2s-1.9-3.1-1.9-5.6
		s7.8-13.7,9.6-19.3c4-12.4,7.5-25.8,9.9-37.6c3.4-15.2,6.8-34.2,9.6-50.1l3.1,2.8c2.8,3.7,8.4,4.4,13.7,6.5
		c1.2-3.4,1.2-8.1,1.2-10.6C600,317.7,586.6,306.2,586.6,298.8z M378.3,232.5c-2.8,7.5-17.4,25.2-21.5,33.6c-4.7,0-9,5-12.4,7.2
		c-0.3-7.8,5.6-29.8,5.6-33.6l1.9-26.4c0-13.4,10.9-24.9,17.1-39.2c4.4,0.9,7.2,1.2,9.9,1.2c2.5,0,9.9,6.5,14.3,9.9l1.2,5.9
		C386.7,206.4,385.5,217,378.3,232.5z M576.1,314c-0.6,11.8-14,50.7-14.9,61.2c-0.3,2.8-0.9,6.8-1.2,10.6c-0.3,2.8-8.1,29.2-14,45.7
		c-56.6-15.5-112.8-22.1-169.4-38.9c5.6-19.3,6.8-41.7,16.2-59.4c-1.6-22.4,9.3-50.7,17.1-72.1c1.9-5.3,9.6-7.8,13.4-11.2h19
		c2.8,0,33.6,5.9,50.4,8.7c1.2,0.3,82.7,14.3,82.7,33.6C575.1,295.3,576.7,303.4,576.1,314z"/>
</g>
</svg>
