<?xml version="1.0" encoding="utf-8"?>
<!-- Generator: Adobe Illustrator 17.1.0, SVG Export Plug-In . SVG Version: 6.00 Build 0)  -->
<!DOCTYPE svg PUBLIC "-//W3C//DTD SVG 1.1//EN" "http://www.w3.org/Graphics/SVG/1.1/DTD/svg11.dtd">
<svg version="1.1" id="Layer_1" xmlns="http://www.w3.org/2000/svg" xmlns:xlink="http://www.w3.org/1999/xlink" x="0px" y="0px"
	 viewBox="0 0 50 50" enable-background="new 0 0 50 50" xml:space="preserve">
<g>
	<polygon fill="#1D1D1B" points="35.3,19.3 35.3,15.3 35.3,14.7 34.7,14.7 30.7,14.7 30.7,19.3 	"/>
	<path fill="#1D1D1B" d="M24.8,29.9c2.6,0,4.8-2.1,4.8-4.8c0-1-0.3-2-0.9-2.8c-0.9-1.2-2.3-2-3.9-2c-1.6,0-3,0.8-3.9,2
		c-0.6,0.8-0.9,1.7-0.9,2.8C20.1,27.8,22.2,29.9,24.8,29.9z"/>
	<path fill="#1D1D1B" d="M25-0.2C11.2-0.2,0,11,0,24.8c0,13.8,11.2,25,25,25c13.8,0,25-11.2,25-25C50,11,38.8-0.2,25-0.2z
		 M38.4,22.4v11.1c0,2.9-2.4,5.3-5.3,5.3H16.5c-2.9,0-5.3-2.4-5.3-5.3V22.4v-5.5c0-2.9,2.4-5.3,5.3-5.3h16.7c2.9,0,5.3,2.4,5.3,5.3
		V22.4z"/>
	<path fill="#1D1D1B" d="M32.3,25.2c0,4.1-3.3,7.4-7.4,7.4c-4.1,0-7.4-3.3-7.4-7.4c0-1,0.2-1.9,0.5-2.8h-4.1v11.1
		c0,1.4,1.2,2.6,2.6,2.6h16.7c1.4,0,2.6-1.2,2.6-2.6V22.4h-4.1C32.1,23.2,32.3,24.2,32.3,25.2z"/>
</g>
</svg>
