<?xml version="1.0" encoding="utf-8"?>
<!-- Generator: Adobe Illustrator 17.1.0, SVG Export Plug-In . SVG Version: 6.00 Build 0)  -->
<!DOCTYPE svg PUBLIC "-//W3C//DTD SVG 1.1//EN" "http://www.w3.org/Graphics/SVG/1.1/DTD/svg11.dtd">
<svg version="1.1" id="Layer_1" xmlns="http://www.w3.org/2000/svg" xmlns:xlink="http://www.w3.org/1999/xlink" x="0px" y="0px"
	 viewBox="0 0 50 50" enable-background="new 0 0 50 50" xml:space="preserve">
<path fill="#1D1D1B" d="M25,0C11.2,0,0,11.2,0,25c0,13.8,11.2,25,25,25c13.8,0,25-11.2,25-25C50,11.2,38.8,0,25,0z M37.6,20
	c0,0.3,0,0.5,0,0.8c0,8.3-6.3,17.9-17.9,17.9c-3.6,0-6.9-1-9.7-2.8c0.5,0.1,1,0.1,1.5,0.1c3,0,5.7-1,7.8-2.7
	c-2.8-0.1-5.1-1.9-5.9-4.4c0.4,0.1,0.8,0.1,1.2,0.1c0.6,0,1.1-0.1,1.7-0.2c-2.9-0.6-5.1-3.1-5.1-6.2c0,0,0-0.1,0-0.1
	c0.8,0.5,1.8,0.8,2.9,0.8c-1.7-1.1-2.8-3.1-2.8-5.2c0-1.2,0.3-2.2,0.9-3.2c3.1,3.8,7.8,6.3,13,6.6C25,21,25,20.5,25,20
	c0-3.5,2.8-6.3,6.3-6.3c1.8,0,3.4,0.8,4.6,2c1.4-0.3,2.8-0.8,4-1.5c-0.5,1.5-1.5,2.7-2.8,3.5c1.3-0.2,2.5-0.5,3.6-1
	C39.9,18,38.8,19.1,37.6,20z"/>
</svg>
