<?xml version="1.0" encoding="utf-8"?>
<!-- Generator: Adobe Illustrator 17.1.0, SVG Export Plug-In . SVG Version: 6.00 Build 0)  -->
<!DOCTYPE svg PUBLIC "-//W3C//DTD SVG 1.1//EN" "http://www.w3.org/Graphics/SVG/1.1/DTD/svg11.dtd">
<svg version="1.1" id="Layer_1" xmlns="http://www.w3.org/2000/svg" xmlns:xlink="http://www.w3.org/1999/xlink" x="0px" y="0px"
	 viewBox="0 0 19.5 20" enable-background="new 0 0 19.5 20" xml:space="preserve">
<g>
	<path fill="#FFFFFF" d="M9.3,10.7c0,0,0.1,0,0.1,0.1c0,0,0.1,0,0.1,0c0.1,0,0.2,0.1,0.3,0.1c0.1,0,0.2,0,0.3-0.1c0,0,0.1,0,0.1,0
		c0,0,0.1,0,0.1-0.1l4.6-3.3c0.4-0.3,0.5-0.8,0.2-1.2c-0.3-0.4-1-0.5-1.4-0.2l-3.4,2.3V0.8c0-0.5,0-0.8-0.5-0.8
		C9.2,0,9.2,0.4,9.2,0.8v7.5L5.8,6c-0.4-0.3-1-0.2-1.3,0.2C4.3,6.5,4.4,7.1,4.7,7.3L9.3,10.7z"/>
	<path fill="#FFFFFF" d="M19.2,13.2L19.2,13.2c0,0,0.2-0.1,0.1-0.1c0-0.1,0.1-0.2,0-0.2c0-0.1,0-0.1-0.1-0.2c0,0,0-0.1,0-0.1L15.8,9
		c-0.3-0.3-0.9-0.3-1.2,0c-0.3,0.3-0.3,0.6,0,0.9l2,1.8h-3.5c-0.5,0-1,0.9-1,1.3v1.7h-5v-1.7c0-0.5-0.3-1.3-0.8-1.3H2.9l2-1.8
		c0.3-0.3,0.3-0.7,0-1.1C4.5,8.6,4,8.6,3.7,9l-3.4,3.6c0,0,0,0,0,0l0,0c0,0,0,0,0,0.1c-0.1,0.1-0.1,0.1-0.1,0.2
		c0,0.1,0.1,0.1,0.1,0.2c0,0,0.1,0.1,0.1,0.1v6c0,0.5,0.2,0.6,0.7,0.6h17.8c0.5,0,0.5-0.2,0.5-0.6V13.2
		C19.2,13.2,19.2,13.2,19.2,13.2z M18.2,18.8h-16v-5h3v0.5c0,0.9,1.1,1.5,2,1.5h5.1c0.9,0,1.9-0.5,1.9-1.5v-0.5h4V18.8z"/>
</g>
</svg>
