<?xml version="1.0" encoding="utf-8"?>
<!-- Generator: Adobe Illustrator 17.1.0, SVG Export Plug-In . SVG Version: 6.00 Build 0)  -->
<!DOCTYPE svg PUBLIC "-//W3C//DTD SVG 1.1//EN" "http://www.w3.org/Graphics/SVG/1.1/DTD/svg11.dtd">
<svg version="1.1" id="Layer_1" xmlns="http://www.w3.org/2000/svg" xmlns:xlink="http://www.w3.org/1999/xlink" x="0px" y="0px"
	 viewBox="275 -11.5 650 650" enable-background="new 275 -11.5 650 650" xml:space="preserve">
<g>
	<path fill="#D6341F" d="M600,633.1c-175.9,0-319.6-143.7-319.6-319.6S424.1-6.1,600-6.1s319.6,143.7,319.6,319.6
		S775.9,633.1,600,633.1z M600,28.5c-157.2,0-285,127.8-285,285s127.8,285,285,285s285-127.8,285-285S757.2,28.5,600,28.5z"/>
</g>
<g>
	
		<rect x="578.2" y="120.2" transform="matrix(-0.7071 0.7071 -0.7071 -0.7071 1246.6696 110.6126)" fill="#D6331D" width="44.4" height="386.5"/>
	
		<rect x="577.8" y="120.7" transform="matrix(-0.7071 -0.7071 0.7071 -0.7071 802.2848 960.1696)" fill="#D6331D" width="44.4" height="386.5"/>
</g>
</svg>
