<?xml version="1.0" encoding="utf-8"?>
<!-- Generator: Adobe Illustrator 17.1.0, SVG Export Plug-In . SVG Version: 6.00 Build 0)  -->
<!DOCTYPE svg PUBLIC "-//W3C//DTD SVG 1.1//EN" "http://www.w3.org/Graphics/SVG/1.1/DTD/svg11.dtd">
<svg version="1.1" id="Layer_1" xmlns="http://www.w3.org/2000/svg" xmlns:xlink="http://www.w3.org/1999/xlink" x="0px" y="0px"
	 viewBox="0 0 200 110" enable-background="new 0 0 200 110" xml:space="preserve">
<g>
	<g>
		<path fill="#FF4338" d="M0,30.1c0,16.7,12.9,28.8,30.7,28.8c2.5,0,10.4-0.5,15.8-5.7c0,1.7,0,4.6,0,4.6h12.1V24.6H32.3v11.9H43
			c-1.3,4.3-6.1,8.7-12.7,8.7c-9.6,0-13.1-7.8-13.1-15.1c0-7.3,3.4-15.1,13.1-15.1c4.8,0,8.8,1.7,10.3,4.5l0.2,0.5h17.5l-0.2-1
			c-3-13-16.7-17.6-27.5-17.6C12.9,1.3,0,13.4,0,30.1"/>
		<path fill="#FF4338" d="M85.8,24.7h-9.9v-8.9h9.4c1.6,0,5.3,0.4,5.3,4.2C90.6,23.2,89,24.7,85.8,24.7 M182.6,3.8
			c0,0-8.6,17.6-9.9,20.2c-1.3-2.6-9.9-20.2-9.9-20.2h-52.4v46.8c-4.1-7-9.8-16.8-10.3-17.8c4.9-2.3,7.8-7.4,7.8-13.5
			c0-5.1-2.1-9.3-6.1-12c-3.3-2.3-8-3.5-13.1-3.5H60.8v54h15.1v-21h8.6c0.4,0.9,10.5,21,10.5,21h62.8V45.4h-31.2v-8.2H149V25.6
			h-22.5v-9.4h26c5.6,9.6,12.3,21.2,12.5,21.5v20.1h15.3V37.7C180.5,37.3,200,3.8,200,3.8H182.6z"/>
	</g>
	<g>
		<path fill="#FFFFFF" d="M18.4,87.8l0.8-5.6L18.4,82c-0.3,0.8-0.6,1.5-0.8,2.1c-0.3,0.6-0.6,1.1-1.1,1.5c-0.5,0.4-1,0.7-1.8,0.8
			c-0.7,0.2-1.7,0.3-2.9,0.3h-0.9c-1.5,0-2.3-0.5-2.3-1.6v-5.4c0-0.6,0.4-0.9,1.3-0.9h0.3c0.6,0,1.1,0,1.5,0.1
			c0.4,0.1,0.8,0.2,1.1,0.4c0.3,0.2,0.5,0.5,0.6,0.9c0.1,0.4,0.3,1,0.3,1.7h1.1v-7.3h-1.1c-0.1,0.7-0.2,1.3-0.4,1.7
			c-0.2,0.4-0.5,0.7-0.8,0.9c-0.3,0.2-0.7,0.3-1.1,0.4c-0.4,0-0.8,0.1-1.3,0.1h-1c-0.5,0-0.7-0.3-0.7-0.8v-5.1
			c0-0.9,0.7-1.3,2.2-1.3h0.8c0.7,0,1.4,0,2,0.1c0.6,0.1,1.2,0.2,1.6,0.5c0.5,0.3,0.9,0.7,1.2,1.3c0.3,0.6,0.6,1.4,0.8,2.4l0.9-0.1
			L17.9,69H3v0.9c1.9,0,2.8,0.8,2.8,2.4v12.9c0,1.2-0.9,1.9-2.6,1.9v0.8H18.4z"/>
		<path fill="#FFFFFF" d="M40.9,87.9V73c0-2.1,0.9-3.1,2.6-3.1V69h-6.8v0.9c1.9,0,2.9,1,2.9,3.1v10.2L28.5,69h-5.2v0.9
			c1.9,0,2.8,0.4,2.8,1.2v12.5c0,2.3-0.8,3.4-2.4,3.4v0.8h6.8V87c-2,0-2.9-1.1-2.9-3.4V72.2l12.5,16L40.9,87.9z"/>
		<path fill="#FFFFFF" d="M59.3,87.8V87c-2,0-3.1-0.9-3.1-2.6V71.3c0-0.6,0.5-1,1.4-1c2.8,0,4.3,1.5,4.5,4.5l0.8-0.1v-5.9
			c-0.4,0.1-0.9,0.1-1.3,0.1c-0.4,0-0.8,0.1-1.2,0.1H49.6c-0.4,0-0.7,0-1.1-0.1c-0.4,0-0.8-0.1-1.2-0.1l-0.8,6l0.9,0.2
			c0.4-1.6,1-2.8,1.7-3.6c0.8-0.8,1.8-1.2,3-1.2c0.9,0,1.4,0.3,1.4,1v13.1c0,1.7-1,2.6-3,2.6v0.8H59.3z"/>
		<path fill="#FFFFFF" d="M73.9,86.4c-0.8-0.5-1.4-1.1-2-1.9c-0.5-0.8-0.9-1.7-1.1-2.8c-0.2-1.1-0.4-2.2-0.4-3.5
			c0-1.1,0.1-2.2,0.3-3.3c0.2-1,0.5-2,1-2.7c0.5-0.8,1.1-1.4,1.8-1.9c0.7-0.5,1.6-0.7,2.7-0.7c1.2,0,2.2,0.2,3,0.8
			c0.8,0.5,1.5,1.2,2,2c0.5,0.8,0.9,1.8,1.1,2.8c0.2,1.1,0.4,2.2,0.4,3.3c0,1.2-0.1,2.3-0.4,3.4c-0.2,1-0.6,1.9-1.1,2.7
			c-0.5,0.8-1.1,1.4-1.9,1.8c-0.8,0.4-1.7,0.7-2.7,0.7C75.6,87.1,74.7,86.9,73.9,86.4z M80.4,87.4c1.2-0.6,2.2-1.3,3-2.3
			c0.8-0.9,1.5-2,1.9-3.2c0.5-1.2,0.7-2.4,0.7-3.6c0-1.4-0.2-2.7-0.7-3.8c-0.5-1.2-1.1-2.2-2-3c-0.8-0.9-1.8-1.5-3-2
			c-1.2-0.5-2.4-0.7-3.8-0.7c-1.4,0-2.7,0.3-3.8,0.8c-1.1,0.6-2.1,1.3-2.9,2.2c-0.8,0.9-1.4,2-1.9,3.1c-0.4,1.2-0.7,2.4-0.7,3.6
			c0,1.3,0.2,2.6,0.7,3.8c0.5,1.2,1.1,2.2,1.9,3.1c0.8,0.9,1.8,1.6,2.9,2.1c1.1,0.5,2.4,0.8,3.7,0.8C77.9,88.2,79.2,87.9,80.4,87.4z
			"/>
		<path fill="#FFFFFF" d="M107.5,81.3c0,0.6-0.1,1.2-0.2,1.9c-0.1,0.7-0.4,1.3-0.8,1.8c-0.4,0.5-0.9,1-1.7,1.4
			c-0.7,0.4-1.7,0.6-2.9,0.6c-1.3,0-2.3-0.2-3-0.5c-0.7-0.3-1.2-0.8-1.6-1.3c-0.3-0.5-0.5-1.1-0.6-1.8c-0.1-0.7-0.1-1.3-0.1-2v-9.4
			c0-1.4,0.9-2.1,2.7-2.1V69h-8.2v0.9c1.8,0,2.7,0.7,2.7,2.1v10.1c0,0.9,0.1,1.7,0.4,2.5c0.3,0.8,0.7,1.4,1.3,2
			c0.6,0.5,1.3,1,2.1,1.3c0.8,0.3,1.8,0.5,2.9,0.5c1.8,0,3.2-0.2,4.2-0.5c1.1-0.3,1.9-0.8,2.5-1.5c0.6-0.6,1-1.4,1.1-2.3
			c0.2-0.9,0.3-1.9,0.3-3v-8.6c0-1.7,0.8-2.5,2.4-2.5V69h-6.6v0.9c1.9,0,2.9,0.8,2.9,2.5V81.3z"/>
		<path fill="#FFFFFF" d="M121.8,77.5c-0.4,0-0.6-0.1-0.7-0.4v-5.4c0-1.1,0.4-1.6,1.1-1.6h1.4c0.5,0,1,0.1,1.4,0.2
			c0.5,0.1,0.9,0.3,1.3,0.6c0.4,0.3,0.7,0.7,1,1.1c0.3,0.5,0.4,1.1,0.4,1.8c0,0.8-0.1,1.5-0.4,2c-0.3,0.5-0.6,0.9-1,1.1
			c-0.4,0.3-0.9,0.4-1.4,0.5c-0.5,0.1-1.1,0.1-1.6,0.1H121.8z M132.8,85.1c-0.2,0.8-0.5,1.3-1,1.3c-0.4,0-0.7-0.2-1-0.5
			c-0.3-0.3-0.5-0.7-0.7-1.2c-0.2-0.5-0.4-1-0.5-1.5c-0.2-0.5-0.3-1-0.4-1.4c-0.2-0.6-0.6-1.2-1.2-1.9c-0.6-0.6-1.3-1.2-2.3-1.6
			v-0.1c0.7-0.2,1.4-0.4,2-0.6c0.6-0.3,1.1-0.6,1.6-1c0.4-0.4,0.8-0.8,1-1.3c0.2-0.5,0.4-1.1,0.4-1.8c0-0.7-0.1-1.3-0.4-1.8
			c-0.3-0.6-0.7-1.1-1.2-1.5c-0.5-0.4-1.1-0.7-1.9-1c-0.7-0.2-1.5-0.4-2.3-0.4c-0.7,0-1.2,0-1.7,0c-0.5,0-0.9,0-1.3,0
			c-0.4,0-0.8,0-1.3,0c-0.4,0-1,0-1.6,0h-3.5v0.9c1.8,0,2.7,0.6,2.7,1.8v13.4c0,1.2-0.8,1.8-2.5,1.8v0.8h8V87
			c-1.7,0-2.6-0.6-2.6-1.8V79c0.1-0.2,0.4-0.3,0.9-0.3h0.8c0.7,0,1.2,0.2,1.7,0.7c0.5,0.5,0.8,1,1.1,1.7c0.3,0.7,0.6,1.4,0.8,2.3
			c0.2,0.8,0.4,1.6,0.7,2.3c0.3,0.9,0.7,1.5,1.2,1.9c0.5,0.4,1.4,0.6,2.6,0.6c0.4,0,0.7-0.1,1.1-0.3c0.3-0.2,0.6-0.5,0.8-0.7
			c0.2-0.3,0.4-0.6,0.5-0.9c0.1-0.3,0.2-0.6,0.2-0.8L132.8,85.1z"/>
		<path fill="#FFFFFF" d="M154.8,87.8V87c-0.5-0.1-0.9-0.2-1.1-0.3c-0.3-0.1-0.4-0.1-0.5-0.2c-0.2-0.1-0.4-0.3-0.6-0.7l-6.7-16.8
			l-0.8-0.3l-6.8,16.2c-0.3,0.6-0.6,1.1-1,1.5c-0.4,0.3-0.8,0.5-1.4,0.6v1h6.4v-1c-1.7,0-2.5-0.4-2.5-1.3c0-0.3,0-0.6,0.1-0.7l1-2.9
			c0.1-0.5,0.6-0.7,1.3-0.7h4.2c0.9,0,1.5,0.2,1.7,0.7l1.3,3.5c0.1,0.2,0.1,0.4,0.2,0.5c0,0.1,0,0.2,0,0.3c0,0.1-0.1,0.2-0.2,0.3
			c-0.2,0.1-0.4,0.2-0.6,0.2c-0.2,0.1-0.5,0.1-0.8,0.1c-0.3,0-0.6,0.1-0.8,0.1v0.8H154.8z M146.9,78.6c0.2,0.5,0.3,0.8,0.3,0.9
			c0,0.2-0.3,0.3-0.8,0.3h-3.6c-0.7,0-1.1-0.1-1.1-0.4c0-0.2,0.1-0.5,0.3-1l2.5-5.9L146.9,78.6z"/>
		<path fill="#FFFFFF" d="M174.2,88.1v-5.8c0-1.4,0.8-2.2,2.5-2.2v-0.8h-8.1v0.8c1.9,0,2.9,1,2.9,3c0,0.7-0.1,1.3-0.4,1.8
			c-0.2,0.5-0.6,0.9-1,1.2c-0.4,0.3-0.9,0.6-1.4,0.7c-0.5,0.2-1.1,0.2-1.7,0.2c-1.1,0-2-0.2-2.8-0.7c-0.8-0.5-1.4-1.1-2-1.9
			c-0.5-0.8-0.9-1.7-1.2-2.8c-0.3-1.1-0.4-2.2-0.4-3.4c0-1.1,0.1-2.2,0.3-3.2c0.2-1,0.6-2,1.1-2.8c0.5-0.8,1.1-1.4,1.9-1.9
			c0.8-0.5,1.8-0.7,2.9-0.7c1.6,0,3,0.5,4,1.5c1.1,1,1.8,2.4,2.2,4h1c0-2.7-0.3-4.9-1-6.5c-0.7,0.1-1.4,0.5-2,1.2
			c-0.7-0.4-1.5-0.7-2.2-1c-0.7-0.3-1.5-0.4-2.3-0.4c-1.3,0-2.6,0.3-3.7,0.9c-1.1,0.6-2.1,1.3-2.9,2.3c-0.8,0.9-1.4,2-1.9,3.2
			c-0.4,1.2-0.7,2.5-0.7,3.8c0,1.3,0.2,2.6,0.7,3.7c0.4,1.2,1,2.2,1.8,3c0.8,0.9,1.7,1.5,2.8,2c1.1,0.5,2.3,0.7,3.6,0.7
			c0.9,0,1.9-0.1,2.8-0.4c0.9-0.3,1.7-0.7,2.3-1.2l2,1.5H174.2z"/>
		<path fill="#FFFFFF" d="M196.2,87.8l0.8-5.6l-0.8-0.2c-0.3,0.8-0.6,1.5-0.8,2.1c-0.3,0.6-0.6,1.1-1.1,1.5c-0.5,0.4-1,0.7-1.8,0.8
			c-0.7,0.2-1.7,0.3-2.9,0.3h-0.9c-1.5,0-2.3-0.5-2.3-1.6v-5.4c0-0.6,0.4-0.9,1.3-0.9h0.3c0.6,0,1.1,0,1.5,0.1
			c0.4,0.1,0.8,0.2,1.1,0.4c0.3,0.2,0.5,0.5,0.6,0.9c0.1,0.4,0.3,1,0.3,1.7h1.1v-7.3h-1.1c-0.1,0.7-0.2,1.3-0.4,1.7
			c-0.2,0.4-0.5,0.7-0.8,0.9c-0.3,0.2-0.7,0.3-1.1,0.4c-0.4,0-0.8,0.1-1.3,0.1h-1c-0.5,0-0.7-0.3-0.7-0.8v-5.1
			c0-0.9,0.7-1.3,2.2-1.3h0.8c0.7,0,1.4,0,2,0.1c0.6,0.1,1.2,0.2,1.7,0.5c0.5,0.3,0.9,0.7,1.2,1.3c0.3,0.6,0.6,1.4,0.8,2.4l0.9-0.1
			l-0.2-5.3h-14.9v0.9c1.9,0,2.8,0.8,2.8,2.4v12.9c0,1.2-0.9,1.9-2.6,1.9v0.8H196.2z"/>
	</g>
	<g>
		<path fill="#FFFFFF" d="M40.2,105.8v-6.3h-0.9v6.3H40.2z M40.2,97.7v-1h-1v1H40.2z"/>
		<path fill="#FFFFFF" d="M48.7,105.8v-4c0-0.7-0.2-1.3-0.7-1.8c-0.4-0.4-0.9-0.6-1.6-0.6c-0.7,0-1.3,0.3-1.8,0.8v-0.7h-0.9v6.3h0.9
			v-3.9c0-1.1,0.6-1.7,1.6-1.7c0.9,0,1.6,0.6,1.6,1.7v3.9H48.7z"/>
		<path fill="#FFFFFF" d="M56.8,103.9c0-1.2-0.8-1.6-1.9-1.7l-1-0.1c-0.8-0.1-1.1-0.4-1.1-0.9c0-0.6,0.5-1,1.4-1
			c0.7,0,1.2,0.1,1.7,0.5l0.6-0.6c-0.6-0.5-1.4-0.7-2.3-0.7c-1.3,0-2.3,0.7-2.3,1.8c0,1,0.7,1.6,1.9,1.7l1,0.1
			c0.7,0.1,1.1,0.4,1.1,0.9c0,0.7-0.6,1.1-1.7,1.1c-0.8,0-1.5-0.2-2-0.7l-0.6,0.6c0.7,0.7,1.5,0.9,2.6,0.9
			C55.8,105.9,56.8,105.2,56.8,103.9z"/>
		<path fill="#FFFFFF" d="M64.9,102.6c0-1-0.1-2-0.8-2.7c-0.3-0.3-0.9-0.5-1.5-0.5c-0.7,0-1.3,0.1-1.8,0.8v-0.7h-0.9v9.1h0.9V105
			c0.5,0.7,1.1,0.8,1.8,0.8c0.6,0,1.2-0.2,1.5-0.5C64.8,104.7,64.9,103.6,64.9,102.6z M64,102.6c0,1.2-0.2,2.4-1.6,2.4
			c-1.4,0-1.6-1.2-1.6-2.4c0-1.2,0.2-2.4,1.6-2.4C63.8,100.2,64,101.4,64,102.6z"/>
		<path fill="#FFFFFF" d="M69.1,105.8v-6.3h-0.9v6.3H69.1z M69.2,97.7v-1h-1v1H69.2z"/>
		<path fill="#FFFFFF" d="M76.9,100c-0.5-0.4-0.9-0.6-1.5-0.6c-0.7,0-1.4,0.3-1.8,0.8v-0.8h-0.9v6.3h0.9v-3.9c0-1,0.6-1.7,1.5-1.7
			c0.5,0,0.7,0.1,1.1,0.5L76.9,100z"/>
		<path fill="#FFFFFF" d="M83.8,102.9v-0.4c0-1.9-1-3-2.6-3c-1.6,0-2.6,1.2-2.6,3.2c0,2.2,1.1,3.2,2.8,3.2c1.1,0,1.7-0.3,2.3-1
			l-0.6-0.6c-0.5,0.5-0.9,0.7-1.6,0.7c-1.2,0-1.9-0.8-1.9-2.2H83.8z M82.9,102.2h-3.3c0-0.5,0.1-0.7,0.2-1.1
			c0.3-0.6,0.8-0.9,1.5-0.9c0.7,0,1.2,0.4,1.5,0.9C82.8,101.5,82.8,101.7,82.9,102.2z"/>
		<path fill="#FFFFFF" d="M91.7,105.8v-9.1h-0.9v3.6c-0.5-0.7-1.1-0.8-1.8-0.8c-0.6,0-1.2,0.2-1.5,0.5c-0.6,0.6-0.8,1.7-0.8,2.7
			c0,1,0.1,2,0.8,2.7c0.3,0.3,0.9,0.5,1.5,0.5c0.7,0,1.3-0.2,1.8-0.8v0.8H91.7z M90.8,102.6c0,1.2-0.2,2.4-1.6,2.4
			c-1.4,0-1.6-1.2-1.6-2.4c0-1.2,0.2-2.4,1.6-2.4C90.6,100.2,90.8,101.4,90.8,102.6z"/>
		<path fill="#FFFFFF" d="M104.8,102.6c0-1-0.1-2-0.8-2.7c-0.3-0.3-0.9-0.5-1.5-0.5c-0.7,0-1.3,0.1-1.8,0.8v-3.6h-0.9v9.1h0.9V105
			c0.5,0.7,1.1,0.8,1.8,0.8c0.6,0,1.2-0.2,1.5-0.5C104.6,104.7,104.8,103.6,104.8,102.6z M103.9,102.6c0,1.2-0.2,2.4-1.6,2.4
			c-1.4,0-1.6-1.2-1.6-2.4c0-1.2,0.2-2.4,1.6-2.4C103.6,100.2,103.9,101.4,103.9,102.6z"/>
		<path fill="#FFFFFF" d="M112.5,99.5h-1l-1.7,5.1l-1.7-5.1h-1l2.3,6.2l-0.5,1.2c-0.2,0.6-0.4,0.8-1,0.8h-0.3v0.8h0.4
			c0.5,0,0.9-0.1,1.2-0.4c0.2-0.2,0.3-0.4,0.5-0.7L112.5,99.5z"/>
		<path fill="#FFFFFF" d="M124.2,105.8v-9.1h-0.9v3.6c-0.5-0.7-1.1-0.8-1.8-0.8c-0.6,0-1.2,0.2-1.5,0.5c-0.6,0.6-0.8,1.7-0.8,2.7
			c0,1,0.1,2,0.8,2.7c0.3,0.3,0.9,0.5,1.5,0.5c0.7,0,1.3-0.2,1.8-0.8v0.8H124.2z M123.3,102.6c0,1.2-0.2,2.4-1.6,2.4
			c-1.4,0-1.6-1.2-1.6-2.4c0-1.2,0.2-2.4,1.6-2.4C123.1,100.2,123.3,101.4,123.3,102.6z"/>
		<path fill="#FFFFFF" d="M128.7,105.8v-6.3h-0.9v6.3H128.7z M128.8,97.7v-1h-1v1H128.8z"/>
		<path fill="#FFFFFF" d="M137,106v-6.5h-0.9v0.7c-0.5-0.7-1.1-0.8-1.8-0.8c-0.6,0-1.2,0.2-1.5,0.5c-0.6,0.6-0.8,1.6-0.8,2.6
			c0,1,0.1,2,0.8,2.6c0.3,0.3,0.9,0.6,1.5,0.6c0.7,0,1.3-0.2,1.8-0.8v1c0,1.1-0.5,1.9-1.7,1.9c-0.7,0-1.1-0.2-1.5-0.6l-0.6,0.6
			c0.7,0.6,1.2,0.8,2.1,0.8C136,108.7,137,107.5,137,106z M136.1,102.6c0,1.2-0.2,2.4-1.6,2.4c-1.4,0-1.6-1.2-1.6-2.4
			c0-1.2,0.2-2.4,1.6-2.4C135.9,100.2,136.1,101.4,136.1,102.6z"/>
		<path fill="#FFFFFF" d="M141.5,105.8v-6.3h-0.9v6.3H141.5z M141.5,97.7v-1h-1v1H141.5z"/>
		<path fill="#FFFFFF" d="M147.5,105.8V105H147c-0.6,0-0.9-0.4-0.9-0.9v-3.8h1.3v-0.7h-1.3v-2h-0.9v2h-0.8v0.7h0.8v3.9
			c0,0.9,0.5,1.7,1.6,1.7H147.5z"/>
		<path fill="#FFFFFF" d="M155,105.8v-4.3c0-1.4-0.8-2.1-2.5-2.1c-1,0-1.7,0.2-2.2,0.9l0.6,0.6c0.4-0.5,0.8-0.7,1.6-0.7
			c1.2,0,1.6,0.5,1.6,1.4v0.6h-1.9c-1.4,0-2.2,0.7-2.2,1.8c0,0.5,0.2,1,0.5,1.3c0.4,0.4,0.9,0.6,1.8,0.6c0.8,0,1.3-0.2,1.8-0.7v0.6
			H155z M154.1,103.6c0,0.5-0.1,0.9-0.3,1.1c-0.4,0.4-0.9,0.4-1.4,0.4c-1,0-1.4-0.3-1.4-1.1c0-0.7,0.5-1.1,1.4-1.1h1.8V103.6z"/>
		<path fill="#FFFFFF" d="M160.8,105.8V105h-0.5c-0.6,0-0.8-0.3-0.8-0.9v-7.4h-0.9v7.5c0,1,0.5,1.7,1.6,1.7H160.8z"/>
	</g>
</g>
</svg>
