<svg version="1.1" xmlns="http://www.w3.org/2000/svg" xmlns:xlink="http://www.w3.org/1999/xlink" x="0px" y="0px"
   viewBox="0 0 448.6 240.9" enable-background="new 0 0 448.6 240.9" xml:space="preserve">
<g>
  <g>
    <path fill="#F54029" d="M0,64.6c0,37.4,28.9,64.5,68.8,64.5c5.5,0,23.3-1,35.5-12.7c0,3.9,0,10.3,0,10.3h27.1V52.4H72.6V79h23.9 C93.6,88.7,82.8,98.4,68,98.4c-21.6,0-29.3-17.5-29.3-33.9c0-16.4,7.7-33.9,29.3-33.9c10.8,0,19.7,3.9,23.1,10l0.5,1.1h39.3 l-0.5-2.3C123.8,10.3,93.1,0,68.8,0C28.9,0,0,27.2,0,64.6"/>
    <path fill="#F54029" d="M192.5,52.5h-22.2V32.6h21c3.6,0,11.9,0.9,11.9,9.4C203.2,49,199.6,52.5,192.5,52.5 M409.5,5.5 c0,0-19.4,39.6-22.2,45.4C384.4,45.1,365,5.5,365,5.5H247.5v105c-9.2-15.8-21.9-37.7-23.1-39.8c10.9-5.2,17.6-16.6,17.6-30.3 c0-11.5-4.7-20.8-13.6-26.9c-7.5-5.1-17.9-7.9-29.4-7.9h-62.5v121.2h33.8V79.7h19.2c1,2,23.5,47.1,23.5,47.1h140.8V98.8H284V80.5 h50.4v-26H284V33.4h58.2c12.5,21.5,27.7,47.7,28,48.2v45.2h34.3V81.6c0.5-0.8,44.2-76.1,44.2-76.1H409.5z"/>
  </g>
  <g>
    <path fill="#231F20" d="M41.2,194l1.7-12.6l-1.7-0.5c-0.6,1.8-1.3,3.3-1.9,4.6c-0.6,1.3-1.4,2.4-2.4,3.3c-1,0.9-2.3,1.5-4,1.9 c-1.6,0.4-3.8,0.6-6.5,0.6h-2c-3.4,0-5.1-1.2-5.1-3.6v-12.1c0-1.4,1-2.1,2.9-2.1H23c1.4,0,2.5,0.1,3.4,0.2c0.9,0.1,1.7,0.5,2.4,1 c0.6,0.5,1.1,1.2,1.5,2.1c0.3,0.9,0.6,2.2,0.8,3.7h2.4V164h-2.4c-0.2,1.6-0.5,2.8-0.9,3.7c-0.4,0.9-1,1.6-1.7,2 c-0.7,0.4-1.5,0.7-2.4,0.8c-0.9,0.1-1.9,0.2-3,0.2h-2.2c-1,0-1.5-0.6-1.5-1.9v-11.4c0-1.9,1.6-2.9,4.8-2.9H26 c1.6,0,3.2,0.1,4.6,0.2c1.4,0.1,2.6,0.5,3.7,1.1c1.1,0.6,2,1.6,2.8,2.8c0.8,1.3,1.3,3,1.7,5.3l2-0.3l-0.5-11.9H6.8v1.9 c4.2,0,6.3,1.8,6.3,5.3V188c0,2.8-1.9,4.1-5.8,4.1v1.9H41.2z"/>
    <path fill="#231F20" d="M91.8,194.3v-33.5c0-4.7,2-7,5.9-7v-1.9H82.4v1.9c4.3,0,6.5,2.3,6.5,7v22.8L64,151.8H52.4v1.9 c4.2,0,6.3,0.9,6.3,2.7v28.1c0,5.1-1.8,7.6-5.3,7.6v1.9h15.3v-1.9c-4.4,0-6.6-2.5-6.6-7.6v-25.6l28.1,35.8L91.8,194.3z"/>
    <path fill="#231F20" d="M133.1,194v-1.9c-4.6,0-6.9-2-6.9-5.9v-29.3c0-1.4,1-2.2,3.2-2.2c6.2,0,9.6,3.4,10.1,10.2l1.7-0.3v-13.3 c-1,0.1-1.9,0.2-2.9,0.3c-0.9,0.1-1.8,0.1-2.7,0.1h-24.5c-0.8,0-1.6,0-2.5-0.1c-0.9-0.1-1.8-0.2-2.8-0.3l-1.7,13.5l2,0.5 c0.8-3.6,2.1-6.4,3.9-8.2c1.7-1.8,4-2.7,6.8-2.7c2.1,0,3.1,0.8,3.1,2.4v29.3c0,3.9-2.3,5.9-6.8,5.9v1.9H133.1z"/>
    <path fill="#231F20" d="M165.8,191c-1.8-1-3.2-2.4-4.4-4.2c-1.1-1.8-2-3.9-2.5-6.3c-0.6-2.4-0.8-5-0.8-7.8c0-2.5,0.2-5,0.7-7.3 c0.4-2.3,1.2-4.4,2.2-6.2c1-1.8,2.4-3.2,4.1-4.3c1.7-1.1,3.7-1.6,6.1-1.6c2.6,0,4.9,0.6,6.7,1.7c1.8,1.1,3.3,2.6,4.5,4.4 c1.1,1.8,2,3.9,2.5,6.3c0.5,2.4,0.8,4.8,0.8,7.4c0,2.7-0.3,5.2-0.8,7.6c-0.5,2.3-1.4,4.4-2.5,6.1c-1.1,1.7-2.5,3.1-4.2,4.1 c-1.7,1-3.7,1.5-6.1,1.5C169.7,192.5,167.6,192,165.8,191z M180.4,193c2.6-1.3,4.9-3,6.7-5.1c1.8-2.1,3.3-4.5,4.3-7.2 c1-2.7,1.5-5.4,1.5-8.1c0-3.1-0.5-6-1.6-8.6c-1.1-2.6-2.5-4.9-4.4-6.8c-1.9-1.9-4.1-3.4-6.7-4.5c-2.6-1.1-5.5-1.6-8.6-1.6 c-3.1,0-6,0.6-8.5,1.9c-2.6,1.3-4.8,2.9-6.6,5c-1.8,2.1-3.2,4.4-4.2,7.1c-1,2.7-1.5,5.4-1.5,8.2c0,3,0.5,5.8,1.6,8.5 c1,2.7,2.5,5,4.3,6.9c1.9,2,4,3.5,6.6,4.6c2.5,1.1,5.3,1.7,8.3,1.7C174.8,195,177.7,194.3,180.4,193z"/>
    <path fill="#231F20" d="M241.1,179.5c0,1.3-0.1,2.7-0.4,4.2c-0.3,1.5-0.8,2.9-1.7,4.1c-0.9,1.2-2.1,2.3-3.7,3.1 c-1.6,0.8-3.8,1.2-6.5,1.2c-2.9,0-5.2-0.4-6.8-1.1c-1.6-0.8-2.8-1.8-3.5-3c-0.8-1.2-1.2-2.6-1.4-4.1c-0.1-1.5-0.2-3-0.2-4.4v-21.1 c0-3.1,2-4.6,6-4.6v-1.9h-18.4v1.9c4,0,6,1.5,6,4.6v22.7c0,2,0.3,3.8,1,5.5c0.7,1.7,1.6,3.2,2.9,4.4c1.3,1.2,2.9,2.2,4.8,2.9 c1.9,0.7,4.1,1,6.6,1c3.9,0,7.1-0.4,9.5-1.2c2.4-0.8,4.2-1.9,5.5-3.3c1.3-1.4,2.2-3.1,2.6-5.1c0.4-2,0.6-4.2,0.6-6.6v-19.4 c0-3.7,1.8-5.6,5.3-5.6v-1.9h-14.7v1.9c4.4,0,6.5,1.9,6.5,5.6V179.5z"/>
    <path fill="#231F20" d="M273.3,171c-0.8,0-1.4-0.3-1.5-0.9v-12.2c0-2.4,0.8-3.6,2.4-3.6h3.1c1.1,0,2.1,0.1,3.2,0.4 c1.1,0.3,2.1,0.7,3,1.3c0.9,0.6,1.7,1.5,2.2,2.5c0.6,1.1,0.9,2.4,0.9,4c0,1.9-0.3,3.4-0.9,4.5c-0.6,1.1-1.3,2-2.3,2.5 c-0.9,0.6-2,1-3.2,1.1c-1.2,0.2-2.4,0.2-3.7,0.2H273.3z M298,188c-0.5,1.9-1.2,2.9-2.2,2.9c-0.8,0-1.6-0.4-2.2-1.1 c-0.6-0.7-1.1-1.6-1.6-2.7c-0.4-1.1-0.8-2.2-1.2-3.4c-0.3-1.2-0.6-2.2-0.9-3.1c-0.5-1.4-1.4-2.8-2.7-4.2c-1.3-1.5-3-2.7-5.1-3.7 v-0.2c1.7-0.3,3.2-0.8,4.5-1.4c1.4-0.6,2.5-1.3,3.5-2.2c1-0.9,1.8-1.8,2.3-3c0.6-1.1,0.8-2.5,0.8-3.9c0-1.5-0.3-2.9-1-4.1 c-0.7-1.3-1.6-2.4-2.8-3.3c-1.2-0.9-2.6-1.7-4.2-2.2c-1.6-0.5-3.3-0.8-5.2-0.8c-1.5,0-2.7,0-3.8,0c-1,0-2,0.1-2.9,0.1 c-0.9,0-1.9,0.1-2.8,0.1c-1,0-2.2,0-3.6,0h-7.9v2c4,0,6,1.4,6,4.1V188c0,2.8-1.9,4.1-5.6,4.1v1.9h17.9v-1.9 c-3.9,0-5.8-1.4-5.8-4.1v-13.8c0.2-0.5,0.8-0.7,2-0.7h1.9c1.5,0,2.8,0.5,3.8,1.6c1,1,1.9,2.3,2.6,3.9c0.7,1.6,1.3,3.2,1.8,5.1 c0.5,1.8,1,3.6,1.5,5.2c0.6,2,1.5,3.4,2.7,4.2c1.2,0.9,3.1,1.3,5.7,1.3c0.9,0,1.7-0.2,2.4-0.7c0.7-0.5,1.3-1,1.8-1.7 c0.5-0.6,0.8-1.3,1.1-2c0.2-0.7,0.4-1.3,0.4-1.8L298,188z"/>
    <path fill="#231F20" d="M347.2,194v-1.9c-1.1-0.3-2-0.5-2.6-0.7c-0.6-0.1-1-0.3-1-0.3c-0.3-0.2-0.8-0.8-1.4-1.7l-15.1-37.8 l-1.9-0.8L310,187.2c-0.6,1.4-1.3,2.5-2.2,3.3c-0.9,0.8-1.9,1.2-3.1,1.3v2.2H319v-2.2c-3.7,0-5.6-1-5.6-2.9c0-0.7,0.1-1.3,0.3-1.6 l2.2-6.6c0.3-1.1,1.3-1.6,2.9-1.6h9.5c2.1,0,3.4,0.6,3.9,1.7l2.9,7.8c0.2,0.5,0.3,0.9,0.3,1.2c0,0.3,0.1,0.6,0.1,0.7 c0,0.3-0.2,0.5-0.5,0.7c-0.4,0.2-0.8,0.4-1.3,0.5c-0.5,0.1-1.1,0.2-1.8,0.3c-0.7,0.1-1.3,0.2-1.9,0.3v1.9H347.2z M329.6,173.5 c0.5,1.2,0.7,1.9,0.7,2.1c0,0.5-0.6,0.8-1.9,0.8h-8c-1.6,0-2.4-0.3-2.4-0.9c0-0.4,0.2-1.1,0.7-2.2l5.6-13.3L329.6,173.5z"/>
    <path fill="#231F20" d="M390.7,194.7v-13.1c0-3.2,1.9-4.8,5.7-4.8v-1.9h-18.2v1.9c4.3,0,6.5,2.2,6.5,6.6c0,1.6-0.3,3-0.8,4.1 c-0.5,1.1-1.3,2-2.2,2.8c-0.9,0.7-2,1.3-3.2,1.6c-1.2,0.3-2.5,0.5-3.9,0.5c-2.4,0-4.4-0.5-6.2-1.6c-1.7-1.1-3.2-2.5-4.4-4.3 c-1.2-1.8-2.1-3.9-2.6-6.2c-0.6-2.4-0.9-4.9-0.9-7.6c0-2.5,0.2-4.9,0.7-7.2c0.5-2.3,1.3-4.4,2.4-6.2c1.1-1.8,2.6-3.2,4.4-4.3 c1.8-1.1,4-1.6,6.5-1.6c3.6,0,6.7,1.2,9,3.5c2.4,2.3,4,5.3,5,9.1h2.2c0-6.1-0.7-11-2.2-14.5c-1.5,0.2-3,1.1-4.6,2.7 c-1.6-0.8-3.3-1.6-4.9-2.2c-1.7-0.6-3.4-1-5.2-1c-3,0-5.8,0.6-8.3,1.9c-2.5,1.3-4.7,3-6.5,5.1c-1.8,2.1-3.2,4.6-4.2,7.3 c-1,2.7-1.5,5.6-1.5,8.5c0,3,0.5,5.8,1.5,8.3c1,2.6,2.3,4.8,4.1,6.8c1.8,1.9,3.8,3.4,6.3,4.5c2.4,1.1,5.1,1.6,8,1.6 c2.1,0,4.2-0.3,6.2-1c2-0.7,3.8-1.5,5.2-2.6l4.6,3.4H390.7z"/>
    <path fill="#231F20" d="M440.1,194l1.7-12.6l-1.7-0.5c-0.6,1.8-1.3,3.3-1.9,4.6c-0.6,1.3-1.4,2.4-2.4,3.3c-1,0.9-2.3,1.5-4,1.9 c-1.6,0.4-3.8,0.6-6.5,0.6h-2c-3.4,0-5.1-1.2-5.1-3.6v-12.1c0-1.4,1-2.1,2.9-2.1h0.8c1.4,0,2.5,0.1,3.4,0.2c0.9,0.1,1.7,0.5,2.4,1 c0.6,0.5,1.1,1.2,1.5,2.1c0.3,0.9,0.6,2.2,0.8,3.7h2.4V164H430c-0.2,1.6-0.5,2.8-0.9,3.7c-0.5,0.9-1,1.6-1.7,2 c-0.7,0.4-1.5,0.7-2.4,0.8c-0.9,0.1-1.9,0.2-3,0.2h-2.2c-1,0-1.5-0.6-1.5-1.9v-11.4c0-1.9,1.6-2.9,4.8-2.9h1.8 c1.7,0,3.2,0.1,4.6,0.2c1.4,0.1,2.6,0.5,3.7,1.1c1.1,0.6,2,1.6,2.8,2.8c0.8,1.3,1.3,3,1.7,5.3l2-0.3l-0.5-11.9h-33.4v1.9 c4.2,0,6.3,1.8,6.3,5.3V188c0,2.8-2,4.1-5.8,4.1v1.9H440.1z"/>
  </g>
  <g>
    <path fill="#231F20" d="M90.1,234.4v-14.1h-2.1v14.1H90.1z M90.3,216.2v-2.3H88v2.3H90.3z"/>
    <path fill="#231F20" d="M109.3,234.4v-9.1c0-1.6-0.5-3-1.5-3.9c-0.9-0.9-2.1-1.3-3.6-1.3c-1.6,0-3,0.6-4,1.7v-1.6h-2.1v14.1h2.1 v-8.7c0-2.5,1.4-3.8,3.5-3.8c2.1,0,3.5,1.3,3.5,3.8v8.7H109.3z"/>
    <path fill="#231F20" d="M127.5,230.2c0-2.6-1.7-3.6-4.2-3.8l-2.3-0.2c-1.8-0.1-2.5-0.9-2.5-2.1c0-1.4,1.1-2.3,3.2-2.3 c1.5,0,2.8,0.3,3.8,1.1l1.4-1.3c-1.3-1-3.1-1.5-5.1-1.5c-3,0-5.2,1.6-5.2,4.1c0,2.3,1.5,3.6,4.2,3.8l2.3,0.2 c1.6,0.1,2.4,0.8,2.4,2.1c0,1.7-1.4,2.5-3.8,2.5c-1.8,0-3.3-0.5-4.4-1.6l-1.4,1.4c1.6,1.5,3.4,2,5.8,2 C125.1,234.5,127.5,233,127.5,230.2z"/>
    <path fill="#231F20" d="M145.6,227.3c0-2.2-0.3-4.6-1.7-6c-0.7-0.7-2-1.2-3.4-1.2c-1.6,0-2.8,0.3-4,1.8v-1.7h-2.1v20.5h2.1v-8 c1.2,1.5,2.4,1.8,4,1.8c1.4,0,2.7-0.5,3.4-1.2C145.3,231.9,145.6,229.5,145.6,227.3z M143.6,227.3c0,2.8-0.5,5.4-3.5,5.4 c-3.1,0-3.6-2.6-3.6-5.4c0-2.8,0.5-5.4,3.6-5.4C143.1,221.9,143.6,224.5,143.6,227.3z"/>
    <path fill="#231F20" d="M155,234.4v-14.1h-2.1v14.1H155z M155.2,216.2v-2.3h-2.3v2.3H155.2z"/>
    <path fill="#231F20" d="M172.5,221.4c-1-1-2-1.3-3.4-1.3c-1.6,0-3.2,0.7-4,1.9v-1.7h-2.1v14.1h2.1v-8.7c0-2.2,1.3-3.8,3.4-3.8 c1.1,0,1.7,0.3,2.4,1L172.5,221.4z"/>
    <path fill="#231F20" d="M187.9,227.8v-1c0-4.2-2.2-6.8-5.8-6.8c-3.6,0-5.8,2.7-5.8,7.2c0,5,2.5,7.2,6.2,7.2c2.4,0,3.7-0.7,5.2-2.2 l-1.4-1.2c-1.1,1.1-2.1,1.6-3.7,1.6c-2.7,0-4.2-1.8-4.2-4.9H187.9z M185.9,226.3h-7.5c0.1-1.1,0.1-1.6,0.4-2.4 c0.5-1.3,1.8-2.1,3.3-2.1c1.5,0,2.8,0.8,3.3,2.1C185.8,224.7,185.8,225.1,185.9,226.3z"/>
    <path fill="#231F20" d="M205.7,234.4v-20.5h-2.1v8c-1.1-1.5-2.4-1.8-4-1.8c-1.4,0-2.7,0.5-3.5,1.2c-1.4,1.4-1.7,3.8-1.7,6 c0,2.2,0.3,4.6,1.7,6c0.7,0.7,2,1.2,3.5,1.2c1.6,0,2.9-0.4,4-1.9v1.7H205.7z M203.6,227.3c0,2.8-0.5,5.4-3.5,5.4 c-3.1,0-3.6-2.6-3.6-5.4c0-2.8,0.5-5.4,3.6-5.4C203.2,221.9,203.6,224.5,203.6,227.3z"/>
    <path fill="#231F20" d="M235,227.3c0-2.2-0.3-4.6-1.7-6c-0.8-0.7-2-1.2-3.5-1.2c-1.6,0-2.8,0.3-4,1.8v-8h-2.1v20.5h2.1v-1.7 c1.2,1.5,2.4,1.9,4,1.9c1.4,0,2.7-0.5,3.5-1.2C234.8,231.9,235,229.5,235,227.3z M233,227.3c0,2.8-0.5,5.4-3.5,5.4 c-3.1,0-3.6-2.6-3.6-5.4c0-2.8,0.5-5.4,3.6-5.4C232.5,221.9,233,224.5,233,227.3z"/>
    <path fill="#231F20" d="M252.3,220.2h-2.2l-3.9,11.4l-3.9-11.4h-2.2l5.1,13.9l-1,2.8c-0.5,1.3-0.9,1.8-2.3,1.8h-0.6v1.8h0.9 c1,0,2-0.3,2.8-1c0.4-0.4,0.7-0.9,1-1.7L252.3,220.2z"/>
    <path fill="#231F20" d="M278.6,234.4v-20.5h-2.1v8c-1.1-1.5-2.4-1.8-4-1.8c-1.4,0-2.7,0.5-3.5,1.2c-1.4,1.4-1.7,3.8-1.7,6 c0,2.2,0.3,4.6,1.7,6c0.8,0.7,2,1.2,3.5,1.2c1.6,0,2.9-0.4,4-1.9v1.7H278.6z M276.5,227.3c0,2.8-0.5,5.4-3.5,5.4 c-3.1,0-3.6-2.6-3.6-5.4c0-2.8,0.5-5.4,3.6-5.4C276.1,221.9,276.5,224.5,276.5,227.3z"/>
    <path fill="#231F20" d="M288.7,234.4v-14.1h-2.1v14.1H288.7z M288.9,216.2v-2.3h-2.3v2.3H288.9z"/>
    <path fill="#231F20" d="M307.2,234.8v-14.6h-2v1.7c-1.2-1.5-2.4-1.8-4-1.8c-1.4,0-2.7,0.5-3.5,1.2c-1.4,1.4-1.7,3.6-1.7,5.9 c0,2.3,0.3,4.5,1.7,5.9c0.7,0.7,2,1.3,3.4,1.3c1.5,0,2.8-0.4,4-1.8v2.2c0,2.4-1.2,4.3-3.9,4.3c-1.6,0-2.4-0.5-3.4-1.4l-1.4,1.3 c1.5,1.3,2.7,1.9,4.8,1.9C305.1,240.9,307.2,238.3,307.2,234.8z M305.2,227.2c0,2.6-0.4,5.3-3.5,5.3c-3.1,0-3.5-2.6-3.5-5.3 c0-2.6,0.5-5.3,3.5-5.3C304.7,221.9,305.2,224.5,305.2,227.2z"/>
    <path fill="#231F20" d="M317.4,234.4v-14.1h-2.1v14.1H317.4z M317.5,216.2v-2.3h-2.3v2.3H317.5z"/>
    <path fill="#231F20" d="M330.9,234.4v-1.8h-1.1c-1.3,0-1.9-0.8-1.9-2.1v-8.6h3v-1.6h-3v-4.4h-2.1v4.4H324v1.6h1.8v8.7 c0,2.1,1.2,3.8,3.6,3.8H330.9z"/>
    <path fill="#231F20" d="M347.7,234.4v-9.6c0-3.1-1.9-4.7-5.7-4.7c-2.3,0-3.7,0.5-5,2.1l1.4,1.3c0.8-1.2,1.8-1.6,3.6-1.6 c2.6,0,3.6,1,3.6,3.1v1.4h-4.3c-3.2,0-4.9,1.6-4.9,4.1c0,1.1,0.4,2.2,1.1,2.9c0.9,0.9,2,1.3,4,1.3c1.9,0,2.9-0.4,4.1-1.5v1.3 H347.7z M345.7,229.4c0,1.2-0.2,2-0.7,2.4c-0.9,0.9-2,0.9-3.2,0.9c-2.2,0-3.2-0.8-3.2-2.4c0-1.6,1-2.5,3.2-2.5h4V229.4z"/>
    <path fill="#231F20" d="M360.7,234.4v-1.8h-1.1c-1.4,0-1.9-0.7-1.9-2.1v-16.6h-2.1v16.7c0,2.2,1.1,3.8,3.6,3.8H360.7z"/>
  </g>
</g>
</svg>
