<?xml version="1.0" standalone="no"?>
<!DOCTYPE svg PUBLIC "-//W3C//DTD SVG 1.1//EN" "http://www.w3.org/Graphics/SVG/1.1/DTD/svg11.dtd" >
<svg>
<metadata>
Created by FontForge 20090914 at Thu Apr 30 23:29:48 2015
 By www-data
Copyright (C) 2004 Hoefler &#38; Frere-Jones Typography, Inc. www.typography.com
</metadata>
<defs>
<font id="Whitney-Book" horiz-adv-x="523" >
  <font-face 
    font-family="Whitney"
    font-weight="500"
    font-stretch="normal"
    units-per-em="1000"
    panose-1="2 0 6 3 4 0 0 2 0 3"
    ascent="800"
    descent="-200"
    x-height="473"
    cap-height="690"
    bbox="-76 -200 980 939"
    underline-thickness="20"
    underline-position="-123"
    unicode-range="U+0020-U+FB02"
  />
<missing-glyph horiz-adv-x="500" 
 />
    <glyph glyph-name=".notdef" horiz-adv-x="500" 
 />
    <glyph glyph-name="space" unicode=" " horiz-adv-x="226" 
 />
    <glyph glyph-name="exclam" unicode="!" horiz-adv-x="268" 
d="M174 690h-80l20 -499l40 9zM173 0v98h-78v-98h78z" />
    <glyph glyph-name="quotedbl" unicode="&#x22;" horiz-adv-x="387" 
d="M317 676h-80l22 -187l37 -8zM149 676h-79l20 -187l38 -8z" />
    <glyph glyph-name="numbersign" unicode="#" horiz-adv-x="648" 
d="M206 180h185l-28 -182h53l28 182h139l-9 56h-121l32 204h119v56h-110l28 176l-51 11l-30 -187h-185l29 182h-53l-29 -182h-139l9 -56h121l-32 -204h-118v-56h109l-28 -176l52 -11zM247 440h185l-32 -204h-185z" />
    <glyph glyph-name="dollar" unicode="$" horiz-adv-x="536" 
d="M346 674l11.9971 68.998l-49 12l-12 -76c-4 0.666992 -8 1 -12 1h-12c-30.667 0 -58.667 -3.83301 -84 -11.5s-47 -19 -65 -34s-31.833 -33.167 -41.5 -54.5s-14.5 -45.333 -14.5 -72c0 -24 3.66699 -45 11 -63s18.333 -33.833 33 -47.5s32.834 -26 54.501 -37
s47.167 -21.5 76.5 -31.5l-42 -273c-25.333 4.66699 -49.5 11 -72.5 19s-44.833 17.333 -65.5 28l-9 -62c19.333 -8.66699 40.5 -16.667 63.5 -24s47.5 -12.666 73.5 -15.999l-18 -113l48 -11l19 119h17c68.667 0 122.334 17.167 161.001 51.5s58 79.833 58 136.5
c0 46.667 -14.167 84.334 -42.5 113.001s-73.5 54 -135.5 76l39 245c18.667 -3.33301 36.5 -8.33301 53.5 -15s33.167 -13.667 48.5 -21l10 62c-14.667 6.66699 -30.667 12.5 -48 17.5s-35.666 9.16699 -54.999 12.5zM247.997 50.998l41.002 263
c25.333 -9.33301 46.166 -18.833 62.499 -28.5s29.166 -20 38.499 -31s15.833 -22.667 19.5 -35s5.5 -25.833 5.5 -40.5c0 -38 -12.833 -68.833 -38.5 -92.5s-63.5 -35.5 -113.5 -35.5h-15zM288.999 624.998l-37 -236c-44 16 -75.5 32.667 -94.5 50s-28.5 42 -28.5 74
c0 32.667 11.333 59.667 34 81s57 32 103 32h11c4 0 8 -0.333008 12 -1z" />
    <glyph glyph-name="percent" unicode="%" horiz-adv-x="880" 
d="M366 494c0 29.333 -4 55.666 -12 78.999s-18.833 43.333 -32.5 60s-29.834 29.334 -48.501 38.001s-39 13 -61 13s-42.5 -4.33301 -61.5 -13s-35.333 -21.334 -49 -38.001s-24.5 -36.667 -32.5 -60s-12 -49.666 -12 -78.999s4 -55.833 12 -79.5s18.833 -43.667 32.5 -60
s30 -28.833 49 -37.5s39.5 -13 61.5 -13s42.333 4.33301 61 13s34.834 21.167 48.501 37.5s24.5 36.333 32.5 60s12 50.167 12 79.5zM681 670l-52 13l-431 -677l51 -13zM307 494c0 -40 -7.83398 -73.667 -23.501 -101s-39.167 -41 -70.5 -41c-15.333 0 -29 3.66699 -41 11
s-22.167 17.333 -30.5 30s-14.666 27.667 -18.999 45s-6.5 36 -6.5 56c0 40 8 73.5 24 100.5s39.667 40.5 71 40.5c15.333 0 29 -3.66699 41 -11s22 -17.333 30 -30s14.167 -27.5 18.5 -44.5s6.5 -35.5 6.5 -55.5zM822.999 182c0 29.333 -4 55.666 -12 78.999
s-19 43.333 -33 60s-30.333 29.334 -49 38.001s-39 13 -61 13s-42.333 -4.33301 -61 -13s-34.834 -21.334 -48.501 -38.001s-24.5 -36.667 -32.5 -60s-12 -49.666 -12 -78.999s4 -55.666 12 -78.999s18.833 -43.333 32.5 -60s29.834 -29.334 48.501 -38.001s39 -13 61 -13
s42.333 4.33301 61 13s35 21.334 49 38.001s25 36.667 33 60s12 49.666 12 78.999zM762.999 182c0 -40 -7.83301 -73.5 -23.5 -100.5s-39.167 -40.5 -70.5 -40.5c-15.333 0 -29 3.66699 -41 11s-22 17.333 -30 30s-14.167 27.5 -18.5 44.5s-6.5 35.5 -6.5 55.5
c0 40 8 73.667 24 101s39.667 41 71 41s55 -13.667 71 -41s24 -61 24 -101z" />
    <glyph glyph-name="ampersand" unicode="&#x26;" horiz-adv-x="683" 
d="M671 11l-146 147.995c17.333 30.667 32.166 65.167 44.499 103.5s22.5 80.5 30.5 126.5l-63 13c-5.33301 -40.667 -12.833 -77.5 -22.5 -110.5s-20.834 -62.5 -33.501 -88.5l-202 205c-26 26.667 -44.833 49.834 -56.5 69.501s-17.5 41.834 -17.5 66.501
c0 28 9.33301 51.167 28 69.5s45.667 27.5 81 27.5c24 0 48.833 -4.5 74.5 -13.5s51.5 -21.833 77.5 -38.5l13 69c-24 13.333 -49.5 23.833 -76.5 31.5s-55.833 11.5 -86.5 11.5c-28 0 -53.167 -4.16699 -75.5 -12.5s-41.166 -19.666 -56.499 -33.999
s-27.166 -31.333 -35.499 -51s-12.5 -40.5 -12.5 -62.5c0 -32 6.16699 -59.5 18.5 -82.5s30.166 -47.167 53.499 -72.5c-24 -11.333 -46 -23.666 -66 -36.999s-37.167 -28.666 -51.5 -45.999s-25.666 -36.5 -33.999 -57.5s-12.5 -44.5 -12.5 -70.5c0 -28 5 -53.5 15 -76.5
s24.5 -42.5 43.5 -58.5s42 -28.5 69 -37.5s57.5 -13.5 91.5 -13.5c46 0 87.833 9.66699 125.5 29s71.167 48 100.5 86l111 -110zM447 146.995c-25.333 -34 -53.333 -59 -84 -75s-63.667 -24 -99 -24c-22 0 -42.333 3.33301 -61 10s-34.5 16 -47.5 28s-23.167 26 -30.5 42
s-11 33.667 -11 53c0 36 11.833 67.667 35.5 95s57.167 50 100.5 68z" />
    <glyph glyph-name="quotesingle" unicode="'" horiz-adv-x="219" 
d="M149 676h-79l20 -187l38 -8z" />
    <glyph glyph-name="parenleft" unicode="(" horiz-adv-x="398" 
d="M349 -82c-70 61.333 -122.332 123.333 -156.999 186s-52 131 -52 205c0 77.333 15.833 144.5 47.5 201.5s80.5 108.5 146.5 154.5l-11 62c-82.667 -52.667 -145.5 -113 -188.5 -181s-64.5 -146.333 -64.5 -235c0 -42.667 5 -82.5 15 -119.5s24.167 -72 42.5 -105
s40.666 -64.5 66.999 -94.5s55.833 -59.333 88.5 -88z" />
    <glyph glyph-name="parenright" unicode=")" horiz-adv-x="398" 
d="M328 316c0 42.667 -5.00195 82.5 -15.002 119.5s-24.167 72 -42.5 105s-40.666 64.5 -66.999 94.5s-55.833 59.333 -88.5 88l-66 -14c70 -62 122.5 -124.167 157.5 -186.5s52.5 -130.5 52.5 -204.5c0 -77.333 -16.167 -144.5 -48.5 -201.5
s-81.166 -108.5 -146.499 -154.5l11 -62c82 52.667 144.667 113 188 181s65 146.333 65 235z" />
    <glyph glyph-name="asterisk" unicode="*" horiz-adv-x="406" 
d="M357 576l-7 20l-124 -26l-12 126h-23l-12 -126l-124 26l-6 -20l115 -51l-64 -112l18 -12l85 97l85 -97l17 12l-64 112z" />
    <glyph glyph-name="plus" unicode="+" horiz-adv-x="570" 
d="M512 311v54h-198v202h-58v-202h-199v-54h199v-202h58v202h198z" />
    <glyph glyph-name="comma" unicode="," horiz-adv-x="219" 
d="M164 98h-80l-51 -222l35 -9z" />
    <glyph glyph-name="hyphen" unicode="-" horiz-adv-x="364" 
d="M303 250v66h-242v-66h242z" />
    <glyph glyph-name="period" unicode="." horiz-adv-x="219" 
d="M148 0v98h-77v-98h77z" />
    <glyph glyph-name="slash" unicode="/" horiz-adv-x="517" 
d="M496 684l-59 13l-472 -809l59 -12z" />
    <glyph glyph-name="zero" unicode="0" horiz-adv-x="616" 
d="M556 339c0 53.333 -5.66699 101.666 -17 144.999s-27.833 80.166 -49.5 110.499s-47.834 53.666 -78.501 69.999s-65 24.5 -103 24.5s-72.333 -8.33301 -103 -25s-56.667 -40.167 -78 -70.5s-37.833 -67.166 -49.5 -110.499s-17.5 -92 -17.5 -146
c0 -53.333 5.66699 -101.666 17 -144.999s27.833 -80.166 49.5 -110.499s47.834 -53.666 78.501 -69.999s65 -24.5 103 -24.5s72.333 8.33301 103 25s56.667 40.167 78 70.5s37.833 67.166 49.5 110.499s17.5 92 17.5 146zM488 338c0 -44 -4 -84 -12 -120
s-19.5 -66.833 -34.5 -92.5s-33.833 -45.334 -56.5 -59.001s-48.334 -20.5 -77.001 -20.5c-29.333 0 -55.166 6.83301 -77.499 20.5s-41 33.334 -56 59.001s-26.5 56.5 -34.5 92.5s-12 76 -12 120s4 84 12 120s19.5 66.833 34.5 92.5s33.667 45.334 56 59.001
s48.166 20.5 77.499 20.5c28.667 0 54.334 -6.83301 77.001 -20.5s41.5 -33.334 56.5 -59.001s26.5 -56.5 34.5 -92.5s12 -76 12 -120z" />
    <glyph glyph-name="one" unicode="1" horiz-adv-x="355" 
d="M249 0v679h-54l-166 -76l9 -54l145 58v-607h66z" />
    <glyph glyph-name="two" unicode="2" horiz-adv-x="535" 
d="M476 0l-9 58.999h-329l209 218c20.667 22 38.5 42.333 53.5 61s27.167 36.834 36.5 54.501s16.333 35.667 21 54s7 37.833 7 58.5c0 56 -17.5 100.667 -52.5 134s-83.833 50 -146.5 50c-42 0 -79.167 -7.16699 -111.5 -21.5s-61.166 -32.166 -86.499 -53.499l10 -66
c26.667 23.333 55.167 42.666 85.5 57.999s63.166 23 98.499 23c42 0 74.833 -11.167 98.5 -33.5s35.5 -53.833 35.5 -94.5c0 -16 -1.66699 -31 -5 -45s-8.83301 -28.333 -16.5 -43s-17.667 -30 -30 -46s-27.5 -33.667 -45.5 -53l-249 -265v-49h426z" />
    <glyph glyph-name="three" unicode="3" 
d="M464 183c0 48 -12.6699 85.999 -38.0029 113.999s-60 48.333 -104 61c18 6 34.833 13.5 50.5 22.5s29.334 20 41.001 33s20.834 28.167 27.501 45.5s10 37 10 59c0 22.667 -4.16699 44.5 -12.5 65.5s-20.833 39.167 -37.5 54.5s-37.667 27.666 -63 36.999s-55 14 -89 14
c-40.667 0 -76.5 -5.66699 -107.5 -17s-59.5 -26.333 -85.5 -45l9 -63c25.333 19.333 52.833 35 82.5 47s62.5 18 98.5 18c45.333 0 79.333 -10.667 102 -32s34 -48.666 34 -81.999c0 -40 -14.667 -71.5 -44 -94.5s-73.333 -34.5 -132 -34.5h-46l9 -59h30
c68 0 117.667 -13.167 149 -39.5s47 -61.5 47 -105.5c0 -41.333 -14.167 -74.166 -42.5 -98.499s-66.5 -36.5 -114.5 -36.5c-36 0 -68 4.83301 -96 14.5s-56.667 24.5 -86 44.5l-11 -66c24 -15.333 52.333 -28 85 -38s67.334 -15 104.001 -15c34 0 65.167 4.83301 93.5 14.5
s52.5 23.167 72.5 40.5s35.667 38 47 62s17 50.333 17 79z" />
    <glyph glyph-name="four" unicode="4" horiz-adv-x="593" 
d="M560 160v55h-111v464h-81l-327 -472v-47h346v-160h62v160h111zM387 215h-273l273 391v-391z" />
    <glyph glyph-name="five" unicode="5" horiz-adv-x="534" 
d="M480 208c0 30.667 -5.16797 58.333 -15.501 83s-25 45.834 -44 63.501s-42.333 31.167 -70 40.5s-58.5 14 -92.5 14c-24.667 0 -46 -1.83301 -64 -5.5s-34.333 -8.16699 -49 -13.5l16 227h294l-10 59h-340l-24 -340l45 -11c17.333 7.33301 35.833 13.333 55.5 18
s43.167 7 70.5 7c52 0 91.833 -13 119.5 -39s41.5 -61.333 41.5 -106c0 -26.667 -4.66699 -49.834 -14 -69.501s-22 -36.167 -38 -49.5s-34.667 -23.333 -56 -30s-43.666 -10 -66.999 -10c-36 0 -68.167 5.16699 -96.5 15.5s-55.166 23.5 -80.499 39.5l-10 -64
c23.333 -14.667 50.166 -26.5 80.499 -35.5s64.833 -13.5 103.5 -13.5c34 0 65.833 5 95.5 15s55.5 24.333 77.5 43s39.5 41.667 52.5 69s19.5 58.333 19.5 93z" />
    <glyph glyph-name="six" unicode="6" horiz-adv-x="568" 
d="M131 346c12 76 43.667 136.669 95 182.002s116.666 79 195.999 101l-9 61c-52.667 -14.667 -100.667 -33.834 -144 -57.501s-80.333 -52.5 -111 -86.5s-54.5 -73.5 -71.5 -118.5s-25.5 -96.167 -25.5 -153.5c0 -44.667 6 -84.834 18 -120.501s28.5 -65.834 49.5 -90.501
s46 -43.5 75 -56.5s60.833 -19.5 95.5 -19.5c31.333 0 60.5 5.33301 87.5 16s50.333 25.5 70 44.5s35.167 41.833 46.5 68.5s17 56.334 17 89.001c0 30.667 -4.83301 58.5 -14.5 83.5s-23.5 46.333 -41.5 64s-39.667 31.167 -65 40.5s-53.666 14 -84.999 14
c-34 0 -66 -5.33301 -96 -16s-59 -25.667 -87 -45zM127 281.002c26 20.667 53.666 37.168 82.999 49.501s60.333 18.5 93 18.5c50 0 87.333 -13.5 112 -40.5s37 -62.5 37 -106.5c0 -48 -13.833 -86.167 -41.5 -114.5s-64.5 -42.5 -110.5 -42.5c-26 0 -49.5 5.66699 -70.5 17
s-39.167 27.166 -54.5 47.499s-27.166 44.833 -35.499 73.5s-12.5 60 -12.5 94v4z" />
    <glyph glyph-name="seven" unicode="7" horiz-adv-x="532" 
d="M478 626v50h-432l9 -60h348l-269 -608l64 -15z" />
    <glyph glyph-name="eight" unicode="8" horiz-adv-x="571" 
d="M312 376c-30.667 11.333 -56.333 22.002 -77 32.002s-37.334 20.5 -50.001 31.5s-21.667 23 -27 36s-8 27.833 -8 44.5c0 14.667 3 28.667 9 42s14.667 25.166 26 35.499s25.666 18.666 42.999 24.999s37.333 9.5 60 9.5c42.667 0 76.334 -10.5 101.001 -31.5
s37 -47.833 37 -80.5c0 -29.333 -10.167 -56.333 -30.5 -81s-48.166 -45.667 -83.499 -63zM261.001 334.002c35.333 -12.667 64.998 -24.666 88.998 -35.999s43.167 -23 57.5 -35s24.5 -25.333 30.5 -40s9 -31.334 9 -50.001c0 -20 -4.16699 -37.833 -12.5 -53.5
s-19.666 -29.167 -33.999 -40.5s-31.166 -20 -50.499 -26s-40 -9 -62 -9c-48 0 -87.333 11.667 -118 35s-46 55 -46 95c0 34.667 12.333 65.5 37 92.5s58 49.5 100 67.5zM201.999 357.003c-44 -21.333 -79.1689 -47.3379 -105.502 -78.0049s-39.5 -67 -39.5 -109
c0 -25.333 5.16699 -49.166 15.5 -71.499s25.333 -41.666 45 -57.999s43.667 -29.333 72 -39s60.5 -14.5 96.5 -14.5c33.333 0 64 4.66699 92 14s52 22.166 72 38.499s35.667 35.833 47 58.5s17 47.334 17 74.001c0 46.667 -12.667 83.834 -38 111.501
s-60.333 51.167 -105 70.5c16.667 9.33301 32.334 19.833 47.001 31.5s27.5 24.334 38.5 38.001s19.667 28.834 26 45.501s9.5 34.667 9.5 54c0 23.333 -4.83301 45 -14.5 65s-23.167 37.5 -40.5 52.5s-38.5 26.833 -63.5 35.5s-52.833 13 -83.5 13
s-58.667 -4.33301 -84 -13s-47.166 -20.667 -65.499 -36s-32.5 -33.333 -42.5 -54s-15 -43 -15 -67c0 -41.333 11 -74.5 33 -99.5s50.667 -45.833 86 -62.5z" />
    <glyph glyph-name="nine" unicode="9" horiz-adv-x="568" 
d="M435 320c-13.333 -74.667 -46.3281 -134.332 -98.9951 -178.999s-119.334 -76 -200.001 -94l10 -61c54 13.333 103.333 31.833 148 55.5s82.667 52.667 114 87s55.666 74.166 72.999 119.499s26 96.666 26 153.999c0 44.667 -5.83301 84.834 -17.5 120.501
s-27.834 65.834 -48.501 90.501s-45.667 43.5 -75 56.5s-61.333 19.5 -96 19.5c-33.333 0 -63.5 -5.66699 -90.5 -17s-50.167 -26.833 -69.5 -46.5s-34.333 -43 -45 -70s-16 -56.167 -16 -87.5c0 -32 4.83301 -60.833 14.5 -86.5s23.5 -47.5 41.5 -65.5
s39.667 -31.833 65 -41.5s53.666 -14.5 84.999 -14.5c34 0 65.667 5.16699 95 15.5s57.666 25.166 84.999 44.499zM442.005 385.002c-26 -20.667 -53.8291 -36.832 -83.4961 -48.499s-60.5 -17.5 -92.5 -17.5c-50 0 -87.5 13.833 -112.5 41.5s-37.5 64.5 -37.5 110.5
c0 48 13.667 86.667 41 116s64.666 44 111.999 44c25.333 0 48.666 -5.5 69.999 -16.5s39.666 -26.667 54.999 -47s27.166 -44.833 35.499 -73.5s12.5 -60.334 12.5 -95.001v-14z" />
    <glyph glyph-name="colon" unicode=":" horiz-adv-x="227" 
d="M153 376v97h-78v-97h78zM153 0v98h-78v-98h78z" />
    <glyph glyph-name="semicolon" unicode=";" horiz-adv-x="227" 
d="M159 376v97h-78v-97h78zM159 98h-80l-52 -222l36 -9z" />
    <glyph glyph-name="less" unicode="&#x3c;" horiz-adv-x="570" 
d="M496 89v65l-370 185l370 184v64l-438 -223v-52z" />
    <glyph glyph-name="equal" unicode="=" horiz-adv-x="604" 
d="M527 418v60h-450v-60h450zM527 198v60h-450v-60h450z" />
    <glyph glyph-name="greater" unicode="&#x3e;" horiz-adv-x="570" 
d="M512 312v52l-438 223v-65l370 -185l-370 -184v-64z" />
    <glyph glyph-name="question" unicode="?" horiz-adv-x="498" 
d="M442 533c0 26 -4.83105 49.501 -14.498 70.501s-23.334 38.833 -41.001 53.5s-38.5 26 -62.5 34s-50.333 12 -79 12c-38.667 0 -74.667 -6.33301 -108 -19s-63.333 -29 -90 -49l9 -67c28 22 57.167 39.667 87.5 53s63.166 20 98.499 20
c39.333 0 70.833 -9.66699 94.5 -29s35.5 -46.666 35.5 -81.999c0 -16.667 -2.5 -31.834 -7.5 -45.501s-13.333 -26.834 -25 -39.501s-27.167 -25.167 -46.5 -37.5s-43 -25.5 -71 -39.5l-28 -12l12 -166l44 10l9 121c28 14.667 53.333 29 76 43s42 29.167 58 45.5
s28.167 34.5 36.5 54.5s12.5 43 12.5 69zM267.002 0.000976562v98h-78v-98h78z" />
    <glyph glyph-name="at" unicode="@" horiz-adv-x="841" 
d="M489 196c-26.667 -32.667 -49.6699 -56.499 -69.0029 -71.499s-38 -22.5 -56 -22.5c-17.333 0 -31.166 7 -41.499 21s-15.5 35.667 -15.5 65c0 31.333 4.16699 59.5 12.5 84.5s19.333 46.167 33 63.5s29.334 30.666 47.001 39.999s35.834 14 54.501 14
c12.667 0 23.667 -1.16699 33 -3.5s19.333 -5.83301 30 -10.5zM487.997 139.001c4.66699 -28 17.3301 -49.4961 37.9971 -64.4961s46.667 -22.5 78 -22.5c24.667 0 47.834 5.83301 69.501 17.5s40.5 28.667 56.5 51s28.667 49.5 38 81.5s14 68.667 14 110
c0 48 -7.16699 91.167 -21.5 129.5s-35 71.166 -62 98.499s-60.167 48.333 -99.5 63s-83.666 22 -132.999 22c-58 0 -112 -11.167 -162 -33.5s-93.333 -53.333 -130 -93s-65.5 -86.5 -86.5 -140.5s-31.5 -112.333 -31.5 -175c0 -52 7.33301 -98 22 -138s36 -73.667 64 -101
s61.833 -48.166 101.5 -62.499s84.5 -21.5 134.5 -21.5c45.333 0 87.166 4.5 125.499 13.5s71.5 20.5 99.5 34.5l-5 29c-30 -15.333 -63 -27.166 -99 -35.499s-75 -12.5 -117 -12.5c-43.333 0 -82.833 6 -118.5 18s-66.167 30.333 -91.5 55s-45 55.334 -59 92.001
s-21 80 -21 130c0 60.667 9.66699 116.167 29 166.5s45.833 93.666 79.5 129.999s73 64.5 118 84.5s93.167 30 144.5 30c43.333 0 82.666 -6.33301 117.999 -19s65.333 -31 90 -55s43.667 -53.667 57 -89s20 -75.666 20 -120.999c0 -36.667 -3.66699 -68.834 -11 -96.501
s-17.333 -50.834 -30 -69.501s-27.167 -32.834 -43.5 -42.501s-33.5 -14.5 -51.5 -14.5c-23.333 0 -40.666 6.5 -51.999 19.5s-17 29.167 -17 48.5c0 9.33301 0.333008 18.666 1 27.999s1.66699 16.666 3 21.999l32 205c-18 7.33301 -37.167 13.666 -57.5 18.999
s-41.166 8 -62.499 8c-27.333 0 -53.666 -6.16699 -78.999 -18.5s-47.666 -29.833 -66.999 -52.5s-34.833 -49.5 -46.5 -80.5s-17.5 -65.5 -17.5 -103.5c0 -21.333 2.66699 -40.166 8 -56.499s12.666 -30 21.999 -41s20.166 -19.333 32.499 -25s25.5 -8.5 39.5 -8.5
c24.667 0 47.334 7.16699 68.001 21.5s43.667 36.166 69 65.499z" />
    <glyph glyph-name="A" unicode="A" horiz-adv-x="691" 
d="M652 8l-270 686h-71l-272 -694h70l85 223h302l89 -230zM473 284h-254l126 329z" />
    <glyph glyph-name="B" unicode="B" horiz-adv-x="547" 
d="M496 199c0 46 -12.333 82.667 -37 110s-57.667 46.666 -99 57.999c32 13.333 57.5 32.5 76.5 57.5s28.5 56.167 28.5 93.5c0 52 -17.667 93.667 -53 125s-88.666 47 -159.999 47h-160v-690h159c36.667 0 70.167 4.16699 100.5 12.5s56.166 20.833 77.499 37.5
s37.833 37.334 49.5 62.001s17.5 53.667 17.5 87zM397 515c0 -36 -12.5 -65.833 -37.5 -89.5s-62.167 -35.5 -111.5 -35.5h-88v240h90c50 0 87 -10.167 111 -30.5s36 -48.5 36 -84.5zM428 195c0 -43.333 -15.332 -76.668 -45.999 -100.001s-72.334 -35 -125.001 -35h-97v273
h93c54 0 96.667 -11.167 128 -33.5s47 -57.166 47 -104.499z" />
    <glyph glyph-name="C" unicode="C" horiz-adv-x="648" 
d="M584 56l-10 65.998c-28 -21.333 -58.5 -38.666 -91.5 -51.999s-68.167 -20 -105.5 -20s-71.166 7.16699 -101.499 21.5s-56.166 34.5 -77.499 60.5s-37.666 57.167 -48.999 93.5s-17 76.5 -17 120.5s5.66699 84 17 120s27.666 67 48.999 93s47.166 46.167 77.499 60.5
s64.5 21.5 102.5 21.5c35.333 0 68 -6.33301 98 -19s58.667 -28.667 86 -48l11 70c-26 18 -55 32.333 -87 43s-67.667 16 -107 16c-47.333 0 -90.5 -8.83301 -129.5 -26.5s-72.5 -42.167 -100.5 -73.5s-49.667 -69.166 -65 -113.499s-23 -92.833 -23 -145.5
c0 -53.333 7.5 -101.833 22.5 -145.5s36.333 -81.167 64 -112.5s60.667 -55.666 99 -72.999s80.833 -26 127.5 -26c41.333 0 80.166 6.66699 116.499 20s67.5 29.666 93.5 48.999z" />
    <glyph glyph-name="D" unicode="D" horiz-adv-x="701" 
d="M639 346c0 51.333 -8 98.167 -24 140.5s-39.167 78.5 -69.5 108.5s-67.833 53.333 -112.5 70s-95.667 25 -153 25h-188v-690h185c55.333 0 105.333 8 150 24s82.667 39 114 69s55.5 66.333 72.5 109s25.5 90.667 25.5 144zM568 345.001
c0 -47.333 -6.66602 -88.666 -19.999 -123.999s-32.5 -64.833 -57.5 -88.5s-55.167 -41.334 -90.5 -53.001s-75 -17.5 -119 -17.5h-120v566h120c42.667 0 81.667 -6 117 -18s65.666 -29.833 90.999 -53.5s44.833 -53.167 58.5 -88.5s20.5 -76.333 20.5 -123z" />
    <glyph glyph-name="E" unicode="E" horiz-adv-x="504" 
d="M462 0v62h-301v268h240l-10 62h-230v236h291v62h-360v-690h370z" />
    <glyph glyph-name="F" unicode="F" horiz-adv-x="477" 
d="M438 628v62h-346v-690h69v319h232l-10 62h-222v247h277z" />
    <glyph glyph-name="G" unicode="G" horiz-adv-x="694" 
d="M612 57v305.003h-244l10 -62h166v-207c-23.333 -14 -47.333 -24.667 -72 -32s-53.334 -11 -86.001 -11c-40.667 0 -76.667 7 -108 21s-57.833 33.833 -79.5 59.5s-38.167 56.667 -49.5 93s-17 76.833 -17 121.5s5.66699 85.167 17 121.5s27.5 67.5 48.5 93.5
s46.667 46 77 60s64.833 21 103.5 21c40 0 75.833 -6.33301 107.5 -19s60.167 -29.334 85.5 -50.001l12 71c-26.667 19.333 -56.667 34.166 -90 44.499s-71.333 15.5 -114 15.5c-48 0 -91.667 -8.83301 -131 -26.5s-72.833 -42.167 -100.5 -73.5s-49 -69.166 -64 -113.499
s-22.5 -92.833 -22.5 -145.5s7.33301 -100.834 22 -144.501s35.834 -81.334 63.501 -113.001s61.5 -56.167 101.5 -73.5s85.667 -26 137 -26c44.667 0 85.667 6.33301 123 19s72 29.667 104 51z" />
    <glyph glyph-name="H" unicode="H" horiz-adv-x="705" 
d="M613 0v690h-69v-298h-383v298h-69v-690h69v330h383v-330h69z" />
    <glyph glyph-name="I" unicode="I" horiz-adv-x="268" 
d="M168 0v690h-69v-690h69z" />
    <glyph glyph-name="J" unicode="J" horiz-adv-x="364" 
d="M276 168l0.000976562 522h-69v-521c0 -39.333 -9.5 -68.333 -28.5 -87s-45.5 -28 -79.5 -28c-13.333 0 -26 0.833008 -38 2.5s-23.333 4.16699 -34 7.5l10 -64c8.66699 -1.33301 18.167 -2.66602 28.5 -3.99902s21.166 -2 32.499 -2c52.667 0 95.5 14.167 128.5 42.5
s49.5 72.166 49.5 131.499z" />
    <glyph glyph-name="K" unicode="K" horiz-adv-x="606" 
d="M589 9l-351 360l332 321h-86l-323 -314v314h-69v-690h69v356l354 -363z" />
    <glyph glyph-name="L" unicode="L" horiz-adv-x="466" 
d="M437 0l-10 62h-266v628h-69v-690h345z" />
    <glyph glyph-name="M" unicode="M" horiz-adv-x="907" 
d="M831 0l-55 690h-84l-238 -602l-237 602h-85l-55 -690h64l45 589l240 -593h54l239 593l45 -589h67z" />
    <glyph glyph-name="N" unicode="N" horiz-adv-x="705" 
d="M613 0v690h-65v-563l-391 563h-65v-690h65v581l403 -581h53z" />
    <glyph glyph-name="O" unicode="O" horiz-adv-x="745" 
d="M684 346c0 52.667 -7.5 100.832 -22.5 144.499s-36.167 81.334 -63.5 113.001s-60 56.167 -98 73.5s-80.333 26 -127 26c-46 0 -88.167 -8.83301 -126.5 -26.5s-71.166 -42.167 -98.499 -73.5s-48.666 -69.166 -63.999 -113.499s-23 -92.833 -23 -145.5
s7.5 -100.834 22.5 -144.501s36.167 -81.334 63.5 -113.001s60 -56.167 98 -73.5s80 -26 126 -26c46.667 0 89.167 8.83301 127.5 26.5s71.166 42.334 98.499 74.001s48.666 69.5 63.999 113.5s23 92.333 23 145zM613 343.998c0 -44 -5.66699 -84 -17 -120
s-27.5 -67 -48.5 -93s-46.333 -46.167 -76 -60.5s-62.5 -21.5 -98.5 -21.5s-68.833 7.16699 -98.5 21.5s-55 34.5 -76 60.5s-37.333 57.333 -49 94s-17.5 77 -17.5 121s5.66699 84 17 120s27.5 67 48.5 93s46.333 46.167 76 60.5s62.5 21.5 98.5 21.5
s68.833 -7.16699 98.5 -21.5s55 -34.5 76 -60.5s37.333 -57.333 49 -94s17.5 -77 17.5 -121z" />
    <glyph glyph-name="P" unicode="P" horiz-adv-x="533" 
d="M489 496c0 62.667 -20.167 110.667 -60.5 144s-95.5 50 -165.5 50h-171v-690h69v291h86c35.333 0 67.833 4.33301 97.5 13s55.167 21.5 76.5 38.5s38 38.333 50 64s18 55.5 18 89.5zM419 494c0 -48 -15 -83.666 -45 -106.999s-71.333 -35 -124 -35h-89v277h97
c52.667 0 92.667 -11.333 120 -34s41 -56.334 41 -101.001z" />
    <glyph glyph-name="Q" unicode="Q" horiz-adv-x="747" 
d="M684 346c0 52.667 -7.50195 100.829 -22.502 144.496s-36.167 81.334 -63.5 113.001s-60 56.167 -98 73.5s-80.333 26 -127 26c-46 0 -88.167 -8.83301 -126.5 -26.5s-71.166 -42.167 -98.499 -73.5s-48.666 -69.166 -63.999 -113.499s-23 -92.833 -23 -145.5
c0 -92.667 19.833 -167 59.5 -223s95.167 -97.667 166.5 -125l363 -141l13 65l-217 81c36 8 68.5 21.833 97.5 41.5s54 44.334 75 74.001s37.167 63.834 48.5 102.501s17 81 17 127zM612.998 343.995c0 -44.667 -5.66699 -85.333 -17 -122s-27.5 -68 -48.5 -94
s-46.167 -46.167 -75.5 -60.5s-62.333 -21.5 -99 -21.5c-36 0 -68.833 7.16699 -98.5 21.5s-55 34.666 -76 60.999s-37.333 57.833 -49 94.5s-17.5 77.334 -17.5 122.001s5.66699 85.167 17 121.5s27.5 67.5 48.5 93.5s46.167 46 75.5 60s62.333 21 99 21
c36 0 68.833 -7.16699 98.5 -21.5s55 -34.5 76 -60.5s37.333 -57.167 49 -93.5s17.5 -76.833 17.5 -121.5z" />
    <glyph glyph-name="R" unicode="R" horiz-adv-x="567" 
d="M419 498c0 -44 -14.833 -77.333 -44.5 -100s-70.167 -34 -121.5 -34h-92v265h104c50 0 88.167 -11.333 114.5 -34s39.5 -55 39.5 -97zM325 314c24 4.66699 46.001 12.167 66.001 22.5s37.167 23.333 51.5 39s25.666 34 33.999 55s12.5 44.833 12.5 71.5
c0 60.667 -19.833 107.167 -59.5 139.5s-93.5 48.5 -161.5 48.5h-176v-690h69v305h89l224 -312l70 15z" />
    <glyph glyph-name="S" unicode="S" horiz-adv-x="512" 
d="M458 182c0 25.333 -3.33203 47.6631 -9.99902 66.9961s-17.334 37 -32.001 53s-33.334 31 -56.001 45s-50 28 -82 42c-26.667 12 -48.834 23 -66.501 33s-31.834 20.333 -42.501 31s-18.334 22 -23.001 34s-7 26 -7 42c0 30 10.833 55.5 32.5 76.5
s52.834 31.5 93.501 31.5c29.333 0 56 -4 80 -12s45.667 -18.667 65 -32l10 69c-18 10.667 -39.667 19.334 -65 26.001s-54.333 10 -87 10c-28.667 0 -55 -4.16699 -79 -12.5s-44.833 -20 -62.5 -35s-31.5 -33.167 -41.5 -54.5s-15 -45 -15 -71
c0 -24.667 3.16699 -46.167 9.5 -64.5s16.666 -35.166 30.999 -50.499s32.833 -29.666 55.5 -42.999s50.667 -27.333 84 -42c26 -11.333 48 -22.333 66 -33s32.333 -21.667 43 -33s18.334 -23.666 23.001 -36.999s7 -28.333 7 -45c0 -39.333 -13.5 -69.833 -40.5 -91.5
s-60.833 -32.5 -101.5 -32.5c-35.333 0 -68.166 5.33301 -98.499 16s-56.166 22.667 -77.499 36l-10 -70c22 -12 48.333 -22.167 79 -30.5s65.334 -12.5 104.001 -12.5c30 0 58.167 4.33301 84.5 13s49 21.167 68 37.5s34 36.333 45 60s16.5 50.167 16.5 79.5z" />
    <glyph glyph-name="T" unicode="T" horiz-adv-x="581" 
d="M553 628l-10 62h-508v-62h224v-628h68v628h226z" />
    <glyph glyph-name="U" unicode="U" horiz-adv-x="681" 
d="M600 263l0.000976562 426.998h-69v-427c0 -66 -16.167 -117.833 -48.5 -155.5s-79.833 -56.5 -142.5 -56.5c-32 0 -59.833 5.16699 -83.5 15.5s-43.334 25 -59.001 44s-27.5 41.833 -35.5 68.5s-12 56 -12 88v423h-69v-432c0 -40 5.83301 -76.667 17.5 -110
s28.5 -61.666 50.5 -84.999s49 -41.5 81 -54.5s68.333 -19.5 109 -19.5s77 6.5 109 19.5s59.333 31.333 82 55s40 52.334 52 86.001s18 71.5 18 113.5z" />
    <glyph glyph-name="V" unicode="V" horiz-adv-x="680" 
d="M641 690h-72l-229 -605l-233 612l-68 -15l269 -686h62z" />
    <glyph glyph-name="W" unicode="W" horiz-adv-x="1026" 
d="M980 690h-69l-170 -584l-192 584h-71l-190 -584l-172 591l-68 -15l207 -683h58l199 596l200 -596h60z" />
    <glyph glyph-name="X" unicode="X" horiz-adv-x="635" 
d="M279 360l-243 -360h75l15 23l38 57.5l49.5 74.5l49.5 74.5l38 57l15 22.5l16 -23.5l39.5 -58.5l51 -75.5l51 -75.5l39 -58.5l15.5 -23.5l68 15l-241 353l221 328h-75l-183 -277l-190 282l-68 -14z" />
    <glyph glyph-name="Y" unicode="Y" horiz-adv-x="628" 
d="M595 690h-75l-206 -343l-212 350l-68 -14l244 -397v-286h69v287z" />
    <glyph glyph-name="Z" unicode="Z" horiz-adv-x="608" 
d="M555 0l-9 59h-405l407 582v49h-471l9 -59h379l-408 -582v-49h498z" />
    <glyph glyph-name="bracketleft" unicode="[" horiz-adv-x="407" 
d="M351 -105l-8 52h-182v691h186v52h-250v-795h254z" />
    <glyph glyph-name="backslash" unicode="\" horiz-adv-x="517" 
d="M552 -112l-472 808l-59 -12l472 -809z" />
    <glyph glyph-name="bracketright" unicode="]" horiz-adv-x="407" 
d="M309 -105v795h-254l9 -52h182v-691h-186v-52h249z" />
    <glyph glyph-name="asciicircum" unicode="^" horiz-adv-x="456" 
d="M358 555l-99 140h-61l-105 -145h42l92 82l95 -85z" />
    <glyph glyph-name="underscore" unicode="_" horiz-adv-x="466" 
d="M465 -105v54h-464v-54h464z" />
    <glyph glyph-name="grave" unicode="`" horiz-adv-x="456" 
d="M312 550l-96 153l-86 -19l136 -134h46z" />
    <glyph glyph-name="a" unicode="a" horiz-adv-x="489" 
d="M416 0l0.000976562 336.999c0 97.333 -53 146 -159 146c-34 0 -64.833 -3.83301 -92.5 -11.5s-55.5 -17.5 -83.5 -29.5l9 -59c26 12.667 52.667 22.834 80 30.501s55 11.5 83 11.5c30 0 53.833 -7.16699 71.5 -21.5s26.5 -37.5 26.5 -69.5v-31
c-53.333 -5.33301 -99.166 -12.666 -137.499 -21.999s-69.833 -21.333 -94.5 -36s-42.834 -32.334 -54.501 -53.001s-17.5 -45 -17.5 -73c0 -42 13.167 -74 39.5 -96s60.166 -33 101.499 -33c34 0 64.833 7 92.5 21s52.5 31.333 74.5 52l11 -63h50zM351.001 116.999
c-23.333 -21.333 -48.334 -38.501 -75.001 -51.501s-52.667 -19.5 -78 -19.5s-45.833 6.5 -61.5 19.5s-23.5 32.167 -23.5 57.5c0 16 3.66699 30.833 11 44.5s20 25.834 38 36.501s42.333 20 73 28s69.334 14.333 116.001 19v-134z" />
    <glyph glyph-name="b" unicode="b" horiz-adv-x="528" 
d="M479 250c0 39.333 -5.00195 73.6709 -15.002 103.004s-23.667 53.666 -41 72.999s-37.5 33.666 -60.5 42.999s-47.5 14 -73.5 14c-33.333 0 -61.666 -7.33301 -84.999 -22s-43.666 -31.334 -60.999 -50.001v307l-66 -12v-681c26.667 -9.33301 53.667 -16.833 81 -22.5
s57.666 -8.5 90.999 -8.5c32.667 0 63 5.16699 91 15.5s52.333 26.166 73 47.499s36.834 48 48.501 80s17.5 69.667 17.5 113zM411.998 247.005c0 -34 -3.99902 -63.333 -11.999 -88s-19 -45 -33 -61s-30.833 -27.833 -50.5 -35.5s-41.167 -11.5 -64.5 -11.5
c-24 0 -44.333 1.66699 -61 5s-32.667 8 -48 14v272c21.333 24.667 43.166 44.5 65.499 59.5s46.833 22.5 73.5 22.5c38 0 69.167 -15 93.5 -45s36.5 -74 36.5 -132z" />
    <glyph glyph-name="c" unicode="c" horiz-adv-x="466" 
d="M422 44l-9.00195 59.9961c-24.667 -21.333 -48.5 -36 -71.5 -44s-47.167 -12 -72.5 -12c-48 0 -85.667 16.833 -113 50.5s-41 79.834 -41 138.501s13.333 104.834 40 138.501s62.667 50.5 108 50.5c27.333 0 52.5 -4.66699 75.5 -14s45.833 -23.666 68.5 -42.999l11 66
c-19.333 14 -41.833 25.5 -67.5 34.5s-54.5 13.5 -86.5 13.5c-30 0 -58.167 -5.33301 -84.5 -16s-49.166 -26.5 -68.499 -47.5s-34.666 -46.833 -45.999 -77.5s-17 -66 -17 -106c0 -39.333 5.5 -74.166 16.5 -104.499s26 -56 45 -77s41.667 -37 68 -48
s54.5 -16.5 84.5 -16.5c32 0 60.833 4.5 86.5 13.5s50.167 22.5 73.5 40.5z" />
    <glyph glyph-name="d" unicode="d" horiz-adv-x="531" 
d="M454 0l0.000976562 718l-66 -12v-250c-16.667 7.33301 -35.334 13.166 -56.001 17.499s-43 6.5 -67 6.5c-28.667 0 -56 -5.33301 -82 -16s-49 -26.667 -69 -48s-35.833 -48 -47.5 -80s-17.5 -69.667 -17.5 -113c0 -40 5 -74.5 15 -103.5s23.833 -53.167 41.5 -72.5
s38 -33.666 61 -42.999s47.5 -14 73.5 -14c34.667 0 64.167 7.83301 88.5 23.5s45.5 34.167 63.5 55.5l12 -69h50zM388.001 134c-21.333 -25.333 -43.335 -45.833 -66.002 -61.5s-48 -23.5 -76 -23.5c-38 0 -69.167 15 -93.5 45s-36.5 74 -36.5 132
c0 33.333 3.83301 62.333 11.5 87s18.334 45.167 32.001 61.5s29.667 28.5 48 36.5s38.166 12 59.499 12c24.667 0 46.334 -2.33301 65.001 -7s37.334 -11.667 56.001 -21v-261z" />
    <glyph glyph-name="e" unicode="e" horiz-adv-x="491" 
d="M443 246c0 32.667 -3.83398 63.3301 -11.501 91.9971s-19.5 53.834 -35.5 75.501s-36 38.667 -60 51s-52 18.5 -84 18.5c-29.333 0 -56.333 -5.66699 -81 -17s-46.167 -27.666 -64.5 -48.999s-32.666 -47.166 -42.999 -77.499s-15.5 -64.5 -15.5 -102.5
c0 -40.667 5.33301 -76.5 16 -107.5s25.334 -56.833 44.001 -77.5s41 -36.167 67 -46.5s54.667 -15.5 86 -15.5c36.667 0 70.167 6.16699 100.5 18.5s57.166 28.5 80.499 48.5l-10 60c-24.667 -21.333 -50.667 -38.333 -78 -51s-57 -19 -89 -19
c-48 0 -84.833 16.167 -110.5 48.5s-39.167 77.833 -40.5 136.5h329v14zM374.999 283.996h-257.999c6.66699 46 21.5 81.833 44.5 107.5s53.167 38.5 90.5 38.5c38 0 67.167 -13.667 87.5 -41s32.166 -62.333 35.499 -105z" />
    <glyph glyph-name="f" unicode="f" horiz-adv-x="298" 
d="M281 652l-9.99805 61c-4.66699 0.666992 -9.33398 1.16699 -14.001 1.5s-11.334 0.5 -20.001 0.5c-40.667 0 -73 -10.167 -97 -30.5s-36 -52.5 -36 -96.5v-115h-72v-56h72v-417h65v417h106l-9 56h-97v110c0 26 6.33301 44.5 19 55.5s30.334 16.5 53.001 16.5
c17.333 0 30.666 -1 39.999 -3z" />
    <glyph glyph-name="g" unicode="g" horiz-adv-x="502" 
d="M184 47c8.66699 -2 17.333 -3.83203 26 -5.49902s19 -3.83398 31 -6.50098l46 -8c42 -8 71.5 -17.5 88.5 -28.5s25.5 -25.833 25.5 -44.5c0 -23.333 -14.333 -43.166 -43 -59.499s-67 -24.5 -115 -24.5c-46.667 0 -84.167 6.66699 -112.5 20s-42.5 32.333 -42.5 57
c0 37.333 32 70.666 96 99.999zM344.999 322.001c0 -32 -10 -58.668 -30 -80.001s-47.333 -32 -82 -32s-62 10.667 -82 32s-30 47.333 -30 78c0 32.667 9.83301 59.834 29.5 81.501s46.5 32.5 80.5 32.5c16.667 0 32 -2.83301 46 -8.5s26 -13.5 36 -23.5
s17.833 -21.833 23.5 -35.5s8.5 -28.5 8.5 -44.5zM350.999 443c-32.667 26.667 -72.6631 39.9971 -119.996 39.9971c-23.333 0 -45.5 -3.66699 -66.5 -11s-39.5 -18 -55.5 -32s-28.833 -31 -38.5 -51s-14.5 -42.333 -14.5 -67c0 -32.667 8 -61 24 -85s37 -42.667 63 -56
c-15.333 -9.33301 -27 -19 -35 -29s-12 -21.333 -12 -34c0 -19.333 11.667 -35.666 35 -48.999c-72 -37.333 -108 -79.333 -108 -126c0 -20.667 5.5 -38.667 16.5 -54s26.167 -28.166 45.5 -38.499s42.166 -18 68.499 -23s54.833 -7.5 85.5 -7.5s59.5 3.16699 86.5 9.5
s50.833 15.5 71.5 27.5s37 26.833 49 44.5s18 37.834 18 60.501c0 35.333 -13.833 61.833 -41.5 79.5s-67.834 31.167 -120.501 40.5l-35 7c-22 4 -39.833 7.5 -53.5 10.5s-24.334 6 -32.001 9s-13 6.33301 -16 10s-4.5 7.83398 -4.5 12.501
c0 11.333 10.333 22.666 31 33.999c6.66699 -1.33301 13.334 -2.33301 20.001 -3s13.667 -1 21 -1c23.333 0 45.666 3.66699 66.999 11s40.166 18 56.499 32s29.333 30.833 39 50.5s14.5 42.167 14.5 67.5c0 30.667 -8.33301 58.667 -25 84l95 10l-11 65z" />
    <glyph glyph-name="h" unicode="h" 
d="M450 0v339.001c0 45.333 -11.667 80.666 -35 105.999s-58.666 38 -105.999 38c-32 0 -61.5 -7.5 -88.5 -22.5s-52.833 -33.167 -77.5 -54.5v312l-66 -12v-706h66v342c26 25.333 51.667 45.333 77 60s50.666 22 75.999 22c30 0 52.167 -8.66699 66.5 -26
s21.5 -41.333 21.5 -72v-326h66z" />
    <glyph glyph-name="i" unicode="i" horiz-adv-x="233" 
d="M164 634c0 13.333 -4.5 24.666 -13.5 33.999s-20.167 14 -33.5 14s-24.666 -4.66699 -33.999 -14s-14 -20.666 -14 -33.999s4.66699 -24.666 14 -33.999s20.666 -14 33.999 -14s24.5 4.66699 33.5 14s13.5 20.666 13.5 33.999zM149 0v473h-65v-473h65z" />
    <glyph glyph-name="j" unicode="j" horiz-adv-x="233" 
d="M164 634c0 13.333 -4.5 24.666 -13.5 33.999s-20.167 14 -33.5 14s-24.666 -4.66699 -33.999 -14s-14 -20.666 -14 -33.999s4.66699 -24.666 14 -33.999s20.666 -14 33.999 -14s24.5 4.66699 33.5 14s13.5 20.666 13.5 33.999zM149 -73v545.999h-65v-539
c0 -20 -4.5 -34.333 -13.5 -43s-21.5 -13 -37.5 -13c-15.333 0 -28.333 1.33301 -39 4l10 -59c4 -1.33301 9.66699 -2.16602 17 -2.49902s14.333 -0.5 21 -0.5c31.333 0 57 8.33301 77 25s30 44 30 82z" />
    <glyph glyph-name="k" unicode="k" horiz-adv-x="466" 
d="M450 6l-237 256l220 211h-83l-207 -203v448l-66 -12v-706h66v251l235 -258z" />
    <glyph glyph-name="l" unicode="l" horiz-adv-x="234" 
d="M149 0v718l-65 -12v-706h65z" />
    <glyph glyph-name="m" unicode="m" horiz-adv-x="819" 
d="M746 0v339.003c0 45.333 -11.167 80.666 -33.5 105.999s-57.166 38 -104.499 38c-32.667 0 -63 -7.83301 -91 -23.5s-55 -35.167 -81 -58.5c-8.66699 26 -23.334 46.167 -44.001 60.5s-49.334 21.5 -86.001 21.5c-32 0 -61.5 -7.33301 -88.5 -22
s-53.167 -33.334 -78.5 -56.001l-11 68h-51v-473h66v344c25.333 25.333 50.5 45 75.5 59s49.833 21 74.5 21c30.667 0 52.667 -8.66699 66 -26s20 -41.333 20 -72v-326h65v343c26 25.333 51.333 45.166 76 59.499s49.334 21.5 74.001 21.5c30.667 0 52.667 -8.66699 66 -26
s20 -41.333 20 -72v-326h66z" />
    <glyph glyph-name="n" unicode="n" 
d="M450 0v338c0 46 -11.667 81.667 -35 107s-58.666 38 -105.999 38c-32 0 -61.833 -7.5 -89.5 -22.5s-54.5 -34.167 -80.5 -57.5l-11 70h-51v-473h66v342c26 25.333 51.667 45.333 77 60s50.666 22 75.999 22c30 0 52.167 -8.66699 66.5 -26s21.5 -41.333 21.5 -72v-326h66
z" />
    <glyph glyph-name="o" unicode="o" 
d="M475 236c0 39.333 -5.49902 74.333 -16.499 105s-26 56.5 -45 77.5s-41.667 37 -68 48s-54.833 16.5 -85.5 16.5c-30 0 -57.833 -5.5 -83.5 -16.5s-48 -27 -67 -48s-34 -46.833 -45 -77.5s-16.5 -65.667 -16.5 -105s5.33301 -74.166 16 -104.499s25.5 -56 44.5 -77
s41.5 -37 67.5 -48s54 -16.5 84 -16.5s58.167 5.5 84.5 16.5s49.166 27 68.499 48s34.5 46.667 45.5 77s16.5 65.166 16.5 104.499zM407.001 236c0 -56 -12.5 -101.668 -37.5 -137.001s-61.5 -53 -109.5 -53c-23.333 0 -44 4.83301 -62 14.5s-33.167 23 -45.5 40
s-21.666 37 -27.999 60s-9.5 48.167 -9.5 75.5c0 28 3.16699 53.667 9.5 77s15.666 43.5 27.999 60.5s27.5 30.167 45.5 39.5s38.667 14 62 14c24 0 45 -4.83301 63 -14.5s33.333 -23 46 -40s22.167 -37.167 28.5 -60.5s9.5 -48.666 9.5 -75.999z" />
    <glyph glyph-name="p" unicode="p" horiz-adv-x="531" 
d="M482 250c0 39.333 -5 73.6689 -15 103.002s-23.667 53.666 -41 72.999s-37.5 33.666 -60.5 42.999s-47.5 14 -73.5 14c-34.667 0 -64.167 -7.66699 -88.5 -23s-45.833 -33.666 -64.5 -54.999l-11 68h-51v-656l66 11v189c17.333 -7.33301 36.333 -13 57 -17
s42.667 -6 66 -6c28.667 0 56 5.16699 82 15.5s49 26.166 69 47.499s35.833 48 47.5 80s17.5 69.667 17.5 113zM415 247.003c0 -33.333 -3.83105 -62.167 -11.498 -86.5s-18.334 -44.833 -32.001 -61.5s-29.667 -29 -48 -37s-38.166 -12 -59.499 -12
c-24.667 0 -46.334 2.33301 -65.001 7s-37.334 11.667 -56.001 21v261c21.333 26 43.333 46.667 66 62s48 23 76 23c38 0 69.167 -15 93.5 -45s36.5 -74 36.5 -132z" />
    <glyph glyph-name="q" unicode="q" horiz-adv-x="528" 
d="M451 -172l0.00195312 620.998c-26.667 8.66699 -53.667 16 -81 22s-57.666 9 -90.999 9c-32.667 0 -63 -5.33301 -91 -16s-52.333 -26.667 -73 -48s-36.834 -48 -48.501 -80s-17.5 -69.667 -17.5 -113c0 -40 5 -74.5 15 -103.5s23.667 -53.167 41 -72.5
s37.5 -33.666 60.5 -42.999s47.5 -14 73.5 -14c33.333 0 61.666 7.33301 84.999 22s43.666 31.334 60.999 50.001v-245zM385.002 131.998c-20.667 -24.667 -42.332 -44.667 -64.999 -60s-47.334 -23 -74.001 -23c-38 0 -69.167 15 -93.5 45s-36.5 74 -36.5 132
c0 67.333 14.833 117 44.5 149s68.167 48 115.5 48c24 0 44.333 -2 61 -6s32.667 -8.66699 48 -14v-271z" />
    <glyph glyph-name="r" unicode="r" horiz-adv-x="344" 
d="M320 421l-11 62.001c-19.333 -0.666992 -37.333 -4 -54 -10s-32 -14 -46 -24s-26.667 -21.333 -38 -34s-21.333 -25.667 -30 -39l-15 97h-49v-473h66v297c8 16 18 31.167 30 45.5s25.667 27.166 41 38.499s32 20.5 50 27.5s36.667 11.167 56 12.5z" />
    <glyph glyph-name="s" unicode="s" horiz-adv-x="438" 
d="M391 128c0 20.667 -3.33496 38.8291 -10.002 54.4961s-17 29.334 -31 41.001s-31.333 21.834 -52 30.501s-45 16.667 -73 24c-40 10.667 -67.667 21.834 -83 33.501s-23 27.167 -23 46.5s7.83301 35.333 23.5 48s39.834 19 72.501 19c23.333 0 46.833 -3.33301 70.5 -10
s46.167 -15.667 67.5 -27l11 63c-21.333 9.33301 -44.166 17 -68.499 23s-50.5 9 -78.5 9c-49.333 0 -88.5 -12 -117.5 -36s-43.5 -54.667 -43.5 -92c0 -19.333 2.83301 -36.166 8.5 -50.499s14.667 -27 27 -38s28 -20.5 47 -28.5s41.5 -15.333 67.5 -22
c23.333 -6 42.833 -12.167 58.5 -18.5s28.167 -13 37.5 -20s16 -14.833 20 -23.5s6 -19 6 -31c0 -24 -9.5 -42.667 -28.5 -56s-45.167 -20 -78.5 -20c-32 0 -62 5 -90 15s-53 22 -75 36l-11 -64c20.667 -11.333 46.167 -21.333 76.5 -30s61.5 -13 93.5 -13
c54.667 0 97.667 12 129 36s47 57.667 47 101z" />
    <glyph glyph-name="t" unicode="t" horiz-adv-x="330" 
d="M289 0l-10 55c-5.33301 -1.33301 -12.166 -2.5 -20.499 -3.5s-16.166 -1.5 -23.499 -1.5c-25.333 0 -43.333 5.5 -54 16.5s-16 28.5 -16 52.5v298h118l-9 56h-109v175l-65 -11v-164h-73v-56h73v-309c0 -43.333 11.167 -73.5 33.5 -90.5s52.166 -25.5 89.499 -25.5
c14 0 26.667 0.833008 38 2.5s20.666 3.5 27.999 5.5z" />
    <glyph glyph-name="u" unicode="u" 
d="M446 0l-0.000976562 472.999h-66v-342c-26 -25.333 -51.667 -45.166 -77 -59.499s-50.666 -21.5 -75.999 -21.5c-30 0 -52.167 8.5 -66.5 25.5s-21.5 40.833 -21.5 71.5v326h-66v-338c0 -45.333 11.5 -80.833 34.5 -106.5s58.5 -38.5 106.5 -38.5
c32 0 61.833 7.5 89.5 22.5s54.5 34.167 80.5 57.5l11 -70h51z" />
    <glyph glyph-name="v" unicode="v" horiz-adv-x="470" 
d="M440 473h-68l-136 -396l-140 402l-65 -12l172 -471h62z" />
    <glyph glyph-name="w" unicode="w" horiz-adv-x="730" 
d="M698 473h-66l-118 -385l-118 387h-58l-118 -387l-122 393l-64 -12l157 -472h55l120 388l119 -388h56z" />
    <glyph glyph-name="x" unicode="x" horiz-adv-x="470" 
d="M435 5l-165 240l156 228h-71l-120 -179l-125 187l-65 -13l155 -225l-165 -243h71l128 195l136 -202z" />
    <glyph glyph-name="y" unicode="y" horiz-adv-x="480" 
d="M450 473h-67.998l-140 -397l-147 403l-64 -12l179 -470l-22 -57c-9.33301 -23.333 -20.166 -39.666 -32.499 -48.999s-28.166 -14 -47.499 -14c-7.33301 0 -14.333 0.333008 -21 1s-12.667 1.66699 -18 3l9 -58c3.33301 -0.666992 7.16602 -1.33398 11.499 -2.00098
s9.16602 -1 14.499 -1c35.333 0 64.166 8.66699 86.499 26s42.166 49 59.499 95z" />
    <glyph glyph-name="z" unicode="z" horiz-adv-x="449" 
d="M407 0l-9 55h-281l282 367v51h-343l9 -55h258l-282 -367v-51h366z" />
    <glyph glyph-name="braceleft" unicode="{" horiz-adv-x="469" 
d="M414 -105l-9.00098 51.9961h-86c-30 0 -51 6.83301 -63 20.5s-18 32.5 -18 56.5c0 20.667 2.16699 43.5 6.5 68.5s6.5 48.5 6.5 70.5c0 20.667 -2.5 38.334 -7.5 53.001s-11.833 27 -20.5 37s-19.334 18 -32.001 24s-26.334 10.667 -41.001 14v2
c14.667 3.33301 28.334 8 41.001 14s23.334 14 32.001 24s15.5 22.333 20.5 37s7.5 32.334 7.5 53.001c0 22 -2.16699 45.333 -6.5 70s-6.5 47.334 -6.5 68.001c0 24.667 6.5 44 19.5 58s33.833 21 62.5 21h89v52h-91c-49.333 0 -85.5 -11.333 -108.5 -34
s-34.5 -55.334 -34.5 -98.001c0 -23.333 2 -46.166 6 -68.499s6 -45.5 6 -69.5c0 -19.333 -2.66699 -35.5 -8 -48.5s-12.666 -23.5 -21.999 -31.5s-20.333 -13.667 -33 -17s-26.667 -5 -42 -5h-38l8 -51h29c30.667 0 56 -7.5 76 -22.5s30 -41.833 30 -80.5
c0 -24.667 -2 -48.167 -6 -70.5s-6 -45.166 -6 -68.499c0 -42 11.5 -74.167 34.5 -96.5s59.167 -33.5 108.5 -33.5h96z" />
    <glyph glyph-name="bar" unicode="|" horiz-adv-x="267" 
d="M163 -179v902l-59 -10v-902z" />
    <glyph glyph-name="braceright" unicode="}" horiz-adv-x="469" 
d="M425 268l-7.00195 50.0039h-30c-15.333 0 -29.5 1.66699 -42.5 5s-24.167 9 -33.5 17s-16.666 18.667 -21.999 32s-8 29.666 -8 48.999c0 24 2.16699 47.333 6.5 70s6.5 45.667 6.5 69c0 42.667 -11.5 75 -34.5 97s-59.167 33 -108.5 33h-97l9 -52h86
c29.333 0 50.333 -6.66699 63 -20s19 -32.333 19 -57c0 -20.667 -2.33301 -43.5 -7 -68.5s-7 -48.5 -7 -70.5c0 -41.333 9.33301 -71.5 28 -90.5s43.334 -31.833 74.001 -38.5v-2c-30.667 -6.66699 -55.334 -19.334 -74.001 -38.001s-28 -48.667 -28 -90
c0 -21.333 2.33301 -44.5 7 -69.5s7 -47.833 7 -68.5c0 -24.667 -6.5 -43.834 -19.5 -57.501s-34.167 -20.5 -63.5 -20.5h-89v-52h92c49.333 0 85.5 11.333 108.5 34s34.5 55 34.5 97c0 23.333 -2.16699 46.166 -6.5 68.499s-6.5 45.5 -6.5 69.5
c0 39.333 9.83301 66.5 29.5 81.5s44.834 22.5 75.501 22.5h38z" />
    <glyph glyph-name="asciitilde" unicode="~" horiz-adv-x="408" 
d="M352 328l-44 10c-4.66699 -19.333 -10 -33 -16 -41s-12.667 -12 -20 -12c-8 0 -16.333 1.83301 -25 5.5s-22 10.167 -40 19.5c-15.333 8.66699 -28.333 15.167 -39 19.5s-22.667 6.5 -36 6.5c-40.667 0 -66 -34.333 -76 -103l45 -9c4 19.333 9 33 15 41s13 12 21 12
c7.33301 0 15.5 -2 24.5 -6s22.167 -10.667 39.5 -20c15.333 -8.66699 28.333 -15 39 -19s22.667 -6 36 -6c40.667 0 66 34 76 102z" />
    <glyph glyph-name="nonbreakingspace" unicode="&#xa0;" horiz-adv-x="113" 
 />
    <glyph glyph-name="exclamdown" unicode="&#xa1;" horiz-adv-x="268" 
d="M173 592v98h-78v-98h78zM174 0l-20 499l-40 -9l-20 -490h80z" />
    <glyph glyph-name="cent" unicode="&#xa2;" horiz-adv-x="489" 
d="M256 96l14.999 -0.000976562c32 0 61.167 4.33301 87.5 13s50.833 21.334 73.5 38.001l-8 56c-24.667 -19.333 -48.667 -33 -72 -41s-48 -12 -74 -12h-15l59 371c32.667 -7.33301 64.667 -23.333 96 -48l10 61c-27.333 20 -59.666 33.333 -96.999 40l16 100l-49 11
l-17 -106h-3c-31.333 0 -60.5 -5.5 -87.5 -16.5s-50.5 -27 -70.5 -48s-35.667 -46.5 -47 -76.5s-17 -64 -17 -102c0 -62.667 14.333 -113.5 43 -152.5s65 -65.167 109 -78.5l-17 -104l48 -11zM216.999 160.999c-30 12 -53.833 32.832 -71.5 62.499s-26.5 67.5 -26.5 113.5
c0 58.667 13.667 104.334 41 137.001s65 49.667 113 51z" />
    <glyph glyph-name="sterling" unicode="&#xa3;" horiz-adv-x="544" 
d="M159 362l-98.002 -0.000976562v-59h80l-80 -256v-47h433l-9 59h-355l76 244h211l-9 59h-184l42 133c14.667 46 32.334 79.667 53.001 101s49.667 32 87 32c15.333 0 28.833 -0.666992 40.5 -2s23.167 -3.66602 34.5 -6.99902l10 60
c-12.667 3.33301 -25.167 5.83301 -37.5 7.5s-26.166 2.5 -41.499 2.5c-54.667 0 -98 -14.5 -130 -43.5s-57.333 -73.167 -76 -132.5z" />
    <glyph glyph-name="currency" unicode="&#xa4;" horiz-adv-x="603" 
d="M122 402c-1.33301 -10.667 -2.33301 -21.332 -3 -31.999s-1 -21.667 -1 -33c0 -8.66699 0.166992 -17 0.5 -25s0.833008 -15.667 1.5 -23h-91l8 -53h90c6.66699 -38 17.667 -72.5 33 -103.5s34 -57.167 56 -78.5s47.167 -37.833 75.5 -49.5s59.166 -17.5 92.499 -17.5
c36 0 69.333 5.66699 100 17s58.334 25.666 83.001 42.999l-9 61c-28 -20 -55.167 -35.5 -81.5 -46.5s-56.166 -16.5 -89.499 -16.5c-50 0 -91.833 17 -125.5 51s-56.834 80.667 -69.501 140h260v53h-267c-0.666992 8 -1.16699 16 -1.5 24s-0.5 16.333 -0.5 25
c0 22.667 1 44 3 64h270l-9 54h-250c13.333 54 36.5 96.667 69.5 128s73.833 47 122.5 47c32 0 60 -5.16699 84 -15.5s48 -24.5 72 -42.5l11 65c-23.333 16 -48.5 28.5 -75.5 37.5s-57.5 13.5 -91.5 13.5c-32 0 -62 -5.5 -90 -16.5s-53 -26.667 -75 -47
s-41 -44.833 -57 -73.5s-28 -60.667 -36 -96h-99v-54h90z" />
    <glyph glyph-name="yen" unicode="&#xa5;" horiz-adv-x="614" 
d="M337 243h171l-9 51h-152l227 382h-72l-194 -343l-200 350l-64 -16l222 -373h-159v-51h169v-92h-173l10 -52h163v-99h61v99h167v52h-167v92z" />
    <glyph glyph-name="brokenbar" unicode="&#xa6;" horiz-adv-x="500" 
d="M25 -200h450v1000h-450v-1000z" />
    <glyph glyph-name="section" unicode="&#xa7;" horiz-adv-x="553" 
d="M496 354c0 32 -11.1709 56.9961 -33.5039 74.9961s-55.166 32.667 -98.499 44l-94 24c-34 9.33301 -57.833 18.833 -71.5 28.5s-20.5 23.167 -20.5 40.5c0 18 8 33.167 24 45.5s39.333 18.5 70 18.5c26 0 51.333 -3.16699 76 -9.5s48.334 -15.166 71.001 -26.499l10 61
c-25.333 10 -49.833 17.333 -73.5 22s-50.5 7 -80.5 7c-23.333 0 -44.833 -3 -64.5 -9s-36.5 -14.333 -50.5 -25s-25 -23.5 -33 -38.5s-12 -31.167 -12 -48.5s3 -32.333 9 -45s15 -23.667 27 -33s27 -17.333 45 -24s39 -13 63 -19l75 -20
c38 -9.33301 64.333 -19.666 79 -30.999s22 -26.666 22 -45.999c0 -13.333 -2.66699 -26.166 -8 -38.499s-11.666 -23.833 -18.999 -34.5l55 -11c8.66699 11.333 16.334 24.833 23.001 40.5s10 33.167 10 52.5zM56.9961 321.996c0 -32 11.1709 -56.9961 33.5039 -74.9961
s55.166 -32.667 98.499 -44l94 -24c34 -9.33301 57.833 -18.833 71.5 -28.5s20.5 -23.167 20.5 -40.5c0 -18 -8 -33.167 -24 -45.5s-39.333 -18.5 -70 -18.5c-26 0 -51.333 3.16699 -76 9.5s-48.334 15.166 -71.001 26.499l-10 -61c25.333 -10 49.833 -17.333 73.5 -22
s50.5 -7 80.5 -7c23.333 0 44.833 3 64.5 9s36.5 14.333 50.5 25s25 23.5 33 38.5s12 31.167 12 48.5c0 34.667 -12 60.5 -36 77.5s-60 31.5 -108 43.5l-76 20c-38 9.33301 -64.167 19.666 -78.5 30.999s-21.5 26.666 -21.5 45.999c0 13.333 2.66699 26.166 8 38.499
s11.666 23.833 18.999 34.5l-55 11c-8.66699 -11.333 -16.334 -24.833 -23.001 -40.5s-10 -33.167 -10 -52.5z" />
    <glyph glyph-name="dieresis" unicode="&#xa8;" horiz-adv-x="456" 
d="M356 557v88h-83v-88h83zM183 557v88h-82v-88h82z" />
    <glyph glyph-name="copyright" unicode="&#xa9;" horiz-adv-x="806" 
d="M747 345c0 52.667 -8.33398 101 -25.001 145s-40 81.667 -70 113s-66.167 55.833 -108.5 73.5s-89.5 26.5 -141.5 26.5c-51.333 0 -98.166 -8.83301 -140.499 -26.5s-78.5 -42.334 -108.5 -74.001s-53.333 -69.334 -70 -113.001s-25 -91.834 -25 -144.501
s8.33301 -101 25 -145s40 -81.667 70 -113s66.167 -55.833 108.5 -73.5s89.5 -26.5 141.5 -26.5s99.167 8.83301 141.5 26.5s78.5 42.334 108.5 74.001s53.167 69.334 69.5 113.001s24.5 91.834 24.5 144.501zM712.999 345c0 -50 -7.49902 -95.333 -22.499 -136
s-36 -75.167 -63 -103.5s-59.5 -50.333 -97.5 -66s-80 -23.5 -126 -23.5s-88 7.83301 -126 23.5s-70.833 37.667 -98.5 66s-49 62.833 -64 103.5s-22.5 86 -22.5 136s7.5 95.333 22.5 136s36 75.167 63 103.5s59.5 50.333 97.5 66s80 23.5 126 23.5s88 -7.83301 126 -23.5
s70.667 -37.667 98 -66s48.666 -62.833 63.999 -103.5s23 -86 23 -136zM537 187l-7.99902 50.999c-20 -15.333 -39.5 -26.666 -58.5 -33.999s-38.5 -11 -58.5 -11c-38.667 0 -69.667 14.333 -93 43s-35 66 -35 112s11.5 83.333 34.5 112s54.167 43 93.5 43
c37.333 0 73.666 -13.667 108.999 -41l9 54c-17.333 11.333 -35.5 20.166 -54.5 26.499s-40.167 9.5 -63.5 9.5c-26.667 0 -51 -5 -73 -15s-41 -24 -57 -42s-28.5 -39.5 -37.5 -64.5s-13.5 -52.5 -13.5 -82.5s4.33301 -57.5 13 -82.5s21 -46.333 37 -64s35 -31.5 57 -41.5
s46.333 -15 73 -15c23.333 0 45.833 3.83301 67.5 11.5s41.167 17.834 58.5 30.501z" />
    <glyph glyph-name="ordfeminine" unicode="&#xaa;" horiz-adv-x="393" 
d="M313 359v222.999c0 65.333 -36.333 98 -109 98c-22 0 -42.167 -2.33301 -60.5 -7s-36.833 -10.667 -55.5 -18l7 -46c18.667 8.66699 36.5 15.334 53.5 20.001s34.167 7 51.5 7c20 0 35.5 -4.5 46.5 -13.5s16.5 -23.167 16.5 -42.5v-17
c-67.333 -6 -117 -18.833 -149 -38.5s-48 -47.834 -48 -84.501c0 -27.333 8.66699 -48.666 26 -63.999s40.333 -23 69 -23c21.333 0 40.833 4.33301 58.5 13s33.5 19 47.5 31l6 -38h40zM321 229.999l-7 47h-245v-47h252zM263 438.999
c-15.333 -13.333 -30.833 -23.833 -46.5 -31.5s-31.5 -11.5 -47.5 -11.5c-16.667 0 -29.667 4.16699 -39 12.5s-14 19.833 -14 34.5c0 10 2.33301 19.167 7 27.5s12.5 16 23.5 23s26 13 45 18s42.833 8.5 71.5 10.5v-83z" />
    <glyph glyph-name="guillemotleft" unicode="&#xab;" horiz-adv-x="514" 
d="M460 473h-56l-163 -236l165 -242l51 12l-141 230zM259 473h-57l-163 -236l165 -242l51 12l-140 230z" />
    <glyph glyph-name="logicalnot" unicode="&#xac;" horiz-adv-x="570" 
d="M512 309v58h-455v-58h455z" />
    <glyph glyph-name="registered" unicode="&#xae;" horiz-adv-x="566" 
d="M510 467c0 34 -5.5 65.333 -16.5 94s-26.5 53.334 -46.5 74.001s-43.833 36.667 -71.5 48s-58.5 17 -92.5 17c-33.333 0 -64 -5.66699 -92 -17s-52 -27.333 -72 -48s-35.5 -45.167 -46.5 -73.5s-16.5 -59.5 -16.5 -93.5s5.5 -65.333 16.5 -94s26.5 -53.334 46.5 -74.001
s43.833 -36.667 71.5 -48s58.5 -17 92.5 -17c33.333 0 64 5.66699 92 17s52 27.333 72 48s35.5 45.167 46.5 73.5s16.5 59.5 16.5 93.5zM484 467c0 -31.333 -5 -59.833 -15 -85.5s-23.833 -47.667 -41.5 -66s-38.834 -32.5 -63.501 -42.5s-51.667 -15 -81 -15
s-56.166 5 -80.499 15s-45.333 24.167 -63 42.5s-31.5 40.333 -41.5 66s-15 54.5 -15 86.5c0 31.333 5 59.833 15 85.5s23.833 47.667 41.5 66s38.667 32.5 63 42.5s51.166 15 80.499 15c28.667 0 55.334 -5 80.001 -15s46 -24.167 64 -42.5s32 -40.333 42 -66
s15 -54.5 15 -86.5zM390 353l-75.999 106c15.333 4.66699 28.166 12.834 38.499 24.501s15.5 27.167 15.5 46.5c0 23.333 -8 41.666 -24 54.999s-37.667 20 -65 20h-70v-258h37v107h28l77 -110zM331.001 528c0 -14.667 -4.83203 -25.667 -14.499 -33
s-22.834 -11 -39.501 -11h-32v87h33c35.333 0 53 -14.333 53 -43z" />
    <glyph glyph-name="macron" unicode="&#xaf;" horiz-adv-x="456" 
d="M351 578v61h-246v-61h246z" />
    <glyph glyph-name="macron" unicode="&#x2c9;" horiz-adv-x="456" 
d="M351 578v61h-246v-61h246z" />
    <glyph glyph-name="degree" unicode="&#xb0;" horiz-adv-x="428" 
d="M372 523c0 22.667 -4 43.667 -12 63s-19 36 -33 50s-30.667 25 -50 33s-40.333 12 -63 12s-43.667 -4 -63 -12s-36.166 -19 -50.499 -33s-25.5 -30.667 -33.5 -50s-12 -40.333 -12 -63c0 -23.333 4 -44.666 12 -63.999s19.167 -36 33.5 -50s31.166 -24.833 50.499 -32.5
s40.333 -11.5 63 -11.5s43.667 3.83301 63 11.5s36 18.5 50 32.5s25 30.667 33 50s12 40.666 12 63.999zM319 523c0 -32 -9.66992 -58.5 -29.0029 -79.5s-44.666 -31.5 -75.999 -31.5c-15.333 0 -29.5 2.83301 -42.5 8.5s-24.167 13.5 -33.5 23.5s-16.666 21.667 -21.999 35
s-8 28 -8 44c0 31.333 9.83301 57.666 29.5 78.999s44.834 32 75.501 32c31.333 0 56.833 -10.667 76.5 -32s29.5 -47.666 29.5 -78.999z" />
    <glyph glyph-name="plusminus" unicode="&#xb1;" horiz-adv-x="593" 
d="M560 160v56h-111v201l-62 -14v-187h-270l316 452l-63 14l-329 -476v-46h346v-160h62v160h111z" />
    <glyph glyph-name="twosuperior" unicode="&#xb2;" horiz-adv-x="500" 
d="M25 -200h450v1000h-450v-1000z" />
    <glyph glyph-name="threesuperior" unicode="&#xb3;" horiz-adv-x="500" 
d="M25 -200h450v1000h-450v-1000z" />
    <glyph glyph-name="acute" unicode="&#xb4;" horiz-adv-x="456" 
d="M327 684l-86 19l-97 -153h46z" />
    <glyph glyph-name="mu" unicode="&#xb5;" horiz-adv-x="570" 
d="M451 131l41 41l-169 167l168 167l-38 38l-167 -168l-168 169l-40 -41l169 -167l-168 -167l38 -38l167 168z" />
    <glyph glyph-name="mu" unicode="&#x3bc;" horiz-adv-x="570" 
d="M451 131l41 41l-169 167l168 167l-38 38l-167 -168l-168 169l-40 -41l169 -167l-168 -167l38 -38l167 168z" />
    <glyph glyph-name="paragraph" unicode="&#xb6;" horiz-adv-x="527" 
d="M430 0v676h-170c-67.333 0 -120.333 -16 -159 -48s-58 -77.667 -58 -137c0 -62 19.5 -108.667 58.5 -140s91.167 -48.333 156.5 -51l30 183v143h82v-626h60z" />
    <glyph glyph-name="periodcentered" unicode="&#xb7;" horiz-adv-x="214" 
d="M146 234v98h-78v-98h78z" />
    <glyph glyph-name="cedilla" unicode="&#xb8;" horiz-adv-x="456" 
d="M296 -70l-84 20l-84 -134h46z" />
    <glyph glyph-name="onesuperior" unicode="&#xb9;" horiz-adv-x="500" 
d="M25 -200h450v1000h-450v-1000z" />
    <glyph glyph-name="ordmasculine" unicode="&#xba;" horiz-adv-x="395" 
d="M339 517c0 48 -12.667 87.167 -38 117.5s-60 45.5 -104 45.5c-21.333 0 -40.833 -4 -58.5 -12s-32.667 -19.167 -45 -33.5s-21.833 -31.5 -28.5 -51.5s-10 -42 -10 -66c0 -48.667 12.833 -88.167 38.5 -118.5s60.167 -45.5 103.5 -45.5c44 0 78.667 15.167 104 45.5
s38 69.833 38 118.5zM331 230l-8 47h-258v-47h266zM286 517c0 -16.667 -1.83301 -32.167 -5.5 -46.5s-9.16699 -26.833 -16.5 -37.5s-16.5 -19.167 -27.5 -25.5s-24.167 -9.5 -39.5 -9.5c-30 0 -52.333 11.667 -67 35s-22 51.333 -22 84s7.33301 60.5 22 83.5
s37 34.5 67 34.5c15.333 0 28.5 -3.16699 39.5 -9.5s20.167 -14.833 27.5 -25.5s12.833 -23.167 16.5 -37.5s5.5 -29.5 5.5 -45.5z" />
    <glyph glyph-name="guillemotright" unicode="&#xbb;" horiz-adv-x="514" 
d="M474 236l-164 242l-52 -11l141 -231l-144 -236h57zM273 236l-165 242l-51 -11l141 -231l-145 -236h57z" />
    <glyph glyph-name="onequarter" unicode="&#xbc;" horiz-adv-x="500" 
d="M25 -200h450v1000h-450v-1000z" />
    <glyph glyph-name="onehalf" unicode="&#xbd;" horiz-adv-x="500" 
d="M25 -200h450v1000h-450v-1000z" />
    <glyph glyph-name="threequarters" unicode="&#xbe;" horiz-adv-x="500" 
d="M25 -200h450v1000h-450v-1000z" />
    <glyph glyph-name="questiondown" unicode="&#xbf;" horiz-adv-x="498" 
d="M309 592v98h-78v-98h78zM451 55l-9 66.999c-28 -22 -57.167 -39.667 -87.5 -53s-63.166 -20 -98.499 -20c-39.333 0 -70.833 9.66699 -94.5 29s-35.5 46.666 -35.5 81.999c0 16.667 2.5 31.834 7.5 45.501s13.333 26.834 25 39.501s27.167 25.167 46.5 37.5
s43 25.5 71 39.5l28 12l-12 166l-44 -10l-9 -121c-28 -14.667 -53.333 -29 -76 -43s-41.834 -29.167 -57.501 -45.5s-27.667 -34.5 -36 -54.5s-12.5 -43 -12.5 -69s4.83301 -49.5 14.5 -70.5s23.167 -38.833 40.5 -53.5s38 -26 62 -34s50.333 -12 79 -12
c38.667 0 74.667 6.33301 108 19s63.333 29 90 49z" />
    <glyph glyph-name="Agrave" unicode="&#xc0;" horiz-adv-x="691" 
d="M652 8l-270 686h-71l-272 -694h70l85 223h302l89 -230zM473 284h-254l126 329zM369 746l-96 153l-86 -19l136 -134h46z" />
    <glyph glyph-name="Aacute" unicode="&#xc1;" horiz-adv-x="691" 
d="M507 880l-86 19l-97 -153h46zM652 8l-270 686h-71l-272 -694h70l85 223h302l89 -230zM473 284h-254l126 329z" />
    <glyph glyph-name="Acircumflex" unicode="&#xc2;" horiz-adv-x="691" 
d="M652 8l-270 686h-71l-272 -694h70l85 223h302l89 -230zM473 284h-254l126 329zM476 741l-99 140h-61l-105 -145h42l92 83l95 -86z" />
    <glyph glyph-name="Atilde" unicode="&#xc3;" horiz-adv-x="691" 
d="M652 8l-270 686h-71l-272 -694h70l85 223h302l89 -230zM473 284h-254l126 329zM494 855l-43.998 9c-4.66699 -18.667 -9.83398 -32 -15.501 -40s-12.5 -12 -20.5 -12s-16.167 1.83301 -24.5 5.5s-21.166 10.167 -38.499 19.5c-16 8.66699 -29.167 15.167 -39.5 19.5
s-22.166 6.5 -35.499 6.5c-41.333 0 -67 -34.667 -77 -104l45 -9c4 19.333 9 33 15 41s13 12 21 12s16.167 -2 24.5 -6s21.166 -10.667 38.499 -20c16 -8.66699 29.167 -15 39.5 -19s22.166 -6 35.499 -6c19.333 0 35.666 8.66699 48.999 26s22.333 43 27 77z" />
    <glyph glyph-name="Adieresis" unicode="&#xc4;" horiz-adv-x="691" 
d="M652 8l-270 686h-71l-272 -694h70l85 223h302l89 -230zM473 284h-254l126 329zM474 753v88h-83v-88h83zM301 753v88h-82v-88h82z" />
    <glyph glyph-name="Aring" unicode="&#xc5;" horiz-adv-x="691" 
d="M652 8l-270 686h-71l-272 -694h70l85 223h302l89 -230zM473 284h-254l126 329zM444 840c0 14 -2.5 27 -7.5 39s-11.833 22.5 -20.5 31.5s-19 16 -31 21s-25 7.5 -39 7.5s-27 -2.5 -39 -7.5s-22.333 -12 -31 -21s-15.5 -19.5 -20.5 -31.5s-7.5 -25 -7.5 -39
c0 -28 9.33301 -51 28 -69s42 -27 70 -27s51.333 9 70 27s28 41 28 69zM404 840c0 -17.333 -5.33301 -31.666 -16 -42.999s-24.667 -17 -42 -17c-16.667 0 -30.667 5.66699 -42 17s-17 25.666 -17 42.999s5.66699 32 17 44s25.333 18 42 18c17.333 0 31.333 -6 42 -18
s16 -26.667 16 -44z" />
    <glyph glyph-name="AE" unicode="&#xc6;" horiz-adv-x="869" 
d="M827 0v62h-301v268h240l-9 62h-231v236h291v62h-401l-405 -690h74l129 223h245v-223h368zM459 283h-209l209 358v-358z" />
    <glyph glyph-name="Ccedilla" unicode="&#xc7;" horiz-adv-x="648" 
d="M584 56l-10 65.998c-28 -21.333 -58.5 -38.666 -91.5 -51.999s-68.167 -20 -105.5 -20s-71.166 7.16699 -101.499 21.5s-56.166 34.5 -77.499 60.5s-37.666 57.167 -48.999 93.5s-17 76.5 -17 120.5s5.66699 84 17 120s27.666 67 48.999 93s47.166 46.167 77.499 60.5
s64.5 21.5 102.5 21.5c35.333 0 68 -6.33301 98 -19s58.667 -28.667 86 -48l11 70c-26 18 -55 32.333 -87 43s-67.667 16 -107 16c-47.333 0 -90.5 -8.83301 -129.5 -26.5s-72.5 -42.167 -100.5 -73.5s-49.667 -69.166 -65 -113.499s-23 -92.833 -23 -145.5
c0 -53.333 7.5 -101.833 22.5 -145.5s36.333 -81.167 64 -112.5s60.667 -55.666 99 -72.999s80.833 -26 127.5 -26c41.333 0 80.166 6.66699 116.499 20s67.5 29.666 93.5 48.999zM418 -74.002l-84 20l-84 -134h46z" />
    <glyph glyph-name="Egrave" unicode="&#xc8;" horiz-adv-x="504" 
d="M462 0v62h-301v268h240l-10 62h-230v236h291v62h-360v-690h370zM312 746l-96 153l-86 -19l136 -134h46z" />
    <glyph glyph-name="Eacute" unicode="&#xc9;" horiz-adv-x="504" 
d="M462 0v62h-301v268h240l-10 62h-230v236h291v62h-360v-690h370zM398 880l-86 19l-97 -153h46z" />
    <glyph glyph-name="Ecircumflex" unicode="&#xca;" horiz-adv-x="504" 
d="M462 0v62h-301v268h240l-10 62h-230v236h291v62h-360v-690h370zM397 751l-99 140h-61l-105 -145h42l92 83l95 -86z" />
    <glyph glyph-name="Edieresis" unicode="&#xcb;" horiz-adv-x="504" 
d="M462 0v62h-301v268h240l-10 62h-230v236h291v62h-360v-690h370zM395 753v88h-83v-88h83zM222 753v88h-82v-88h82z" />
    <glyph glyph-name="Igrave" unicode="&#xcc;" horiz-adv-x="268" 
d="M168 0v690h-69v-690h69zM158 746l-96 153l-86 -19l136 -134h46z" />
    <glyph glyph-name="Iacute" unicode="&#xcd;" horiz-adv-x="268" 
d="M293 880l-86 19l-97 -153h46zM168 0v690h-69v-690h69z" />
    <glyph glyph-name="Icircumflex" unicode="&#xce;" horiz-adv-x="268" 
d="M168 0v690h-69v-690h69zM264 741l-99 140h-61l-105 -145h42l92 83l95 -86z" />
    <glyph glyph-name="Idieresis" unicode="&#xcf;" horiz-adv-x="268" 
d="M168 0v690h-69v-690h69zM262 753v88h-83v-88h83zM89 753v88h-82v-88h82z" />
    <glyph glyph-name="Eth" unicode="&#xd0;" horiz-adv-x="721" 
d="M660 346c0 51.333 -8 98.167 -24 140.5s-39.167 78.5 -69.5 108.5s-67.833 53.333 -112.5 70s-95.667 25 -153 25h-188v-298h-86l10 -61h76v-331h185c55.333 0 105.333 8 150 24s82.667 39 114 69s55.5 66.333 72.5 109s25.5 90.667 25.5 144zM589 345.001
c0 -47.333 -6.66602 -88.666 -19.999 -123.999s-32.5 -64.833 -57.5 -88.5s-55.167 -41.334 -90.5 -53.001s-75 -17.5 -119 -17.5h-121v269h172v61h-172v236h121c42.667 0 81.667 -6 117 -18s65.666 -29.833 90.999 -53.5s44.833 -53.167 58.5 -88.5s20.5 -76.333 20.5 -123
z" />
    <glyph glyph-name="Ntilde" unicode="&#xd1;" horiz-adv-x="705" 
d="M613 0v690h-65v-563l-391 563h-65v-690h65v581l403 -581h53zM502 841l-43.998 9c-4.66699 -18.667 -9.83398 -32 -15.501 -40s-12.5 -12 -20.5 -12s-16.167 1.83301 -24.5 5.5s-21.166 10.167 -38.499 19.5c-16 8.66699 -29.167 15.167 -39.5 19.5
s-22.166 6.5 -35.499 6.5c-41.333 0 -67 -34.667 -77 -104l45 -9c4 19.333 9 33 15 41s13 12 21 12s16.167 -2 24.5 -6s21.166 -10.667 38.499 -20c16 -8.66699 29.167 -15 39.5 -19s22.166 -6 35.499 -6c19.333 0 35.666 8.66699 48.999 26s22.333 43 27 77z" />
    <glyph glyph-name="Ograve" unicode="&#xd2;" horiz-adv-x="745" 
d="M684 346c0 52.667 -7.5 100.832 -22.5 144.499s-36.167 81.334 -63.5 113.001s-60 56.167 -98 73.5s-80.333 26 -127 26c-46 0 -88.167 -8.83301 -126.5 -26.5s-71.166 -42.167 -98.499 -73.5s-48.666 -69.166 -63.999 -113.499s-23 -92.833 -23 -145.5
s7.5 -100.834 22.5 -144.501s36.167 -81.334 63.5 -113.001s60 -56.167 98 -73.5s80 -26 126 -26c46.667 0 89.167 8.83301 127.5 26.5s71.166 42.334 98.499 74.001s48.666 69.5 63.999 113.5s23 92.333 23 145zM613 343.998c0 -44 -5.66699 -84 -17 -120
s-27.5 -67 -48.5 -93s-46.333 -46.167 -76 -60.5s-62.5 -21.5 -98.5 -21.5s-68.833 7.16699 -98.5 21.5s-55 34.5 -76 60.5s-37.333 57.333 -49 94s-17.5 77 -17.5 121s5.66699 84 17 120s27.5 67 48.5 93s46.333 46.167 76 60.5s62.5 21.5 98.5 21.5
s68.833 -7.16699 98.5 -21.5s55 -34.5 76 -60.5s37.333 -57.333 49 -94s17.5 -77 17.5 -121zM406 754.998l-96 153l-86 -19l136 -134h46z" />
    <glyph glyph-name="Oacute" unicode="&#xd3;" horiz-adv-x="745" 
d="M517 889l-86 19l-97 -153h46zM684 346c0 52.667 -7.5 100.832 -22.5 144.499s-36.167 81.334 -63.5 113.001s-60 56.167 -98 73.5s-80.333 26 -127 26c-46 0 -88.167 -8.83301 -126.5 -26.5s-71.166 -42.167 -98.499 -73.5s-48.666 -69.166 -63.999 -113.499
s-23 -92.833 -23 -145.5s7.5 -100.834 22.5 -144.501s36.167 -81.334 63.5 -113.001s60 -56.167 98 -73.5s80 -26 126 -26c46.667 0 89.167 8.83301 127.5 26.5s71.166 42.334 98.499 74.001s48.666 69.5 63.999 113.5s23 92.333 23 145zM613 343.998
c0 -44 -5.66699 -84 -17 -120s-27.5 -67 -48.5 -93s-46.333 -46.167 -76 -60.5s-62.5 -21.5 -98.5 -21.5s-68.833 7.16699 -98.5 21.5s-55 34.5 -76 60.5s-37.333 57.333 -49 94s-17.5 77 -17.5 121s5.66699 84 17 120s27.5 67 48.5 93s46.333 46.167 76 60.5
s62.5 21.5 98.5 21.5s68.833 -7.16699 98.5 -21.5s55 -34.5 76 -60.5s37.333 -57.333 49 -94s17.5 -77 17.5 -121z" />
    <glyph glyph-name="Ocircumflex" unicode="&#xd4;" horiz-adv-x="745" 
d="M684 346c0 52.667 -7.5 100.832 -22.5 144.499s-36.167 81.334 -63.5 113.001s-60 56.167 -98 73.5s-80.333 26 -127 26c-46 0 -88.167 -8.83301 -126.5 -26.5s-71.166 -42.167 -98.499 -73.5s-48.666 -69.166 -63.999 -113.499s-23 -92.833 -23 -145.5
s7.5 -100.834 22.5 -144.501s36.167 -81.334 63.5 -113.001s60 -56.167 98 -73.5s80 -26 126 -26c46.667 0 89.167 8.83301 127.5 26.5s71.166 42.334 98.499 74.001s48.666 69.5 63.999 113.5s23 92.333 23 145zM613 343.998c0 -44 -5.66699 -84 -17 -120
s-27.5 -67 -48.5 -93s-46.333 -46.167 -76 -60.5s-62.5 -21.5 -98.5 -21.5s-68.833 7.16699 -98.5 21.5s-55 34.5 -76 60.5s-37.333 57.333 -49 94s-17.5 77 -17.5 121s5.66699 84 17 120s27.5 67 48.5 93s46.333 46.167 76 60.5s62.5 21.5 98.5 21.5
s68.833 -7.16699 98.5 -21.5s55 -34.5 76 -60.5s37.333 -57.333 49 -94s17.5 -77 17.5 -121zM501 754.998l-99 140h-61l-105 -145h42l92 83l95 -86z" />
    <glyph glyph-name="Otilde" unicode="&#xd5;" horiz-adv-x="745" 
d="M684 346c0 52.667 -7.5 100.832 -22.5 144.499s-36.167 81.334 -63.5 113.001s-60 56.167 -98 73.5s-80.333 26 -127 26c-46 0 -88.167 -8.83301 -126.5 -26.5s-71.166 -42.167 -98.499 -73.5s-48.666 -69.166 -63.999 -113.499s-23 -92.833 -23 -145.5
s7.5 -100.834 22.5 -144.501s36.167 -81.334 63.5 -113.001s60 -56.167 98 -73.5s80 -26 126 -26c46.667 0 89.167 8.83301 127.5 26.5s71.166 42.334 98.499 74.001s48.666 69.5 63.999 113.5s23 92.333 23 145zM613 343.998c0 -44 -5.66699 -84 -17 -120
s-27.5 -67 -48.5 -93s-46.333 -46.167 -76 -60.5s-62.5 -21.5 -98.5 -21.5s-68.833 7.16699 -98.5 21.5s-55 34.5 -76 60.5s-37.333 57.333 -49 94s-17.5 77 -17.5 121s5.66699 84 17 120s27.5 67 48.5 93s46.333 46.167 76 60.5s62.5 21.5 98.5 21.5
s68.833 -7.16699 98.5 -21.5s55 -34.5 76 -60.5s37.333 -57.333 49 -94s17.5 -77 17.5 -121zM518 868.998l-43.998 9c-4.66699 -18.667 -9.83398 -32 -15.501 -40s-12.5 -12 -20.5 -12s-16.167 1.83301 -24.5 5.5s-21.166 10.167 -38.499 19.5
c-16 8.66699 -29.167 15.167 -39.5 19.5s-22.166 6.5 -35.499 6.5c-41.333 0 -67 -34.667 -77 -104l45 -9c4 19.333 9 33 15 41s13 12 21 12s16.167 -2 24.5 -6s21.166 -10.667 38.499 -20c16 -8.66699 29.167 -15 39.5 -19s22.166 -6 35.499 -6
c19.333 0 35.666 8.66699 48.999 26s22.333 43 27 77z" />
    <glyph glyph-name="Odieresis" unicode="&#xd6;" horiz-adv-x="745" 
d="M684 346c0 52.667 -7.5 100.832 -22.5 144.499s-36.167 81.334 -63.5 113.001s-60 56.167 -98 73.5s-80.333 26 -127 26c-46 0 -88.167 -8.83301 -126.5 -26.5s-71.166 -42.167 -98.499 -73.5s-48.666 -69.166 -63.999 -113.499s-23 -92.833 -23 -145.5
s7.5 -100.834 22.5 -144.501s36.167 -81.334 63.5 -113.001s60 -56.167 98 -73.5s80 -26 126 -26c46.667 0 89.167 8.83301 127.5 26.5s71.166 42.334 98.499 74.001s48.666 69.5 63.999 113.5s23 92.333 23 145zM613 343.998c0 -44 -5.66699 -84 -17 -120
s-27.5 -67 -48.5 -93s-46.333 -46.167 -76 -60.5s-62.5 -21.5 -98.5 -21.5s-68.833 7.16699 -98.5 21.5s-55 34.5 -76 60.5s-37.333 57.333 -49 94s-17.5 77 -17.5 121s5.66699 84 17 120s27.5 67 48.5 93s46.333 46.167 76 60.5s62.5 21.5 98.5 21.5
s68.833 -7.16699 98.5 -21.5s55 -34.5 76 -60.5s37.333 -57.333 49 -94s17.5 -77 17.5 -121zM499 761.998v88h-83v-88h83zM326 761.998v88h-82v-88h82z" />
    <glyph glyph-name="multiply" unicode="&#xd7;" horiz-adv-x="500" 
d="M25 -200h450v1000h-450v-1000z" />
    <glyph glyph-name="Oslash" unicode="&#xd8;" horiz-adv-x="745" 
d="M688 685l-61.999 12.998l-55 -68c-26.667 23.333 -56.334 41.333 -89.001 54s-69 19 -109 19c-46 0 -88.167 -8.83301 -126.5 -26.5s-71.166 -42.167 -98.499 -73.5s-48.666 -69.166 -63.999 -113.499s-23 -92.833 -23 -145.5c0 -49.333 6.5 -94.5 19.5 -135.5
s31.5 -77.167 55.5 -108.5l-79 -95l61 -13l56 68c26 -23.333 55.667 -41.333 89 -54s69.333 -19 108 -19c46.667 0 89.167 8.83301 127.5 26.5s71.166 42.334 98.499 74.001s48.666 69.5 63.999 113.5s23 92.333 23 145c0 49.333 -6.5 94.5 -19.5 135.5
s-31.5 76.833 -55.5 107.5zM530.001 580.998l-350.001 -427.999c-16 25.333 -28.333 54.166 -37 86.499s-13 67.833 -13 106.5c0 44 5.83301 84.167 17.5 120.5s28 67.5 49 93.5s46.333 46.167 76 60.5s62.834 21.5 99.501 21.5c32 0 61.167 -5.33301 87.5 -16
s49.833 -25.667 70.5 -45zM615 343.999c0 -44 -5.83203 -84.168 -17.499 -120.501s-28 -67.5 -49 -93.5s-46.333 -46.167 -76 -60.5s-62.834 -21.5 -99.501 -21.5c-32 0 -61.333 5.33301 -88 16s-50 25.667 -70 45l351 428c15.333 -25.333 27.333 -54.166 36 -86.499
s13 -67.833 13 -106.5z" />
    <glyph glyph-name="Ugrave" unicode="&#xd9;" horiz-adv-x="681" 
d="M600 263l0.000976562 426.998h-69v-427c0 -66 -16.167 -117.833 -48.5 -155.5s-79.833 -56.5 -142.5 -56.5c-32 0 -59.833 5.16699 -83.5 15.5s-43.334 25 -59.001 44s-27.5 41.833 -35.5 68.5s-12 56 -12 88v423h-69v-432c0 -40 5.83301 -76.667 17.5 -110
s28.5 -61.666 50.5 -84.999s49 -41.5 81 -54.5s68.333 -19.5 109 -19.5s77 6.5 109 19.5s59.333 31.333 82 55s40 52.334 52 86.001s18 71.5 18 113.5zM382.001 728.998l-96 153l-86 -19l136 -134h46z" />
    <glyph glyph-name="Uacute" unicode="&#xda;" horiz-adv-x="681" 
d="M482 863l-86 19l-97 -153h46zM600 263l0.000976562 426.998h-69v-427c0 -66 -16.167 -117.833 -48.5 -155.5s-79.833 -56.5 -142.5 -56.5c-32 0 -59.833 5.16699 -83.5 15.5s-43.334 25 -59.001 44s-27.5 41.833 -35.5 68.5s-12 56 -12 88v423h-69v-432
c0 -40 5.83301 -76.667 17.5 -110s28.5 -61.666 50.5 -84.999s49 -41.5 81 -54.5s68.333 -19.5 109 -19.5s77 6.5 109 19.5s59.333 31.333 82 55s40 52.334 52 86.001s18 71.5 18 113.5z" />
    <glyph glyph-name="Ucircumflex" unicode="&#xdb;" horiz-adv-x="681" 
d="M600 263l0.000976562 426.998h-69v-427c0 -66 -16.167 -117.833 -48.5 -155.5s-79.833 -56.5 -142.5 -56.5c-32 0 -59.833 5.16699 -83.5 15.5s-43.334 25 -59.001 44s-27.5 41.833 -35.5 68.5s-12 56 -12 88v423h-69v-432c0 -40 5.83301 -76.667 17.5 -110
s28.5 -61.666 50.5 -84.999s49 -41.5 81 -54.5s68.333 -19.5 109 -19.5s77 6.5 109 19.5s59.333 31.333 82 55s40 52.334 52 86.001s18 71.5 18 113.5zM470.001 737.998l-99 140h-61l-105 -145h42l92 83l95 -86z" />
    <glyph glyph-name="Udieresis" unicode="&#xdc;" horiz-adv-x="681" 
d="M600 263l0.000976562 426.998h-69v-427c0 -66 -16.167 -117.833 -48.5 -155.5s-79.833 -56.5 -142.5 -56.5c-32 0 -59.833 5.16699 -83.5 15.5s-43.334 25 -59.001 44s-27.5 41.833 -35.5 68.5s-12 56 -12 88v423h-69v-432c0 -40 5.83301 -76.667 17.5 -110
s28.5 -61.666 50.5 -84.999s49 -41.5 81 -54.5s68.333 -19.5 109 -19.5s77 6.5 109 19.5s59.333 31.333 82 55s40 52.334 52 86.001s18 71.5 18 113.5zM468.001 739.998v88h-83v-88h83zM295.001 739.998v88h-82v-88h82z" />
    <glyph glyph-name="Yacute" unicode="&#xdd;" horiz-adv-x="628" 
d="M595 690h-75l-206 -343l-212 350l-68 -14l244 -397v-286h69v287zM461 857l-86 19l-97 -153h46z" />
    <glyph glyph-name="Thorn" unicode="&#xde;" horiz-adv-x="537" 
d="M492 358c0 62.667 -20.334 110.667 -61.001 144s-96 50 -166 50h-104v138h-69v-690h69v154h88c35.333 0 67.833 4.33301 97.5 13s55.334 21.5 77.001 38.5s38.5 38.167 50.5 63.5s18 55 18 89zM421.999 356c0 -48 -15 -83.667 -45 -107s-71.333 -35 -124 -35h-92v278h100
c52 0 91.833 -11.5 119.5 -34.5s41.5 -56.833 41.5 -101.5z" />
    <glyph glyph-name="germandbls" unicode="&#xdf;" horiz-adv-x="603" 
d="M564 145c0 52 -19.498 93.5029 -58.498 124.503s-97.833 55.833 -176.5 74.5c29.333 35.333 53 69.166 71 101.499s27 68.5 27 108.5c0 50.667 -14.167 90.167 -42.5 118.5s-67.833 42.5 -118.5 42.5c-50 0 -89.5 -16 -118.5 -48s-43.5 -75.333 -43.5 -130v-64h-72v-56
h72v-417h65v543c0 36 8.66699 64.167 26 84.5s41 30.5 71 30.5s53.333 -9.5 70 -28.5s25 -45.167 25 -78.5c0 -34.667 -8 -67.834 -24 -99.501s-39 -65.167 -69 -100.5l8 -51c46 -10 83.5 -20.833 112.5 -32.5s51.833 -24.334 68.5 -38.001s28.167 -28 34.5 -43
s9.5 -30.833 9.5 -47.5c0 -30 -9.5 -53 -28.5 -69s-42.833 -24 -71.5 -24c-23.333 0 -47 4 -71 12s-47.667 18.667 -71 32l-10 -62c21.333 -12 44.666 -21.167 69.999 -27.5s50.666 -9.5 75.999 -9.5c50 0 90.667 13.167 122 39.5s47 64.5 47 114.5z" />
    <glyph glyph-name="agrave" unicode="&#xe0;" horiz-adv-x="489" 
d="M416 0l0.000976562 336.999c0 97.333 -53 146 -159 146c-34 0 -64.833 -3.83301 -92.5 -11.5s-55.5 -17.5 -83.5 -29.5l9 -59c26 12.667 52.667 22.834 80 30.501s55 11.5 83 11.5c30 0 53.833 -7.16699 71.5 -21.5s26.5 -37.5 26.5 -69.5v-31
c-53.333 -5.33301 -99.166 -12.666 -137.499 -21.999s-69.833 -21.333 -94.5 -36s-42.834 -32.334 -54.501 -53.001s-17.5 -45 -17.5 -73c0 -42 13.167 -74 39.5 -96s60.166 -33 101.499 -33c34 0 64.833 7 92.5 21s52.5 31.333 74.5 52l11 -63h50zM351.001 116.999
c-23.333 -21.333 -48.334 -38.501 -75.001 -51.501s-52.667 -19.5 -78 -19.5s-45.833 6.5 -61.5 19.5s-23.5 32.167 -23.5 57.5c0 16 3.66699 30.833 11 44.5s20 25.834 38 36.501s42.333 20 73 28s69.334 14.333 116.001 19v-134zM278 549.998l-96 153l-86 -19l136 -134h46
z" />
    <glyph glyph-name="aacute" unicode="&#xe1;" horiz-adv-x="489" 
d="M416 0l0.000976562 336.999c0 97.333 -53 146 -159 146c-34 0 -64.833 -3.83301 -92.5 -11.5s-55.5 -17.5 -83.5 -29.5l9 -59c26 12.667 52.667 22.834 80 30.501s55 11.5 83 11.5c30 0 53.833 -7.16699 71.5 -21.5s26.5 -37.5 26.5 -69.5v-31
c-53.333 -5.33301 -99.166 -12.666 -137.499 -21.999s-69.833 -21.333 -94.5 -36s-42.834 -32.334 -54.501 -53.001s-17.5 -45 -17.5 -73c0 -42 13.167 -74 39.5 -96s60.166 -33 101.499 -33c34 0 64.833 7 92.5 21s52.5 31.333 74.5 52l11 -63h50zM351.001 116.999
c-23.333 -21.333 -48.334 -38.501 -75.001 -51.501s-52.667 -19.5 -78 -19.5s-45.833 6.5 -61.5 19.5s-23.5 32.167 -23.5 57.5c0 16 3.66699 30.833 11 44.5s20 25.834 38 36.501s42.333 20 73 28s69.334 14.333 116.001 19v-134zM388 683.998l-86 19l-97 -153h46z" />
    <glyph glyph-name="acircumflex" unicode="&#xe2;" horiz-adv-x="489" 
d="M416 0l0.000976562 336.999c0 97.333 -53 146 -159 146c-34 0 -64.833 -3.83301 -92.5 -11.5s-55.5 -17.5 -83.5 -29.5l9 -59c26 12.667 52.667 22.834 80 30.501s55 11.5 83 11.5c30 0 53.833 -7.16699 71.5 -21.5s26.5 -37.5 26.5 -69.5v-31
c-53.333 -5.33301 -99.166 -12.666 -137.499 -21.999s-69.833 -21.333 -94.5 -36s-42.834 -32.334 -54.501 -53.001s-17.5 -45 -17.5 -73c0 -42 13.167 -74 39.5 -96s60.166 -33 101.499 -33c34 0 64.833 7 92.5 21s52.5 31.333 74.5 52l11 -63h50zM351.001 116.999
c-23.333 -21.333 -48.334 -38.501 -75.001 -51.501s-52.667 -19.5 -78 -19.5s-45.833 6.5 -61.5 19.5s-23.5 32.167 -23.5 57.5c0 16 3.66699 30.833 11 44.5s20 25.834 38 36.501s42.333 20 73 28s69.334 14.333 116.001 19v-134zM375 554.998l-99 140h-61l-105 -145h42
l92 83l95 -86z" />
    <glyph glyph-name="atilde" unicode="&#xe3;" horiz-adv-x="489" 
d="M416 0l0.000976562 336.999c0 97.333 -53 146 -159 146c-34 0 -64.833 -3.83301 -92.5 -11.5s-55.5 -17.5 -83.5 -29.5l9 -59c26 12.667 52.667 22.834 80 30.501s55 11.5 83 11.5c30 0 53.833 -7.16699 71.5 -21.5s26.5 -37.5 26.5 -69.5v-31
c-53.333 -5.33301 -99.166 -12.666 -137.499 -21.999s-69.833 -21.333 -94.5 -36s-42.834 -32.334 -54.501 -53.001s-17.5 -45 -17.5 -73c0 -42 13.167 -74 39.5 -96s60.166 -33 101.499 -33c34 0 64.833 7 92.5 21s52.5 31.333 74.5 52l11 -63h50zM351.001 116.999
c-23.333 -21.333 -48.334 -38.501 -75.001 -51.501s-52.667 -19.5 -78 -19.5s-45.833 6.5 -61.5 19.5s-23.5 32.167 -23.5 57.5c0 16 3.66699 30.833 11 44.5s20 25.834 38 36.501s42.333 20 73 28s69.334 14.333 116.001 19v-134zM393 658.998l-43.998 9
c-4.66699 -18.667 -9.83398 -32 -15.501 -40s-12.5 -12 -20.5 -12s-16.167 1.83301 -24.5 5.5s-21.166 10.167 -38.499 19.5c-16 8.66699 -29.167 15.167 -39.5 19.5s-22.166 6.5 -35.499 6.5c-41.333 0 -67 -34.667 -77 -104l45 -9c4 19.333 9 33 15 41s13 12 21 12
s16.167 -2 24.5 -6s21.166 -10.667 38.499 -20c16 -8.66699 29.167 -15 39.5 -19s22.166 -6 35.499 -6c19.333 0 35.666 8.66699 48.999 26s22.333 43 27 77z" />
    <glyph glyph-name="adieresis" unicode="&#xe4;" horiz-adv-x="489" 
d="M416 0l0.000976562 336.999c0 97.333 -53 146 -159 146c-34 0 -64.833 -3.83301 -92.5 -11.5s-55.5 -17.5 -83.5 -29.5l9 -59c26 12.667 52.667 22.834 80 30.501s55 11.5 83 11.5c30 0 53.833 -7.16699 71.5 -21.5s26.5 -37.5 26.5 -69.5v-31
c-53.333 -5.33301 -99.166 -12.666 -137.499 -21.999s-69.833 -21.333 -94.5 -36s-42.834 -32.334 -54.501 -53.001s-17.5 -45 -17.5 -73c0 -42 13.167 -74 39.5 -96s60.166 -33 101.499 -33c34 0 64.833 7 92.5 21s52.5 31.333 74.5 52l11 -63h50zM351.001 116.999
c-23.333 -21.333 -48.334 -38.501 -75.001 -51.501s-52.667 -19.5 -78 -19.5s-45.833 6.5 -61.5 19.5s-23.5 32.167 -23.5 57.5c0 16 3.66699 30.833 11 44.5s20 25.834 38 36.501s42.333 20 73 28s69.334 14.333 116.001 19v-134zM375 556.998v88h-83v-88h83zM202 556.998
v88h-82v-88h82z" />
    <glyph glyph-name="aring" unicode="&#xe5;" horiz-adv-x="489" 
d="M416 0l0.000976562 336.999c0 97.333 -53 146 -159 146c-34 0 -64.833 -3.83301 -92.5 -11.5s-55.5 -17.5 -83.5 -29.5l9 -59c26 12.667 52.667 22.834 80 30.501s55 11.5 83 11.5c30 0 53.833 -7.16699 71.5 -21.5s26.5 -37.5 26.5 -69.5v-31
c-53.333 -5.33301 -99.166 -12.666 -137.499 -21.999s-69.833 -21.333 -94.5 -36s-42.834 -32.334 -54.501 -53.001s-17.5 -45 -17.5 -73c0 -42 13.167 -74 39.5 -96s60.166 -33 101.499 -33c34 0 64.833 7 92.5 21s52.5 31.333 74.5 52l11 -63h50zM351.001 116.999
c-23.333 -21.333 -48.334 -38.501 -75.001 -51.501s-52.667 -19.5 -78 -19.5s-45.833 6.5 -61.5 19.5s-23.5 32.167 -23.5 57.5c0 16 3.66699 30.833 11 44.5s20 25.834 38 36.501s42.333 20 73 28s69.334 14.333 116.001 19v-134zM343 643.998c0 14 -2.5 27 -7.5 39
s-11.833 22.5 -20.5 31.5s-19 16 -31 21s-25 7.5 -39 7.5s-27 -2.5 -39 -7.5s-22.333 -12 -31 -21s-15.5 -19.5 -20.5 -31.5s-7.5 -25 -7.5 -39c0 -28 9.33301 -51 28 -69s42 -27 70 -27s51.333 9 70 27s28 41 28 69zM303 643.998c0 -17.333 -5.33301 -31.666 -16 -42.999
s-24.667 -17 -42 -17c-16.667 0 -30.667 5.66699 -42 17s-17 25.666 -17 42.999s5.66699 32 17 44s25.333 18 42 18c17.333 0 31.333 -6 42 -18s16 -26.667 16 -44z" />
    <glyph glyph-name="ae" unicode="&#xe6;" horiz-adv-x="790" 
d="M740 246c0 32.667 -3.83496 63.334 -11.502 92.001s-19.334 53.834 -35.001 75.501s-35.334 38.667 -59.001 51s-51.5 18.5 -83.5 18.5c-33.333 0 -63 -7.16699 -89 -21.5s-47.667 -35.5 -65 -63.5c-9.33301 28.667 -25.166 50 -47.499 64s-54.166 21 -95.499 21
c-32 0 -62 -3.83301 -90 -11.5s-55.667 -17.5 -83 -29.5l9 -59c26 12.667 52.667 22.834 80 30.501s55 11.5 83 11.5c30 0 53.167 -7 69.5 -21s24.5 -36.667 24.5 -68v-34c-53.333 -5.33301 -99 -12.833 -137 -22.5s-69 -21.834 -93 -36.501s-41.667 -32.334 -53 -53.001
s-17 -44.334 -17 -71.001c0 -42 14 -74 42 -96s63.667 -33 107 -33c40 0 75.833 8.16699 107.5 24.5s60.5 36.5 86.5 60.5c19.333 -28 43.5 -49.167 72.5 -63.5s61.167 -21.5 96.5 -21.5c36.667 0 70 6.33301 100 19s56.667 28.667 80 48l-9 60
c-25.333 -21.333 -51.666 -38.333 -78.999 -51s-56.666 -19 -87.999 -19c-46 0 -82.333 16.167 -109 48.5s-40.667 77.833 -42 136.5h328v14zM672.998 284h-258c6 46 20.833 81.833 44.5 107.5s54.167 38.5 91.5 38.5c38 0 67 -13.667 87 -41s31.667 -62.333 35 -105z
M365.998 121c-25.333 -23.333 -51.667 -41.6709 -79 -55.0039s-55.333 -20 -84 -20c-28 0 -50 6.83301 -66 20.5s-24 32.834 -24 57.501c0 16 3.66699 30.667 11 44s19.833 25.333 37.5 36s41.5 19.834 71.5 27.501s68 14.167 114 19.5v-14
c0 -21.333 1.66699 -41.666 5 -60.999s8 -37.666 14 -54.999z" />
    <glyph glyph-name="ccedilla" unicode="&#xe7;" horiz-adv-x="466" 
d="M422 44l-9.00195 59.9961c-24.667 -21.333 -48.5 -36 -71.5 -44s-47.167 -12 -72.5 -12c-48 0 -85.667 16.833 -113 50.5s-41 79.834 -41 138.501s13.333 104.834 40 138.501s62.667 50.5 108 50.5c27.333 0 52.5 -4.66699 75.5 -14s45.833 -23.666 68.5 -42.999l11 66
c-19.333 14 -41.833 25.5 -67.5 34.5s-54.5 13.5 -86.5 13.5c-30 0 -58.167 -5.33301 -84.5 -16s-49.166 -26.5 -68.499 -47.5s-34.666 -46.833 -45.999 -77.5s-17 -66 -17 -106c0 -39.333 5.5 -74.166 16.5 -104.499s26 -56 45 -77s41.667 -37 68 -48
s54.5 -16.5 84.5 -16.5c32 0 60.833 4.5 86.5 13.5s50.167 22.5 73.5 40.5zM319.998 -74.0039l-84 20l-84 -134h46z" />
    <glyph glyph-name="egrave" unicode="&#xe8;" horiz-adv-x="491" 
d="M443 246c0 32.667 -3.83398 63.3301 -11.501 91.9971s-19.5 53.834 -35.5 75.501s-36 38.667 -60 51s-52 18.5 -84 18.5c-29.333 0 -56.333 -5.66699 -81 -17s-46.167 -27.666 -64.5 -48.999s-32.666 -47.166 -42.999 -77.499s-15.5 -64.5 -15.5 -102.5
c0 -40.667 5.33301 -76.5 16 -107.5s25.334 -56.833 44.001 -77.5s41 -36.167 67 -46.5s54.667 -15.5 86 -15.5c36.667 0 70.167 6.16699 100.5 18.5s57.166 28.5 80.499 48.5l-10 60c-24.667 -21.333 -50.667 -38.333 -78 -51s-57 -19 -89 -19
c-48 0 -84.833 16.167 -110.5 48.5s-39.167 77.833 -40.5 136.5h329v14zM374.999 283.996h-257.999c6.66699 46 21.5 81.833 44.5 107.5s53.167 38.5 90.5 38.5c38 0 67.167 -13.667 87.5 -41s32.166 -62.333 35.499 -105zM281 549.996l-96 153l-86 -19l136 -134h46z" />
    <glyph glyph-name="eacute" unicode="&#xe9;" horiz-adv-x="491" 
d="M443 246c0 32.667 -3.83398 63.3301 -11.501 91.9971s-19.5 53.834 -35.5 75.501s-36 38.667 -60 51s-52 18.5 -84 18.5c-29.333 0 -56.333 -5.66699 -81 -17s-46.167 -27.666 -64.5 -48.999s-32.666 -47.166 -42.999 -77.499s-15.5 -64.5 -15.5 -102.5
c0 -40.667 5.33301 -76.5 16 -107.5s25.334 -56.833 44.001 -77.5s41 -36.167 67 -46.5s54.667 -15.5 86 -15.5c36.667 0 70.167 6.16699 100.5 18.5s57.166 28.5 80.499 48.5l-10 60c-24.667 -21.333 -50.667 -38.333 -78 -51s-57 -19 -89 -19
c-48 0 -84.833 16.167 -110.5 48.5s-39.167 77.833 -40.5 136.5h329v14zM374.999 283.996h-257.999c6.66699 46 21.5 81.833 44.5 107.5s53.167 38.5 90.5 38.5c38 0 67.167 -13.667 87.5 -41s32.166 -62.333 35.499 -105zM395 683.996l-86 19l-97 -153h46z" />
    <glyph glyph-name="ecircumflex" unicode="&#xea;" horiz-adv-x="491" 
d="M443 246c0 32.667 -3.83398 63.3301 -11.501 91.9971s-19.5 53.834 -35.5 75.501s-36 38.667 -60 51s-52 18.5 -84 18.5c-29.333 0 -56.333 -5.66699 -81 -17s-46.167 -27.666 -64.5 -48.999s-32.666 -47.166 -42.999 -77.499s-15.5 -64.5 -15.5 -102.5
c0 -40.667 5.33301 -76.5 16 -107.5s25.334 -56.833 44.001 -77.5s41 -36.167 67 -46.5s54.667 -15.5 86 -15.5c36.667 0 70.167 6.16699 100.5 18.5s57.166 28.5 80.499 48.5l-10 60c-24.667 -21.333 -50.667 -38.333 -78 -51s-57 -19 -89 -19
c-48 0 -84.833 16.167 -110.5 48.5s-39.167 77.833 -40.5 136.5h329v14zM374.999 283.996h-257.999c6.66699 46 21.5 81.833 44.5 107.5s53.167 38.5 90.5 38.5c38 0 67.167 -13.667 87.5 -41s32.166 -62.333 35.499 -105zM382 554.996l-99 140h-61l-105 -145h42l92 83
l95 -86z" />
    <glyph glyph-name="edieresis" unicode="&#xeb;" horiz-adv-x="491" 
d="M443 246c0 32.667 -3.83398 63.3301 -11.501 91.9971s-19.5 53.834 -35.5 75.501s-36 38.667 -60 51s-52 18.5 -84 18.5c-29.333 0 -56.333 -5.66699 -81 -17s-46.167 -27.666 -64.5 -48.999s-32.666 -47.166 -42.999 -77.499s-15.5 -64.5 -15.5 -102.5
c0 -40.667 5.33301 -76.5 16 -107.5s25.334 -56.833 44.001 -77.5s41 -36.167 67 -46.5s54.667 -15.5 86 -15.5c36.667 0 70.167 6.16699 100.5 18.5s57.166 28.5 80.499 48.5l-10 60c-24.667 -21.333 -50.667 -38.333 -78 -51s-57 -19 -89 -19
c-48 0 -84.833 16.167 -110.5 48.5s-39.167 77.833 -40.5 136.5h329v14zM374.999 283.996h-257.999c6.66699 46 21.5 81.833 44.5 107.5s53.167 38.5 90.5 38.5c38 0 67.167 -13.667 87.5 -41s32.166 -62.333 35.499 -105zM380 556.996v88h-83v-88h83zM207 556.996v88h-82
v-88h82z" />
    <glyph glyph-name="igrave" unicode="&#xec;" horiz-adv-x="233" 
d="M143 550l-81 153l-74 -19l116 -134h39zM151 0v473h-65v-473h65z" />
    <glyph glyph-name="iacute" unicode="&#xed;" horiz-adv-x="233" 
d="M250 684l-74 19l-82 -153h39zM151 0v473h-65v-473h65z" />
    <glyph glyph-name="icircumflex" unicode="&#xee;" horiz-adv-x="233" 
d="M235 555l-88 140h-56l-94 -145h38l82 82l86 -85zM151 0v473h-65v-473h65z" />
    <glyph glyph-name="idieresis" unicode="&#xef;" horiz-adv-x="233" 
d="M233 557v88h-77v-88h77zM79 557v88h-77v-88h77zM151 0v473h-65v-473h65z" />
    <glyph glyph-name="eth" unicode="&#xf0;" horiz-adv-x="530" 
d="M474 301c0 73.333 -10.8311 136.998 -32.498 190.998s-53.5 99 -95.5 135l53 79l-56 12l-40 -60c-41.333 26.667 -89.333 46.667 -144 60l-9 -55c47.333 -13.333 88 -31 122 -53l-65 -99h61l44 67c23.333 -22.667 42.666 -49.167 57.999 -79.5s26 -65.833 32 -106.5
c-19.333 16 -41.5 29.167 -66.5 39.5s-53.5 15.5 -85.5 15.5c-28 0 -54.333 -6.16699 -79 -18.5s-46.167 -29 -64.5 -50s-32.666 -45.667 -42.999 -74s-15.5 -58.833 -15.5 -91.5c0 -35.333 5.16699 -66.666 15.5 -93.999s24.666 -50.666 42.999 -69.999s40 -34 65 -44
s51.833 -15 80.5 -15c55.333 0 101.666 19 138.999 57c26 26 46.333 59.833 61 101.5s22 92.5 22 152.5zM409.002 320.998c0.666992 -4 0.998047 -8.33496 0.998047 -13.002v-13c0 -79.333 -14.167 -140.666 -42.5 -183.999s-64.833 -65 -109.5 -65
c-44 0 -78.833 15.333 -104.5 46s-38.5 72.334 -38.5 125.001c0 24 3.33301 46.667 10 68s16.334 39.833 29.001 55.5s27.5 28 44.5 37s36.167 13.5 57.5 13.5c30 0 57.833 -6.33301 83.5 -19s48.834 -29.667 69.501 -51z" />
    <glyph glyph-name="ntilde" unicode="&#xf1;" 
d="M450 0v338c0 46 -11.667 81.667 -35 107s-58.666 38 -105.999 38c-32 0 -61.833 -7.5 -89.5 -22.5s-54.5 -34.167 -80.5 -57.5l-11 70h-51v-473h66v342c26 25.333 51.667 45.333 77 60s50.666 22 75.999 22c30 0 52.167 -8.66699 66.5 -26s21.5 -41.333 21.5 -72v-326h66
zM414 659l-43.998 9c-4.66699 -18.667 -9.83398 -32 -15.501 -40s-12.5 -12 -20.5 -12s-16.167 1.83301 -24.5 5.5s-21.166 10.167 -38.499 19.5c-16 8.66699 -29.167 15.167 -39.5 19.5s-22.166 6.5 -35.499 6.5c-41.333 0 -67 -34.667 -77 -104l45 -9c4 19.333 9 33 15 41
s13 12 21 12s16.167 -2 24.5 -6s21.166 -10.667 38.499 -20c16 -8.66699 29.167 -15 39.5 -19s22.166 -6 35.499 -6c19.333 0 35.666 8.66699 48.999 26s22.333 43 27 77z" />
    <glyph glyph-name="ograve" unicode="&#xf2;" 
d="M475 236c0 39.333 -5.49902 74.333 -16.499 105s-26 56.5 -45 77.5s-41.667 37 -68 48s-54.833 16.5 -85.5 16.5c-30 0 -57.833 -5.5 -83.5 -16.5s-48 -27 -67 -48s-34 -46.833 -45 -77.5s-16.5 -65.667 -16.5 -105s5.33301 -74.166 16 -104.499s25.5 -56 44.5 -77
s41.5 -37 67.5 -48s54 -16.5 84 -16.5s58.167 5.5 84.5 16.5s49.166 27 68.499 48s34.5 46.667 45.5 77s16.5 65.166 16.5 104.499zM407.001 236c0 -56 -12.5 -101.668 -37.5 -137.001s-61.5 -53 -109.5 -53c-23.333 0 -44 4.83301 -62 14.5s-33.167 23 -45.5 40
s-21.666 37 -27.999 60s-9.5 48.167 -9.5 75.5c0 28 3.16699 53.667 9.5 77s15.666 43.5 27.999 60.5s27.5 30.167 45.5 39.5s38.667 14 62 14c24 0 45 -4.83301 63 -14.5s33.333 -23 46 -40s22.167 -37.167 28.5 -60.5s9.5 -48.666 9.5 -75.999zM288.001 549.999l-96 153
l-86 -19l136 -134h46z" />
    <glyph glyph-name="oacute" unicode="&#xf3;" 
d="M416 684l-86 19l-97 -153h46zM475 236c0 39.333 -5.49902 74.333 -16.499 105s-26 56.5 -45 77.5s-41.667 37 -68 48s-54.833 16.5 -85.5 16.5c-30 0 -57.833 -5.5 -83.5 -16.5s-48 -27 -67 -48s-34 -46.833 -45 -77.5s-16.5 -65.667 -16.5 -105
s5.33301 -74.166 16 -104.499s25.5 -56 44.5 -77s41.5 -37 67.5 -48s54 -16.5 84 -16.5s58.167 5.5 84.5 16.5s49.166 27 68.499 48s34.5 46.667 45.5 77s16.5 65.166 16.5 104.499zM407.001 236c0 -56 -12.5 -101.668 -37.5 -137.001s-61.5 -53 -109.5 -53
c-23.333 0 -44 4.83301 -62 14.5s-33.167 23 -45.5 40s-21.666 37 -27.999 60s-9.5 48.167 -9.5 75.5c0 28 3.16699 53.667 9.5 77s15.666 43.5 27.999 60.5s27.5 30.167 45.5 39.5s38.667 14 62 14c24 0 45 -4.83301 63 -14.5s33.333 -23 46 -40s22.167 -37.167 28.5 -60.5
s9.5 -48.666 9.5 -75.999z" />
    <glyph glyph-name="ocircumflex" unicode="&#xf4;" 
d="M475 236c0 39.333 -5.49902 74.333 -16.499 105s-26 56.5 -45 77.5s-41.667 37 -68 48s-54.833 16.5 -85.5 16.5c-30 0 -57.833 -5.5 -83.5 -16.5s-48 -27 -67 -48s-34 -46.833 -45 -77.5s-16.5 -65.667 -16.5 -105s5.33301 -74.166 16 -104.499s25.5 -56 44.5 -77
s41.5 -37 67.5 -48s54 -16.5 84 -16.5s58.167 5.5 84.5 16.5s49.166 27 68.499 48s34.5 46.667 45.5 77s16.5 65.166 16.5 104.499zM407.001 236c0 -56 -12.5 -101.668 -37.5 -137.001s-61.5 -53 -109.5 -53c-23.333 0 -44 4.83301 -62 14.5s-33.167 23 -45.5 40
s-21.666 37 -27.999 60s-9.5 48.167 -9.5 75.5c0 28 3.16699 53.667 9.5 77s15.666 43.5 27.999 60.5s27.5 30.167 45.5 39.5s38.667 14 62 14c24 0 45 -4.83301 63 -14.5s33.333 -23 46 -40s22.167 -37.167 28.5 -60.5s9.5 -48.666 9.5 -75.999zM391.001 554.999l-99 140
h-61l-105 -145h42l92 83l95 -86z" />
    <glyph glyph-name="otilde" unicode="&#xf5;" 
d="M475 236c0 39.333 -5.49902 74.333 -16.499 105s-26 56.5 -45 77.5s-41.667 37 -68 48s-54.833 16.5 -85.5 16.5c-30 0 -57.833 -5.5 -83.5 -16.5s-48 -27 -67 -48s-34 -46.833 -45 -77.5s-16.5 -65.667 -16.5 -105s5.33301 -74.166 16 -104.499s25.5 -56 44.5 -77
s41.5 -37 67.5 -48s54 -16.5 84 -16.5s58.167 5.5 84.5 16.5s49.166 27 68.499 48s34.5 46.667 45.5 77s16.5 65.166 16.5 104.499zM407.001 236c0 -56 -12.5 -101.668 -37.5 -137.001s-61.5 -53 -109.5 -53c-23.333 0 -44 4.83301 -62 14.5s-33.167 23 -45.5 40
s-21.666 37 -27.999 60s-9.5 48.167 -9.5 75.5c0 28 3.16699 53.667 9.5 77s15.666 43.5 27.999 60.5s27.5 30.167 45.5 39.5s38.667 14 62 14c24 0 45 -4.83301 63 -14.5s33.333 -23 46 -40s22.167 -37.167 28.5 -60.5s9.5 -48.666 9.5 -75.999zM408.001 658.999l-43.998 9
c-4.66699 -18.667 -9.83398 -32 -15.501 -40s-12.5 -12 -20.5 -12s-16.167 1.83301 -24.5 5.5s-21.166 10.167 -38.499 19.5c-16 8.66699 -29.167 15.167 -39.5 19.5s-22.166 6.5 -35.499 6.5c-41.333 0 -67 -34.667 -77 -104l45 -9c4 19.333 9 33 15 41s13 12 21 12
s16.167 -2 24.5 -6s21.166 -10.667 38.499 -20c16 -8.66699 29.167 -15 39.5 -19s22.166 -6 35.499 -6c19.333 0 35.666 8.66699 48.999 26s22.333 43 27 77z" />
    <glyph glyph-name="odieresis" unicode="&#xf6;" 
d="M475 236c0 39.333 -5.49902 74.333 -16.499 105s-26 56.5 -45 77.5s-41.667 37 -68 48s-54.833 16.5 -85.5 16.5c-30 0 -57.833 -5.5 -83.5 -16.5s-48 -27 -67 -48s-34 -46.833 -45 -77.5s-16.5 -65.667 -16.5 -105s5.33301 -74.166 16 -104.499s25.5 -56 44.5 -77
s41.5 -37 67.5 -48s54 -16.5 84 -16.5s58.167 5.5 84.5 16.5s49.166 27 68.499 48s34.5 46.667 45.5 77s16.5 65.166 16.5 104.499zM407.001 236c0 -56 -12.5 -101.668 -37.5 -137.001s-61.5 -53 -109.5 -53c-23.333 0 -44 4.83301 -62 14.5s-33.167 23 -45.5 40
s-21.666 37 -27.999 60s-9.5 48.167 -9.5 75.5c0 28 3.16699 53.667 9.5 77s15.666 43.5 27.999 60.5s27.5 30.167 45.5 39.5s38.667 14 62 14c24 0 45 -4.83301 63 -14.5s33.333 -23 46 -40s22.167 -37.167 28.5 -60.5s9.5 -48.666 9.5 -75.999zM388.001 556.999v88h-83
v-88h83zM215.001 556.999v88h-82v-88h82z" />
    <glyph glyph-name="divide" unicode="&#xf7;" horiz-adv-x="570" 
d="M323 477v90h-76v-90h76zM512 311v54h-455v-54h455zM323 109v90h-76v-90h76z" />
    <glyph glyph-name="oslash" unicode="&#xf8;" 
d="M480 468l-55.998 12.999l-33 -42c-36.667 29.333 -80.334 44 -131.001 44c-30 0 -57.833 -5.5 -83.5 -16.5s-48 -27 -67 -48s-34 -46.833 -45 -77.5s-16.5 -65.667 -16.5 -105c0 -34 4.16699 -65 12.5 -93s20.166 -52 35.499 -72l-52 -66l56 -12l32 40
c36 -28.667 78.667 -43 128 -43c30 0 58.167 5.5 84.5 16.5s49.166 27 68.499 48s34.5 46.667 45.5 77s16.5 65.166 16.5 104.499c0 34.667 -4.16699 65.834 -12.5 93.501s-20.166 51.834 -35.499 72.501zM354.002 392.999l-216.999 -271c-16.667 32 -25 70 -25 114
c0 28 3.16699 53.833 9.5 77.5s15.833 44 28.5 61s28.167 30.333 46.5 40s39.5 14.5 63.5 14.5c37.333 0 68.666 -12 93.999 -36zM385.003 350.999c16.667 -33.333 25.002 -71.667 25.002 -115c0 -28 -3.33301 -53.833 -10 -77.5s-16.334 -44 -29.001 -61
s-28.334 -30.167 -47.001 -39.5s-40 -14 -64 -14c-36 0 -66.667 11.667 -92 35z" />
    <glyph glyph-name="ugrave" unicode="&#xf9;" 
d="M446 0l-0.000976562 472.999h-66v-342c-26 -25.333 -51.667 -45.166 -77 -59.499s-50.666 -21.5 -75.999 -21.5c-30 0 -52.167 8.5 -66.5 25.5s-21.5 40.833 -21.5 71.5v326h-66v-338c0 -45.333 11.5 -80.833 34.5 -106.5s58.5 -38.5 106.5 -38.5
c32 0 61.833 7.5 89.5 22.5s54.5 34.167 80.5 57.5l11 -70h51zM286.999 549.999l-96 153l-86 -19l136 -134h46z" />
    <glyph glyph-name="uacute" unicode="&#xfa;" 
d="M446 0l-0.000976562 472.999h-66v-342c-26 -25.333 -51.667 -45.166 -77 -59.499s-50.666 -21.5 -75.999 -21.5c-30 0 -52.167 8.5 -66.5 25.5s-21.5 40.833 -21.5 71.5v326h-66v-338c0 -45.333 11.5 -80.833 34.5 -106.5s58.5 -38.5 106.5 -38.5
c32 0 61.833 7.5 89.5 22.5s54.5 34.167 80.5 57.5l11 -70h51zM403.999 683.999l-86 19l-97 -153h46z" />
    <glyph glyph-name="ucircumflex" unicode="&#xfb;" 
d="M446 0l-0.000976562 472.999h-66v-342c-26 -25.333 -51.667 -45.166 -77 -59.499s-50.666 -21.5 -75.999 -21.5c-30 0 -52.167 8.5 -66.5 25.5s-21.5 40.833 -21.5 71.5v326h-66v-338c0 -45.333 11.5 -80.833 34.5 -106.5s58.5 -38.5 106.5 -38.5
c32 0 61.833 7.5 89.5 22.5s54.5 34.167 80.5 57.5l11 -70h51zM390.999 554.999l-99 140h-61l-105 -145h42l92 83l95 -86z" />
    <glyph glyph-name="udieresis" unicode="&#xfc;" 
d="M446 0l-0.000976562 472.999h-66v-342c-26 -25.333 -51.667 -45.166 -77 -59.499s-50.666 -21.5 -75.999 -21.5c-30 0 -52.167 8.5 -66.5 25.5s-21.5 40.833 -21.5 71.5v326h-66v-338c0 -45.333 11.5 -80.833 34.5 -106.5s58.5 -38.5 106.5 -38.5
c32 0 61.833 7.5 89.5 22.5s54.5 34.167 80.5 57.5l11 -70h51zM389.999 556.999v88h-83v-88h83zM216.999 556.999v88h-82v-88h82z" />
    <glyph glyph-name="yacute" unicode="&#xfd;" horiz-adv-x="480" 
d="M450 473h-67.998l-140 -397l-147 403l-64 -12l179 -470l-22 -57c-9.33301 -23.333 -20.166 -39.666 -32.499 -48.999s-28.166 -14 -47.499 -14c-7.33301 0 -14.333 0.333008 -21 1s-12.667 1.66699 -18 3l9 -58c3.33301 -0.666992 7.16602 -1.33398 11.499 -2.00098
s9.16602 -1 14.499 -1c35.333 0 64.166 8.66699 86.499 26s42.166 49 59.499 95zM391.002 675l-86 19l-97 -153h46z" />
    <glyph glyph-name="thorn" unicode="&#xfe;" horiz-adv-x="531" 
d="M482 250c0 39.333 -5 73.6699 -15 103.003s-23.667 53.666 -41 72.999s-37.5 33.666 -60.5 42.999s-47.5 14 -73.5 14c-34 0 -62.833 -7.33301 -86.5 -22s-44.5 -32 -62.5 -52v309l-66 -12v-893l66 12v192c17.333 -7.33301 36.333 -13 57 -17s42.667 -6 66 -6
c28.667 0 56 5.16699 82 15.5s49 26.166 69 47.499s35.833 48 47.5 80s17.5 69.667 17.5 113zM415 247.004c0 -33.333 -3.83105 -62.167 -11.498 -86.5s-18.334 -44.833 -32.001 -61.5s-29.667 -29 -48 -37s-38.5 -12 -60.5 -12c-23.333 0 -44.5 2.33301 -63.5 7
s-37.833 11.667 -56.5 21v260c21.333 26.667 43.166 47.667 65.499 63s47.833 23 76.5 23c38 0 69.167 -15 93.5 -45s36.5 -74 36.5 -132z" />
    <glyph glyph-name="ydieresis" unicode="&#xff;" horiz-adv-x="480" 
d="M450 473h-67.998l-140 -397l-147 403l-64 -12l179 -470l-22 -57c-9.33301 -23.333 -20.166 -39.666 -32.499 -48.999s-28.166 -14 -47.499 -14c-7.33301 0 -14.333 0.333008 -21 1s-12.667 1.66699 -18 3l9 -58c3.33301 -0.666992 7.16602 -1.33398 11.499 -2.00098
s9.16602 -1 14.499 -1c35.333 0 64.166 8.66699 86.499 26s42.166 49 59.499 95zM368.002 557v88h-83v-88h83zM195.002 557v88h-82v-88h82z" />
    <glyph glyph-name="dotlessi" unicode="&#x131;" horiz-adv-x="233" 
d="M151 0v473h-65v-473h65z" />
    <glyph glyph-name="Lslash" unicode="&#x141;" horiz-adv-x="487" 
d="M458 0l-10 62h-267v276l160 42v62l-160 -43v291h-68v-308l-88 -23l10 -59l78 20v-320h345z" />
    <glyph glyph-name="lslash" unicode="&#x142;" horiz-adv-x="275" 
d="M255 377v59l-85 -22v304l-65 -12v-308l-89 -24l10 -57l79 21v-338h65v354z" />
    <glyph glyph-name="OE" unicode="&#x152;" horiz-adv-x="874" 
d="M831 0l0.00195312 62.001h-298v268h237l-9 62h-228v236h288v62h-400c-55.333 0 -105.333 -8.16699 -150 -24.5s-82.667 -39.5 -114 -69.5s-55.5 -66.333 -72.5 -109s-25.5 -90.334 -25.5 -143.001c0 -51.333 8 -98 24 -140s39.167 -78.167 69.5 -108.5
s67.666 -53.833 111.999 -70.5s95.166 -25 152.499 -25h414zM464.002 62.001h-47c-43.333 0 -82.666 6 -117.999 18s-65.5 30 -90.5 54s-44.5 53.667 -58.5 89s-21 76 -21 122c0 47.333 6.83301 88.666 20.5 123.999s33 64.833 58 88.5s55.167 41.334 90.5 53.001
s74.666 17.5 117.999 17.5h48v-566z" />
    <glyph glyph-name="oe" unicode="&#x153;" horiz-adv-x="851" 
d="M801 246c0 32.667 -3.83496 63.3311 -11.502 91.998s-19.334 53.834 -35.001 75.501s-35.167 38.667 -58.5 51s-51 18.5 -83 18.5c-40.667 0 -75.667 -10.333 -105 -31s-51.666 -49 -66.999 -85c-16 37.333 -39.333 66 -70 86s-68 30 -112 30
c-29.333 0 -56.833 -5.5 -82.5 -16.5s-48 -27 -67 -48s-34 -46.833 -45 -77.5s-16.5 -65.667 -16.5 -105s5.33301 -74.166 16 -104.499s25.5 -56 44.5 -77s41.333 -37 67 -48s53.5 -16.5 83.5 -16.5c42.667 0 79.334 10.167 110.001 30.5s54.334 48.833 71.001 85.5
c15.333 -36.667 38.5 -65.167 69.5 -85.5s67.833 -30.5 110.5 -30.5c36.667 0 70 6.33301 100 19s56.667 28.667 80 48l-9 60c-25.333 -21.333 -51.5 -38.333 -78.5 -51s-56.5 -19 -88.5 -19c-46 0 -82.333 16.167 -109 48.5s-40.667 77.833 -42 136.5h328v14z
M733.998 283.997h-258c6 46 20.833 81.833 44.5 107.5s54.167 38.5 91.5 38.5c38 0 67 -13.667 87 -41s31.667 -62.333 35 -105zM407.998 235.997c0 -56 -12.835 -101.668 -38.502 -137.001s-62.5 -53 -110.5 -53c-23.333 0 -43.833 4.83301 -61.5 14.5s-32.667 23 -45 40
s-21.666 37 -27.999 60s-9.5 48.167 -9.5 75.5c0 28 3.16699 53.667 9.5 77s15.5 43.5 27.5 60.5s27 30.167 45 39.5s38.667 14 62 14c24 0 45.167 -4.83301 63.5 -14.5s33.833 -23 46.5 -40s22.334 -37.167 29.001 -60.5s10 -48.666 10 -75.999z" />
    <glyph glyph-name="Scaron" unicode="&#x160;" horiz-adv-x="512" 
d="M458 182c0 25.333 -3.33203 47.6631 -9.99902 66.9961s-17.334 37 -32.001 53s-33.334 31 -56.001 45s-50 28 -82 42c-26.667 12 -48.834 23 -66.501 33s-31.834 20.333 -42.501 31s-18.334 22 -23.001 34s-7 26 -7 42c0 30 10.833 55.5 32.5 76.5
s52.834 31.5 93.501 31.5c29.333 0 56 -4 80 -12s45.667 -18.667 65 -32l10 69c-18 10.667 -39.667 19.334 -65 26.001s-54.333 10 -87 10c-28.667 0 -55 -4.16699 -79 -12.5s-44.833 -20 -62.5 -35s-31.5 -33.167 -41.5 -54.5s-15 -45 -15 -71
c0 -24.667 3.16699 -46.167 9.5 -64.5s16.666 -35.166 30.999 -50.499s32.833 -29.666 55.5 -42.999s50.667 -27.333 84 -42c26 -11.333 48 -22.333 66 -33s32.333 -21.667 43 -33s18.334 -23.666 23.001 -36.999s7 -28.333 7 -45c0 -39.333 -13.5 -69.833 -40.5 -91.5
s-60.833 -32.5 -101.5 -32.5c-35.333 0 -68.166 5.33301 -98.499 16s-56.166 22.667 -77.499 36l-10 -70c22 -12 48.333 -22.167 79 -30.5s65.334 -12.5 104.001 -12.5c30 0 58.167 4.33301 84.5 13s49 21.167 68 37.5s34 36.333 45 60s16.5 50.167 16.5 79.5z
M391.001 899.997h-42l-92 -84l-95 87l-36 -8l99 -140h62z" />
    <glyph glyph-name="scaron" unicode="&#x161;" horiz-adv-x="438" 
d="M391 128c0 20.667 -3.33496 38.8291 -10.002 54.4961s-17 29.334 -31 41.001s-31.333 21.834 -52 30.501s-45 16.667 -73 24c-40 10.667 -67.667 21.834 -83 33.501s-23 27.167 -23 46.5s7.83301 35.333 23.5 48s39.834 19 72.501 19c23.333 0 46.833 -3.33301 70.5 -10
s46.167 -15.667 67.5 -27l11 63c-21.333 9.33301 -44.166 17 -68.499 23s-50.5 9 -78.5 9c-49.333 0 -88.5 -12 -117.5 -36s-43.5 -54.667 -43.5 -92c0 -19.333 2.83301 -36.166 8.5 -50.499s14.667 -27 27 -38s28 -20.5 47 -28.5s41.5 -15.333 67.5 -22
c23.333 -6 42.833 -12.167 58.5 -18.5s28.167 -13 37.5 -20s16 -14.833 20 -23.5s6 -19 6 -31c0 -24 -9.5 -42.667 -28.5 -56s-45.167 -20 -78.5 -20c-32 0 -62 5 -90 15s-53 22 -75 36l-11 -64c20.667 -11.333 46.167 -21.333 76.5 -30s61.5 -13 93.5 -13
c54.667 0 97.667 12 129 36s47 57.667 47 101zM351.998 694.995h-42l-92 -84l-95 87l-36 -8l99 -140h62z" />
    <glyph glyph-name="Ydieresis" unicode="&#x178;" horiz-adv-x="628" 
d="M595 690h-75l-206 -343l-212 350l-68 -14l244 -397v-286h69v287zM442 739v88h-83v-88h83zM269 739v88h-82v-88h82z" />
    <glyph glyph-name="Zcaron" unicode="&#x17d;" horiz-adv-x="608" 
d="M555 0l-9 59h-405l407 582v49h-471l9 -59h379l-408 -582v-49h498zM444 891h-42l-92 -84l-95 87l-36 -8l99 -140h62z" />
    <glyph glyph-name="zcaron" unicode="&#x17e;" horiz-adv-x="449" 
d="M407 0l-9 55h-281l282 367v51h-343l9 -55h258l-282 -367v-51h366zM361 695h-42l-92 -84l-95 87l-36 -8l99 -140h62z" />
    <glyph glyph-name="florin" unicode="&#x192;" horiz-adv-x="381" 
d="M144 453l-67.999 -0.000976562l-9 -56h69l-63 -397h64l64 397h110v56h-102l2.5 14l5.5 30.5c2 11 3.66699 21.167 5 30.5l2 14c5.33301 29.333 14.166 50.5 26.499 63.5s31.5 19.5 57.5 19.5c7.33301 0 15 -0.333008 23 -1s15 -1.66699 21 -3v60
c-5.33301 0.666992 -11.666 1.33398 -18.999 2.00098s-15.333 1 -24 1c-44.667 0 -78.834 -10.5 -102.501 -31.5s-39.167 -54.833 -46.5 -101.5l-2.5 -15.5l-5.5 -33.5l-5.5 -33.5z" />
    <glyph glyph-name="circumflex" unicode="&#x2c6;" horiz-adv-x="456" 
d="M358 555l-99 140h-61l-105 -145h42l92 83l95 -86z" />
    <glyph glyph-name="caron" unicode="&#x2c7;" horiz-adv-x="456" 
d="M363 695h-42l-92 -84l-95 87l-36 -8l99 -140h62z" />
    <glyph glyph-name="breve" unicode="&#x2d8;" horiz-adv-x="456" 
d="M354 695h-48.002c-6 -54 -31.333 -81 -76 -81c-24.667 0 -43.167 7 -55.5 21s-20.166 35 -23.499 63l-48 -10c3.33301 -44 16 -77.833 38 -101.5s51 -35.5 87 -35.5c38.667 0 68.834 12.5 90.501 37.5s33.5 60.5 35.5 106.5z" />
    <glyph glyph-name="dotaccent" unicode="&#x2d9;" horiz-adv-x="456" 
d="M270 554v90h-84v-90h84z" />
    <glyph glyph-name="ring" unicode="&#x2da;" horiz-adv-x="456" 
d="M326 644c0 14 -2.5 27 -7.5 39s-11.833 22.5 -20.5 31.5s-19 16 -31 21s-25 7.5 -39 7.5s-27 -2.5 -39 -7.5s-22.333 -12 -31 -21s-15.5 -19.5 -20.5 -31.5s-7.5 -25 -7.5 -39c0 -28 9.33301 -51 28 -69s42 -27 70 -27s51.333 9 70 27s28 41 28 69zM286 644
c0 -17.333 -5.33301 -31.666 -16 -42.999s-24.667 -17 -42 -17c-16.667 0 -30.667 5.66699 -42 17s-17 25.666 -17 42.999s5.66699 32 17 44s25.333 18 42 18c17.333 0 31.333 -6 42 -18s16 -26.667 16 -44z" />
    <glyph glyph-name="ogonek" unicode="&#x2db;" horiz-adv-x="456" 
d="M328 -184l-83 134l-85 -20l123 -114h45z" />
    <glyph glyph-name="tilde" unicode="&#x2dc;" horiz-adv-x="456" 
d="M375 659l-43.998 9c-4.66699 -18.667 -9.83398 -32 -15.501 -40s-12.5 -12 -20.5 -12s-16.167 1.83301 -24.5 5.5s-21.166 10.167 -38.499 19.5c-16 8.66699 -29.167 15.167 -39.5 19.5s-22.166 6.5 -35.499 6.5c-41.333 0 -67 -34.667 -77 -104l45 -9
c4 19.333 9 33 15 41s13 12 21 12s16.167 -2 24.5 -6s21.166 -10.667 38.499 -20c16 -8.66699 29.167 -15 39.5 -19s22.166 -6 35.499 -6c19.333 0 35.666 8.66699 48.999 26s22.333 43 27 77z" />
    <glyph glyph-name="hungarumlaut" unicode="&#x2dd;" horiz-adv-x="456" 
d="M394 687l-80 19l-96 -152h42zM234 687l-81 19l-96 -152h42z" />
    <glyph glyph-name="Delta" unicode="&#x394;" horiz-adv-x="500" 
d="M25 -200h450v1000h-450v-1000z" />
    <glyph glyph-name="Omega" unicode="&#x3a9;" horiz-adv-x="596" 
d="M579 652l-9 61c-4.66699 0.666992 -9.5 1.16699 -14.5 1.5s-11.5 0.5 -19.5 0.5c-41.333 0 -74 -10.167 -98 -30.5s-36 -52.5 -36 -96.5v-115h-72v-56h72v-417h65v417h106l-8 56h-98v110c0 26 6.33301 44.5 19 55.5s30.334 16.5 53.001 16.5
c17.333 0 30.666 -1 39.999 -3zM281 652l-9.99805 61c-4.66699 0.666992 -9.33398 1.16699 -14.001 1.5s-11.334 0.5 -20.001 0.5c-40.667 0 -73 -10.167 -97 -30.5s-36 -52.5 -36 -96.5v-115h-72v-56h72v-417h65v417h106l-9 56h-97v110c0 26 6.33301 44.5 19 55.5
s30.334 16.5 53.001 16.5c17.333 0 30.666 -1 39.999 -3z" />
    <glyph glyph-name="pi" unicode="&#x3c0;" horiz-adv-x="806" 
d="M747 345c0 52.667 -8.33398 101 -25.001 145s-40 81.667 -70 113s-66.167 55.833 -108.5 73.5s-89.5 26.5 -141.5 26.5c-51.333 0 -98.166 -8.83301 -140.499 -26.5s-78.5 -42.334 -108.5 -74.001s-53.333 -69.334 -70 -113.001s-25 -91.834 -25 -144.501
s8.33301 -101 25 -145s40 -81.667 70 -113s66.167 -55.833 108.5 -73.5s89.5 -26.5 141.5 -26.5s99.167 8.83301 141.5 26.5s78.5 42.334 108.5 74.001s53.167 69.334 69.5 113.001s24.5 91.834 24.5 144.501zM712.999 345c0 -50 -7.49902 -95.333 -22.499 -136
s-36 -75.167 -63 -103.5s-59.5 -50.333 -97.5 -66s-80 -23.5 -126 -23.5s-88 7.83301 -126 23.5s-70.833 37.667 -98.5 66s-49 62.833 -64 103.5s-22.5 86 -22.5 136s7.5 95.333 22.5 136s36 75.167 63 103.5s59.5 50.333 97.5 66s80 23.5 126 23.5s88 -7.83301 126 -23.5
s70.667 -37.667 98 -66s48.666 -62.833 63.999 -103.5s23 -86 23 -136zM543 425c0 37.333 -12.5 66.333 -37.5 87s-57.833 31 -98.5 31h-106v-393h53v153h46c42 0 76.333 10.333 103 31s40 51 40 91zM490 423c0 -24 -7.83301 -42.167 -23.5 -54.5s-37.167 -18.5 -64.5 -18.5
h-48v146h51c26 0 46.667 -6.33301 62 -19s23 -30.667 23 -54z" />
    <glyph glyph-name="endash" unicode="&#x2013;" horiz-adv-x="456" 
d="M397 251v64h-339v-64h339z" />
    <glyph glyph-name="emdash" unicode="&#x2014;" horiz-adv-x="912" 
d="M853 252v63h-795v-63h795z" />
    <glyph glyph-name="quoteleft" unicode="&#x2018;" horiz-adv-x="219" 
d="M166 687l-37 9l-78 -223h80z" />
    <glyph glyph-name="quoteright" unicode="&#x2019;" horiz-adv-x="219" 
d="M167 690h-79l-35 -214l37 -9z" />
    <glyph glyph-name="quotesinglbase" unicode="&#x201a;" horiz-adv-x="219" 
d="M160 98h-79l-35 -214l37 -8z" />
    <glyph glyph-name="quotedblleft" unicode="&#x201c;" horiz-adv-x="388" 
d="M166 687l-37 9l-78 -223h80zM334 687l-36 9l-78 -223h80z" />
    <glyph glyph-name="quotedblright" unicode="&#x201d;" horiz-adv-x="388" 
d="M167 690h-79l-35 -214l37 -9zM336 690h-80l-34 -214l37 -9z" />
    <glyph glyph-name="quotedblbase" unicode="&#x201e;" horiz-adv-x="387" 
d="M164 98h-80l-34 -214l37 -8zM333 98h-80l-34 -214l37 -8z" />
    <glyph glyph-name="dagger" unicode="&#x2020;" horiz-adv-x="498" 
d="M278 592v98h-57v-98l17 -114h22zM447 414v57h-45l-116 -18v-21l116 -18h45zM213 432v21l-118 18h-44v-57h44zM276 -1v306l-16 102h-22l-16 -102v-306l18 -115h18z" />
    <glyph glyph-name="daggerdbl" unicode="&#x2021;" horiz-adv-x="517" 
d="M287 592v98h-57v-98l18 -114h21zM456 414v57h-45l-116 -18v-21l116 -18h45zM222 432v21l-117 18h-45v-57h45zM285 201v104l-16 102h-21l-17 -102v-104l17 -103h21zM456 35v56h-45l-116 -18v-21l116 -17h45zM222 52v21l-117 18h-45v-56h45zM287 -185v98l-18 114h-21
l-18 -114v-98h57z" />
    <glyph glyph-name="bullet" unicode="&#x2022;" horiz-adv-x="417" 
d="M325 348l-16 109l-100 16l-100 -16l-17 -109l17 -109l100 -17l100 17z" />
    <glyph glyph-name="ellipsis" unicode="&#x2026;" horiz-adv-x="693" 
d="M617 0v98h-79v-98h79zM385 0v98h-78v-98h78zM155 0v98h-78v-98h78z" />
    <glyph glyph-name="perthousand" unicode="&#x2030;" horiz-adv-x="806" 
d="M747 345c0 52.667 -8.33398 101 -25.001 145s-40 81.667 -70 113s-66.167 55.833 -108.5 73.5s-89.5 26.5 -141.5 26.5c-51.333 0 -98.166 -8.83301 -140.499 -26.5s-78.5 -42.334 -108.5 -74.001s-53.333 -69.334 -70 -113.001s-25 -91.834 -25 -144.501
s8.33301 -101 25 -145s40 -81.667 70 -113s66.167 -55.833 108.5 -73.5s89.5 -26.5 141.5 -26.5s99.167 8.83301 141.5 26.5s78.5 42.334 108.5 74.001s53.167 69.334 69.5 113.001s24.5 91.834 24.5 144.501zM712.999 345c0 -50 -7.49902 -95.333 -22.499 -136
s-36 -75.167 -63 -103.5s-59.5 -50.333 -97.5 -66s-80 -23.5 -126 -23.5s-88 7.83301 -126 23.5s-70.833 37.667 -98.5 66s-49 62.833 -64 103.5s-22.5 86 -22.5 136s7.5 95.333 22.5 136s36 75.167 63 103.5s59.5 50.333 97.5 66s80 23.5 126 23.5s88 -7.83301 126 -23.5
s70.667 -37.667 98 -66s48.666 -62.833 63.999 -103.5s23 -86 23 -136zM444 323c25.333 7.33301 45.833 20.168 61.5 38.501s23.5 42.166 23.5 71.499c0 36 -12 64.167 -36 84.5s-56 30.5 -96 30.5h-109v-394h52v161h49l121 -164l56 11zM395 500.002
c26 0 45.833 -6 59.5 -18s20.5 -28.667 20.5 -50c0 -23.333 -7.5 -41 -22.5 -53s-35.5 -18 -61.5 -18h-51v139h55z" />
    <glyph glyph-name="guilsinglleft" unicode="&#x2039;" horiz-adv-x="313" 
d="M259 473h-57l-163 -236l165 -242l51 12l-140 230z" />
    <glyph glyph-name="guilsinglright" unicode="&#x203a;" horiz-adv-x="313" 
d="M273 236l-165 242l-51 -11l141 -231l-145 -236h57z" />
    <glyph glyph-name="trademark" unicode="&#x2122;" horiz-adv-x="801" 
d="M734 345l-27 345h-55l-110 -283l-110 283h-56l-26 -345h45l21 265l106 -266h38l107 266l20 -265h47zM301 647l-7 43h-258v-43h109v-302h47v302h109z" />
    <glyph glyph-name="partialdiff" unicode="&#x2202;" horiz-adv-x="749" 
d="M698 50l-82.001 63.999c22 30 38.833 64.667 50.5 104s17.5 82 17.5 128c0 52.667 -7.5 100.834 -22.5 144.501s-36.167 81.334 -63.5 113.001s-60.166 56.167 -98.499 73.5s-80.5 26 -126.5 26s-88.333 -8.83301 -127 -26.5s-71.667 -42.167 -99 -73.5
s-48.666 -69.166 -63.999 -113.499s-23 -92.833 -23 -145.5s7.5 -100.834 22.5 -144.501s36.167 -81.334 63.5 -113.001s60.166 -56.167 98.499 -73.5s80.5 -26 126.5 -26c40.667 0 78.667 7.16699 114 21.5s66.333 34.5 93 60.5l106 -83zM612.999 343.999
c0 -76.667 -16.334 -140.667 -49.001 -192l-132 104l-81 -16l178 -133c-20 -18.667 -43.167 -33 -69.5 -43s-55.166 -15 -86.499 -15c-36.667 0 -69.834 7.16699 -99.501 21.5s-55 34.5 -76 60.5s-37.333 57.333 -49 94s-17.5 77 -17.5 121s5.66699 84.167 17 120.5
s27.5 67.5 48.5 93.5s46.333 46 76 60s62.5 21 98.5 21c36.667 0 69.834 -7.16699 99.501 -21.5s55 -34.5 76 -60.5s37.333 -57.333 49 -94s17.5 -77 17.5 -121z" />
    <glyph glyph-name="product" unicode="&#x220f;" horiz-adv-x="500" 
d="M25 -200h450v1000h-450v-1000z" />
    <glyph glyph-name="summation" unicode="&#x2211;" horiz-adv-x="1015" 
d="M975 690h-72l-211 -599l-220 606l-70 -15l71 -188l-147 -403l-218 606l-68 -15l253 -684h61l152 409l154 -409h61z" />
    <glyph glyph-name="minus" unicode="&#x2212;" horiz-adv-x="500" 
d="M25 -200h450v1000h-450v-1000z" />
    <glyph glyph-name="fraction" unicode="&#x2215;" horiz-adv-x="439" 
d="M520 770l-56 14l-540 -878l56 -14z" />
    <glyph glyph-name="radical" unicode="&#x221a;" horiz-adv-x="830" 
d="M746 0v718l-66 -12v-706h66zM579 652l-9 61c-4.66699 0.666992 -9.5 1.16699 -14.5 1.5s-11.5 0.5 -19.5 0.5c-41.333 0 -74 -10.167 -98 -30.5s-36 -52.5 -36 -96.5v-115h-72v-56h72v-417h65v417h106l-8 56h-98v110c0 26 6.33301 44.5 19 55.5s30.334 16.5 53.001 16.5
c17.333 0 30.666 -1 39.999 -3zM281 652l-9.99805 61c-4.66699 0.666992 -9.33398 1.16699 -14.001 1.5s-11.334 0.5 -20.001 0.5c-40.667 0 -73 -10.167 -97 -30.5s-36 -52.5 -36 -96.5v-115h-72v-56h72v-417h65v417h106l-9 56h-97v110c0 26 6.33301 44.5 19 55.5
s30.334 16.5 53.001 16.5c17.333 0 30.666 -1 39.999 -3z" />
    <glyph glyph-name="infinity" unicode="&#x221e;" horiz-adv-x="489" 
d="M416 0l0.000976562 336.999c0 97.333 -53 146 -159 146c-34 0 -64.833 -3.83301 -92.5 -11.5s-55.5 -17.5 -83.5 -29.5l9 -59c26 12.667 52.667 22.834 80 30.501s55 11.5 83 11.5c30 0 53.833 -7.16699 71.5 -21.5s26.5 -37.5 26.5 -69.5v-31
c-53.333 -5.33301 -99.166 -12.666 -137.499 -21.999s-69.833 -21.333 -94.5 -36s-42.834 -32.334 -54.501 -53.001s-17.5 -45 -17.5 -73c0 -42 13.167 -74 39.5 -96s60.166 -33 101.499 -33c34 0 64.833 7 92.5 21s52.5 31.333 74.5 52l11 -63h50zM351.001 116.999
c-23.333 -21.333 -48.334 -38.501 -75.001 -51.501s-52.667 -19.5 -78 -19.5s-45.833 6.5 -61.5 19.5s-23.5 32.167 -23.5 57.5c0 16 3.66699 30.833 11 44.5s20 25.834 38 36.501s42.333 20 73 28s69.334 14.333 116.001 19v-134z" />
    <glyph glyph-name="integral" unicode="&#x222b;" horiz-adv-x="529" 
d="M452 7l0.000976562 442.003c-26.667 8.66699 -53.667 16 -81 22s-58 9 -92 9c-32.667 0 -63 -5.33301 -91 -16s-52.333 -26.5 -73 -47.5s-36.834 -47.167 -48.501 -78.5s-17.5 -68 -17.5 -110c0 -38.667 5 -72.334 15 -101.001s23.833 -52.5 41.5 -71.5
s38 -33.167 61 -42.5s47.5 -14 73.5 -14c34 0 62.667 7.5 86 22.5s43.333 31.5 60 49.5v-67c0 -40 -10 -71.167 -30 -93.5s-53 -33.5 -99 -33.5c-30.667 0 -60 3.66699 -88 11s-55 17.666 -81 30.999l-11 -63c26 -10.667 53.667 -19.334 83 -26.001s60 -10 92 -10
c66.667 0 116.667 16.333 150 49s50 78.667 50 138zM386.001 141.003c-20.667 -24.667 -42.334 -44.666 -65.001 -59.999s-47.667 -23 -75 -23c-38 0 -69.167 14.667 -93.5 44s-36.5 72.333 -36.5 129c0 65.333 14.833 113.666 44.5 144.999s68.167 47 115.5 47
c24.667 0 45.334 -2 62.001 -6s32.667 -8.66699 48 -14v-262z" />
    <glyph glyph-name="approxequal" unicode="&#x2248;" horiz-adv-x="830" 
d="M760 635c0 12.667 -4.5 23.667 -13.5 33s-20.167 14 -33.5 14c-12.667 0 -23.5 -4.66699 -32.5 -14s-13.5 -20.333 -13.5 -33s4.5 -23.667 13.5 -33s19.833 -14 32.5 -14c13.333 0 24.5 4.66699 33.5 14s13.5 20.333 13.5 33zM579 652l-9 61
c-4.66699 0.666992 -9.5 1.16699 -14.5 1.5s-11.5 0.5 -19.5 0.5c-41.333 0 -74 -10.167 -98 -30.5s-36 -52.5 -36 -96.5v-115h-72v-56h72v-417h65v417h106l-8 56h-98v110c0 26 6.33301 44.5 19 55.5s30.334 16.5 53.001 16.5c17.333 0 30.666 -1 39.999 -3zM281 652
l-9.99805 61c-4.66699 0.666992 -9.33398 1.16699 -14.001 1.5s-11.334 0.5 -20.001 0.5c-40.667 0 -73 -10.167 -97 -30.5s-36 -52.5 -36 -96.5v-115h-72v-56h72v-417h65v417h106l-9 56h-97v110c0 26 6.33301 44.5 19 55.5s30.334 16.5 53.001 16.5
c17.333 0 30.666 -1 39.999 -3zM746.002 0v473h-66v-473h66z" />
    <glyph glyph-name="notequal" unicode="&#x2260;" 
d="M463 189c0 32.667 -5.66895 60.833 -17.002 84.5s-27.166 43.334 -47.499 59.001s-44.333 27.667 -72 36s-57.834 13.166 -90.501 14.499l218 243v50h-400l9 -60h305l-211 -238l7 -48h30c64.667 0 114.334 -11.5 149.001 -34.5s52 -58.5 52 -106.5
c0 -42 -13.833 -76.167 -41.5 -102.5s-66.167 -39.5 -115.5 -39.5c-34.667 0 -66.167 4.83301 -94.5 14.5s-57.5 24.5 -87.5 44.5l-11 -66c23.333 -15.333 51.833 -28 85.5 -38s67.834 -15 102.501 -15s66.167 5 94.5 15s52.5 24 72.5 42s35.5 39.333 46.5 64
s16.5 51.667 16.5 81z" />
    <glyph glyph-name="lessequal" unicode="&#x2264;" horiz-adv-x="884" 
d="M791 0v690h-84l-265 -603l-264 603h-85v-690h63v577l257 -580h54l258 580v-577h66z" />
    <glyph glyph-name="greaterequal" unicode="&#x2265;" horiz-adv-x="693" 
d="M536 82l12 -81.998h53v690h-69v-539c-33.333 -30 -67.333 -53.667 -102 -71s-71.667 -26 -111 -26c-108.667 0 -163 58 -163 174v462h-69v-470c0 -39.333 5.33301 -73.333 16 -102s26 -52.334 46 -71.001s44 -32.5 72 -41.5s59.333 -13.5 94 -13.5
c40 0 78.333 8.16699 115 24.5s72 38.166 106 65.499z" />
    <glyph glyph-name="lozenge" unicode="&#x25ca;" horiz-adv-x="801" 
d="M734 345l-27 345h-55l-110 -283l-110 283h-56l-26 -345h45l21 265l106 -266h38l107 266l20 -265h47zM165 340c32 0 58.668 8.49805 80.001 25.498s32 40.833 32 71.5c0 27.333 -7.33301 48.5 -22 63.5s-38.334 29.5 -71.001 43.5
c-24.667 10.667 -41.834 20.334 -51.501 29.001s-14.5 20.667 -14.5 36c0 13.333 5.16699 24.166 15.5 32.499s24.5 12.5 42.5 12.5c14 0 27.333 -2.16699 40 -6.5s25 -10.166 37 -17.499l8 45c-11.333 6 -23.833 10.833 -37.5 14.5s-28.834 5.5 -45.501 5.5
c-30 0 -54.833 -8.33301 -74.5 -25s-29.5 -38.334 -29.5 -65.001c0 -13.333 1.66699 -24.666 5 -33.999s8.83301 -17.833 16.5 -25.5s17.5 -15 29.5 -22s26.667 -14.167 44 -21.5c22.667 -9.33301 38.834 -19 48.501 -29s14.5 -23 14.5 -39
c0 -17.333 -6.33301 -30.5 -19 -39.5s-28 -13.5 -46 -13.5c-17.333 0 -33.5 2.66699 -48.5 8s-29.5 12.333 -43.5 21l-5 -46c12.667 -7.33301 26.834 -13.166 42.501 -17.499s33.167 -6.5 52.5 -6.5z" />
    <glyph glyph-name="apple" unicode="&#xf8ff;" horiz-adv-x="694" 
d="M644 -200v921h-101l-29 79h-334l-30 -79h-100v-554c9.33301 0 17 -3.16699 23 -9.5s9 -13.833 9 -22.5c0 -9.33301 -3 -17 -9 -23s-13.667 -9 -23 -9v-303h207l8 14h163l8 -14h208zM400 563h58v-14h-43v-66h38v-14h-38v-78h-15v172zM184 563h15v-79h47v79h15v-172h-15v79
h-47v-79h-15v172zM460 394l-0.000976562 15.999c2.66699 -1.33301 6 -2.66602 10 -3.99902s7.33301 -2 10 -2c10.667 0 16 7.33301 16 22v137h16v-137c0 -24 -10.333 -36 -31 -36c-3.33301 0 -7.16602 0.333008 -11.499 1s-7.5 1.66699 -9.5 3zM522.999 322.999h8v-24l21 24
h10l-18 -20l19 -26h-9l-16 20l-7 -7v-13h-8v46zM487.999 291.999h-12v-15h-8v46h21c5.33301 0 9.33301 -1.5 12 -4.5s4 -6.16699 4 -9.5c0 -8 -3.33301 -13 -10 -15l12 -17h-9zM425.999 275.999c-7.33301 0 -13 2.33301 -17 7s-6 10.334 -6 17.001c0 6 2 11.5 6 16.5
s9.66699 7.5 17 7.5s13.166 -2.5 17.499 -7.5s6.5 -10.5 6.5 -16.5c0 -6.66699 -2.16699 -12.334 -6.5 -17.001s-10.166 -7 -17.499 -7zM369.999 300.999l13 22h9l-18 -29v-17h-8v17l-18 29h9zM192.999 322.999h33v-7h-25v-12h22v-7h-22v-13h25v-7h-33v46zM131.999 322.999
h7l25 -32v32h8v-46h-7l-25 32v-32h-8v46zM240.999 322.999h8l10 -35h1l11 35h8l10 -35h1l10 35h8l-14 -47h-8l-11 34h-1l-10 -34h-8zM326.999 478.999c10 10.667 15 21.333 15 32c0 5.33301 -1.16699 9.83301 -3.5 13.5s-5.5 5.5 -9.5 5.5s-7.33301 -1.83301 -10 -5.5
s-4 -8.16699 -4 -13.5s1.16699 -10.333 3.5 -15zM341.999 422.998l-20 39c-10 -10 -15 -21 -15 -33c0 -7.33301 1.5 -13.666 4.5 -18.999s7.16699 -8 12.5 -8c3.33301 0 6.83301 2.16699 10.5 6.5s6.16699 9.16602 7.5 14.499zM487.999 298.998c6 0 9 3 9 9
c0 5.33301 -3.33301 8 -10 8h-11v-17h12zM425.999 282.998c4.66699 0 8.5 1.66699 11.5 5s4.5 7.33301 4.5 12c0 4 -1.5 7.83301 -4.5 11.5s-6.83301 5.5 -11.5 5.5s-8.33398 -1.83301 -11.001 -5.5s-4 -7.5 -4 -11.5c0 -4.66699 1.33301 -8.66699 4 -12
s6.33398 -5 11.001 -5zM348.999 437.998l4.5 15l4.5 15l13 -3c-1.33301 -7.33301 -3.16602 -14.166 -5.49902 -20.499s-4.83301 -12.5 -7.5 -18.5l16 -30l-11 -8l-12 24h-1c-2.66699 -6 -6.16699 -11.5 -10.5 -16.5s-9.83301 -7.5 -16.5 -7.5
c-9.33301 0 -16.833 3.66699 -22.5 11s-8.5 16.666 -8.5 27.999c0 18 7.66699 33 23 45c-4 7.33301 -7.33301 13.833 -10 19.5s-4 12.167 -4 19.5s2.5 14.333 7.5 21s11.833 10 20.5 10c9.33301 0 16.166 -3.33301 20.499 -10s6.5 -13.667 6.5 -21
c0 -8 -2.16699 -15.5 -6.5 -22.5s-9.83301 -13.5 -16.5 -19.5z" />
    <glyph glyph-name="fi" unicode="&#xfb01;" horiz-adv-x="532" 
d="M462 635c0 12.667 -4.5 23.667 -13.5 33s-20.167 14 -33.5 14c-12.667 0 -23.5 -4.66699 -32.5 -14s-13.5 -20.333 -13.5 -33s4.5 -23.667 13.5 -33s19.833 -14 32.5 -14c13.333 0 24.5 4.66699 33.5 14s13.5 20.333 13.5 33zM281 652l-9.99805 61
c-4.66699 0.666992 -9.33398 1.16699 -14.001 1.5s-11.334 0.5 -20.001 0.5c-40.667 0 -73 -10.167 -97 -30.5s-36 -52.5 -36 -96.5v-115h-72v-56h72v-417h65v417h106l-9 56h-97v110c0 26 6.33301 44.5 19 55.5s30.334 16.5 53.001 16.5c17.333 0 30.666 -1 39.999 -3z
M448.002 0v473h-66v-473h66z" />
    <glyph glyph-name="fl" unicode="&#xfb02;" horiz-adv-x="532" 
d="M448 0v718l-66 -12v-706h66zM281 652l-9.99805 61c-4.66699 0.666992 -9.33398 1.16699 -14.001 1.5s-11.334 0.5 -20.001 0.5c-40.667 0 -73 -10.167 -97 -30.5s-36 -52.5 -36 -96.5v-115h-72v-56h72v-417h65v417h106l-9 56h-97v110c0 26 6.33301 44.5 19 55.5
s30.334 16.5 53.001 16.5c17.333 0 30.666 -1 39.999 -3z" />
    <glyph glyph-name="NUL" horiz-adv-x="0" 
 />
    <glyph glyph-name="nonmarkingreturn" horiz-adv-x="226" 
 />
    </font>
</defs>
</svg>
