<?xml version="1.0" encoding="utf-8"?>
<!-- Generator: Adobe Illustrator 17.1.0, SVG Export Plug-In . SVG Version: 6.00 Build 0)  -->
<!DOCTYPE svg PUBLIC "-//W3C//DTD SVG 1.1//EN" "http://www.w3.org/Graphics/SVG/1.1/DTD/svg11.dtd">
<svg version="1.1" id="Layer_1" xmlns="http://www.w3.org/2000/svg" xmlns:xlink="http://www.w3.org/1999/xlink" x="0px" y="0px"
	 viewBox="0 0 100 41.5" enable-background="new 0 0 100 41.5" xml:space="preserve">
<g>
	<path fill="#00497A" d="M0,10.1C0,9,0.5,8.4,1.7,8.4h10.6v2.4c0,1.1-0.6,1.7-1.7,1.7H4.8v3.5h6.3v3.9H4.8v3.8h7.5V26
		c0,1.1-0.6,1.7-1.7,1.7h-9C0.5,27.7,0,27.1,0,26V10.1z M14.3,10.1c0-1.1,0.5-1.7,1.7-1.7h6.3c4.4,0,6.9,2,6.9,5.8
		c0,2.6-1,4.3-3.4,5.3l3.8,7.4c0.1,0.3,0.3,0.5,0.3,0.8h-4.2c-0.9,0-1.2,0-1.7-0.9l-3.4-7h-1.5v7.8h-4.8V10.1z M19.1,12.5v3.5h2.7
		c1.4,0,2.5-0.2,2.5-1.7c0-1.5-1.1-1.7-2.5-1.7H19.1z M37.1,8.2c4,0,6.1,0.5,6.1,2.3v1.9h-5.5c-1.5,0-1.9,0.4-1.9,1.2
		c0,2.3,8.4,1.8,8.4,8.4c0,3.1-1.8,5.8-7.2,5.8c-3.6,0-6.4-0.6-6.4-2.3v-1.9h6.5c1.3,0,2-0.4,2-1.4c0-2.5-8.4-2.1-8.4-8.7
		C30.7,10.6,32.7,8.2,37.1,8.2z M57.4,8.4v2.4c0,1.1-0.6,1.6-1.7,1.6h-2.4v15.2h-4.8V12.5h-4.1V10c0-1.1,0.6-1.6,1.7-1.6H57.4z
		 M58.9,10.1c0-1.1,0.5-1.7,1.7-1.7h10.6v2.4c0,1.1-0.6,1.7-1.7,1.7h-5.7v3.5h6.3v3.9h-6.3v3.8h7.5V26c0,1.1-0.6,1.7-1.7,1.7h-9
		c-1.1,0-1.7-0.6-1.7-1.7V10.1z M0,32.5c0-0.5,0.2-0.7,0.6-0.7h2.5c2.1,0,3.2,0.9,3.2,2.5c0,1-0.5,1.8-1.4,2.1
		c1.2,0.3,1.8,1.1,1.8,2.3c0,1.7-1.1,2.6-3.2,2.6H0.6c-0.5,0-0.6-0.3-0.6-0.7V32.5z M3.2,35.9c1,0,1.7-0.3,1.7-1.4
		C4.9,33.4,4.1,33,3,33H1.4v2.9H3.2z M3.4,40.2c1.1,0,1.8-0.3,1.8-1.5c0-1.2-0.7-1.5-1.8-1.5h-2v3.1H3.4z M12.5,41.4
		c-0.5,0-0.7-0.3-0.7-0.6v-0.2c-0.6,0.7-1.4,1-2.1,1c-1.4,0-2.2-0.8-2.2-2.1c0-1.9,2-2.4,4.3-2.5v-0.7c0-1-0.7-1.3-1.6-1.3H8.1v-0.4
		c0-0.7,0.8-0.7,2.4-0.7c1.7,0,2.8,0.8,2.8,2.3v5.3H12.5z M11.9,37.8c-2.1,0-2.9,0.5-2.9,1.5c0,0.8,0.6,1.1,1.4,1.1
		c0.6,0,1.1-0.3,1.5-0.6V37.8z M14.9,41.4v-7.5h0.7c0.5,0,0.7,0.3,0.7,0.6v0.3c0.6-0.7,1.4-0.9,2.1-0.9c1.5,0,2.2,0.9,2.2,2.3v5.3
		h-1.3v-5.2c0-0.9-0.5-1.3-1.4-1.3c-0.6,0-1.2,0.3-1.6,0.6v5.9H14.9z M23.5,37.2l2.8-3c0.2-0.2,0.3-0.3,0.6-0.3h1.2
		c0,0.1,0,0.2-0.1,0.3l-3,3.2l3.1,3.7c0.1,0.1,0.1,0.2,0.1,0.3h-1.2c-0.3,0-0.5-0.2-0.7-0.4l-2.6-3.2v3.6h-1.4v-9.2
		c0-0.5,0.2-0.7,0.6-0.7h0.7V37.2z"/>
	<path fill="#E20613" d="M85.7,6.2c-0.7-0.7-1-1.6-1-2.6c0-1,0.3-1.8,1-2.5C86.4,0.4,87.2,0,88.2,0c1,0,1.8,0.4,2.5,1.1
		c0.7,0.7,1.1,1.6,1.1,2.6c0,1-0.3,1.9-1,2.6c-0.7,0.7-1.5,1.1-2.5,1.1C87.2,7.3,86.4,6.9,85.7,6.2z M100,14.4v-2.2
		c0-2.1-1.7-3.8-3.8-3.8h-16c-2.1,0-3.8,1.7-3.8,3.8v8.3h17.9v1.3H76.4v2.2c0,2.1,1.7,3.8,3.8,3.8h16c2.1,0,3.8-1.7,3.8-3.8v-8.3
		H82.1v-1.3H100z"/>
</g>
</svg>
