<?xml version="1.0" encoding="utf-8"?>
<!-- Generator: Adobe Illustrator 17.1.0, SVG Export Plug-In . SVG Version: 6.00 Build 0)  -->
<!DOCTYPE svg PUBLIC "-//W3C//DTD SVG 1.1//EN" "http://www.w3.org/Graphics/SVG/1.1/DTD/svg11.dtd">
<svg version="1.1" id="Layer_1" xmlns="http://www.w3.org/2000/svg" xmlns:xlink="http://www.w3.org/1999/xlink" x="0px" y="0px"
	 viewBox="0 174.4 200 83.2" enable-background="new 0 174.4 200 83.2" xml:space="preserve">
<g>
	<path fill="#00497A" d="M0,194.6c0-2.2,1-3.4,3.4-3.4h21.2v4.8c0,2.2-1.2,3.4-3.4,3.4H9.6v7h12.6v7.8H9.6v7.6h15v4.6
		c0,2.2-1.2,3.4-3.4,3.4h-18c-2.2,0-3.2-1.2-3.2-3.4C0,226.4,0,194.6,0,194.6z M28.6,194.6c0-2.2,1-3.4,3.4-3.4h12.6
		c8.8,0,13.8,4,13.8,11.6c0,5.2-2,8.6-6.8,10.6l7.6,14.8c0.2,0.6,0.6,1,0.6,1.6h-8.4c-1.8,0-2.4,0-3.4-1.8l-6.8-14h-3v15.6h-9.6
		C28.6,229.6,28.6,194.6,28.6,194.6z M38.2,199.4v7h5.4c2.8,0,5-0.4,5-3.4s-2.2-3.4-5-3.4h-5.4V199.4z M74.2,190.8
		c8,0,12.2,1,12.2,4.6v3.8h-11c-3,0-3.8,0.8-3.8,2.4c0,4.6,16.8,3.6,16.8,16.8c0,6.2-3.6,11.6-14.4,11.6c-7.2,0-12.8-1.2-12.8-4.6
		v-3.8h13c2.6,0,4-0.8,4-2.8c0-5-16.8-4.2-16.8-17.4C61.4,195.6,65.4,190.8,74.2,190.8z M114.8,191.2v4.8c0,2.2-1.2,3.2-3.4,3.2
		h-4.8v30.4H97v-30.2h-8.2v-5c0-2.2,1.2-3.2,3.4-3.2H114.8z M117.8,194.6c0-2.2,1-3.4,3.4-3.4h21.2v4.8c0,2.2-1.2,3.4-3.4,3.4h-11.4
		v7h12.6v7.8h-12.6v7.6h15v4.6c0,2.2-1.2,3.4-3.4,3.4h-18c-2.2,0-3.4-1.2-3.4-3.4C117.8,226.4,117.8,194.6,117.8,194.6z M0,239.4
		c0-1,0.4-1.4,1.2-1.4h5c4.2,0,6.4,1.8,6.4,5c0,2-1,3.6-2.8,4.2c2.4,0.6,3.6,2.2,3.6,4.6c0,3.4-2.2,5.2-6.4,5.2H1.2
		c-1,0-1.2-0.6-1.2-1.4V239.4z M6.4,246.2c2,0,3.4-0.6,3.4-2.8s-1.6-3-3.8-3H2.8v5.8H6.4z M6.8,254.8c2.2,0,3.6-0.6,3.6-3
		s-1.4-3-3.6-3h-4v6.2h4C6.8,255,6.8,254.8,6.8,254.8z M25,257.2c-1,0-1.4-0.6-1.4-1.2v-0.4c-1.2,1.4-2.8,2-4.2,2
		c-2.8,0-4.4-1.6-4.4-4.2c0-3.8,4-4.8,8.6-5V247c0-2-1.4-2.6-3.2-2.6h-4.2v-0.8c0-1.4,1.6-1.4,4.8-1.4c3.4,0,5.6,1.6,5.6,4.6v10.6
		H25V257.2z M23.8,250c-4.2,0-5.8,1-5.8,3c0,1.6,1.2,2.2,2.8,2.2c1.2,0,2.2-0.6,3-1.2V250z M29.8,257.2v-15h1.4c1,0,1.4,0.6,1.4,1.2
		v0.6c1.2-1.4,2.8-1.8,4.2-1.8c3,0,4.4,1.8,4.4,4.6v10.6h-2.6V247c0-1.8-1-2.6-2.8-2.6c-1.2,0-2.4,0.6-3.2,1.2v11.8h-2.8
		C29.8,257.4,29.8,257.2,29.8,257.2z M47,248.8l5.6-6c0.4-0.4,0.6-0.6,1.2-0.6h2.4c0,0.2,0,0.4-0.2,0.6l-6,6.4l6.2,7.4
		c0.2,0.2,0.2,0.4,0.2,0.6H54c-0.6,0-1-0.4-1.4-0.8l-5.2-6.4v7.2h-2.8v-18.4c0-1,0.4-1.4,1.2-1.4h1.4v11.4H47L47,248.8z"/>
	<path fill="#E20613" d="M171.4,186.8c-1.4-1.4-2-3.2-2-5.2s0.6-3.6,2-5s3-2.2,5-2.2s3.6,0.8,5,2.2s2.2,3.2,2.2,5.2s-0.6,3.8-2,5.2
		s-3,2.2-5,2.2C174.4,189,172.8,188.2,171.4,186.8z M200,203.2v-4.4c0-4.2-3.4-7.6-7.6-7.6h-32c-4.2,0-7.6,3.4-7.6,7.6v16.6h35.8
		v2.6h-35.8v4.4c0,4.2,3.4,7.6,7.6,7.6h32c4.2,0,7.6-3.4,7.6-7.6v-16.6h-35.8v-2.6H200z"/>
</g>
</svg>
